{"glyphs":{"0":{"ha":663,"x_min":49,"x_max":614,"o":"m 333 -18 q 185 19 250 -18 q 85 122 121 57 q 49 272 49 188 q 85 419 49 356 q 186 518 121 482 q 335 554 251 554 q 481 517 418 554 q 578 416 543 481 q 614 268 614 351 q 578 120 614 185 q 480 19 543 56 q 333 -18 417 -18 m 349 1 q 476 71 435 1 q 518 251 518 140 q 490 413 518 350 q 417 505 463 475 q 319 535 372 535 q 190 464 236 535 q 143 283 143 393 q 169 139 143 203 q 240 38 194 75 q 349 1 286 1 z "},"1":{"ha":461,"x_min":68,"x_max":393,"o":"m 192 424 q 184 485 192 464 q 151 513 176 506 q 72 519 125 519 q 68 528 68 519 q 72 536 68 536 q 144 535 104 536 q 231 533 185 533 q 317 535 276 533 q 389 536 358 536 q 393 528 393 536 q 389 519 393 519 q 314 513 340 519 q 278 485 288 506 q 269 424 269 464 l 269 113 q 277 51 269 72 q 311 24 285 31 q 389 17 338 17 q 393 8 393 17 q 389 0 393 0 q 317 1 358 0 q 231 3 276 3 q 145 1 186 3 q 72 0 104 0 q 68 8 68 0 q 72 17 68 17 q 148 24 122 17 q 183 51 174 31 q 192 113 192 72 l 192 424 z "},"2":{"ha":558,"x_min":47,"x_max":518,"o":"m 51 21 q 201 146 140 92 q 297 242 261 200 q 349 322 333 285 q 365 397 365 360 q 331 489 365 454 q 243 524 297 524 q 149 480 188 524 q 85 351 110 436 q 75 350 83 349 q 68 356 67 351 l 122 567 q 132 569 124 571 q 138 564 140 567 q 140 533 132 540 q 157 526 147 526 q 213 540 178 526 q 300 554 249 554 q 413 516 372 554 q 453 417 453 478 q 435 342 453 379 q 381 266 417 306 q 290 181 344 226 q 161 78 235 135 q 158 71 156 74 q 167 68 161 68 q 331 70 268 68 q 428 80 393 72 q 478 106 463 88 q 501 158 494 125 q 510 160 503 161 q 518 157 518 160 l 497 15 q 494 5 497 10 q 485 0 490 0 q 275 0 386 0 q 61 0 164 0 q 51 8 56 0 q 51 21 47 15 z "},"3":{"ha":540,"x_min":44,"x_max":485,"o":"m 82 -382 q 73 -376 76 -383 q 75 -367 69 -368 q 226 -297 167 -337 q 322 -210 286 -257 q 371 -116 357 -162 q 385 -28 385 -69 q 369 58 385 17 q 320 124 354 99 q 229 150 286 150 q 196 149 213 150 q 161 142 179 147 q 154 149 157 140 q 156 158 151 157 q 310 238 267 188 q 354 372 354 288 q 326 482 354 440 q 233 524 297 524 q 131 485 174 524 q 63 358 88 446 q 53 357 61 356 q 46 363 44 358 l 97 565 q 108 567 100 569 q 114 563 115 565 q 117 531 108 539 q 135 524 125 524 q 192 539 156 524 q 279 554 228 554 q 401 506 360 554 q 443 396 443 457 q 419 297 443 344 q 351 213 396 249 q 244 165 307 178 l 265 183 q 389 154 340 182 q 461 82 438 126 q 485 -12 485 38 q 442 -148 485 -76 q 310 -281 400 -219 q 82 -382 221 -343 z "},"4":{"ha":626,"x_min":25,"x_max":581,"o":"m 40 11 q 30 17 35 11 q 31 28 25 22 l 436 550 q 448 553 439 554 q 457 544 457 551 l 457 -212 q 446 -232 457 -228 l 388 -261 q 375 -253 375 -268 l 375 439 l 419 469 l 101 63 q 100 56 97 58 q 108 53 103 53 q 249 53 188 53 q 363 56 311 54 q 465 58 414 57 q 575 61 515 60 q 580 47 579 61 q 579 17 581 32 q 574 1 578 1 q 465 6 519 4 q 351 9 411 8 q 215 10 290 10 q 40 11 139 11 z "},"5":{"ha":568,"x_min":78,"x_max":496,"o":"m 108 272 q 329 239 246 272 q 450 147 413 206 q 488 13 488 89 q 447 -131 488 -67 q 321 -256 407 -196 q 94 -382 235 -317 q 85 -376 89 -383 q 86 -367 81 -369 q 274 -248 207 -307 q 369 -130 342 -189 q 396 -11 396 -71 q 319 167 396 103 q 94 232 242 232 q 81 249 78 232 l 125 496 q 129 508 126 506 q 143 511 132 510 q 329 534 263 525 q 426 549 396 543 q 466 565 457 556 q 479 588 475 574 q 488 591 481 592 q 494 585 496 590 l 467 483 q 453 462 461 465 q 428 458 444 458 l 165 453 q 144 432 147 453 l 110 240 l 108 272 z "},"6":{"ha":646,"x_min":65,"x_max":597,"o":"m 415 393 q 522 368 482 393 q 579 303 561 343 q 597 221 597 264 q 560 101 597 156 q 460 14 522 46 q 319 -18 397 -18 q 134 62 203 -18 q 65 289 65 142 q 123 542 65 418 q 291 766 181 667 q 556 918 401 865 q 564 913 561 919 q 563 903 567 906 q 335 744 426 842 q 199 533 244 646 q 154 313 154 421 q 178 160 154 229 q 248 50 203 92 q 358 8 293 8 q 467 55 425 8 q 508 183 508 101 q 474 305 508 256 q 368 354 440 354 q 299 339 331 354 q 229 289 268 324 q 219 290 226 285 q 215 299 213 294 q 302 369 251 344 q 415 393 353 393 z "},"7":{"ha":596,"x_min":31,"x_max":546,"o":"m 226 -303 q 214 -324 221 -317 q 197 -336 207 -331 l 128 -382 q 121 -379 125 -383 q 118 -372 117 -375 l 488 457 q 481 467 492 467 q 288 465 364 467 q 167 458 211 464 q 99 442 122 453 q 66 415 76 432 q 49 372 56 399 q 39 369 47 368 q 32 376 31 371 l 81 574 q 91 576 83 576 q 97 572 99 575 q 104 542 92 549 q 163 536 117 536 q 226 536 183 536 q 324 536 269 536 q 433 536 378 536 q 531 536 488 536 q 542 530 538 536 q 543 518 546 524 l 226 -303 z "},"8":{"ha":679,"x_min":65,"x_max":629,"o":"m 386 474 q 446 547 425 510 q 467 629 467 585 q 428 735 467 694 q 331 775 389 775 q 252 748 285 775 q 219 672 219 721 q 246 594 219 628 q 315 535 272 561 q 404 482 358 508 q 512 418 460 451 q 597 339 564 385 q 629 225 629 293 q 590 99 629 154 q 483 13 550 44 q 336 -18 415 -18 q 192 14 253 -18 q 98 97 131 46 q 65 208 65 149 q 101 333 65 275 q 192 433 136 390 q 307 497 247 476 l 315 486 q 198 388 240 451 q 156 244 156 325 q 183 129 156 183 q 260 41 211 75 q 375 7 310 7 q 465 28 425 7 q 527 89 504 50 q 550 181 550 128 q 517 296 550 250 q 433 374 483 342 q 328 435 382 407 q 238 488 281 461 q 169 549 196 515 q 143 631 143 583 q 178 725 143 689 q 263 779 213 761 q 360 797 314 797 q 460 775 418 797 q 524 719 501 753 q 546 651 546 686 q 506 555 546 604 q 393 465 465 506 l 386 474 z "},"9":{"ha":646,"x_min":49,"x_max":581,"o":"m 246 151 q 131 181 174 151 q 68 253 88 210 q 49 339 49 297 q 82 451 49 403 q 173 526 115 499 q 301 554 231 554 q 450 514 388 554 q 547 401 513 474 q 581 231 581 328 q 548 44 581 138 q 453 -133 515 -50 q 299 -281 390 -217 q 90 -382 207 -346 q 83 -376 86 -383 q 85 -367 79 -369 q 263 -260 186 -325 q 391 -117 340 -194 q 467 44 442 -39 q 492 203 492 126 q 481 309 492 253 q 444 415 469 365 q 378 497 419 465 q 279 528 338 528 q 176 485 214 528 q 138 365 138 443 q 176 242 138 293 q 290 190 214 190 q 355 202 326 190 q 417 242 383 214 q 428 241 421 246 q 432 232 435 236 q 246 151 363 151 z "},"Æ":{"ha":1214,"x_min":-1,"x_max":1146,"o":"m 4 0 q -1 8 -1 0 q 4 17 -1 17 q 100 60 47 17 q 208 183 153 104 l 629 797 q 641 842 656 833 q 540 851 626 851 q 538 860 538 851 q 540 868 538 868 l 1088 868 q 1100 856 1100 868 l 1103 685 q 1095 680 1103 681 q 1088 683 1088 679 q 1065 762 1085 726 q 1013 818 1046 797 q 939 839 981 839 l 863 839 q 792 833 817 839 q 760 808 768 826 q 751 754 751 789 l 751 118 q 760 63 751 82 q 792 36 768 43 q 860 29 815 29 l 961 29 q 1036 52 1001 29 q 1096 115 1071 75 q 1129 207 1121 154 q 1138 210 1129 211 q 1146 204 1146 208 q 1137 117 1140 168 q 1133 21 1133 65 q 1111 0 1133 0 l 544 0 q 542 8 542 0 q 544 17 542 17 q 620 24 594 17 q 654 51 646 31 q 663 113 663 72 l 663 817 l 697 839 l 244 175 q 206 56 189 96 q 311 17 224 17 q 318 8 318 17 q 311 0 318 0 q 231 3 267 0 q 140 6 196 6 q 67 3 94 6 q 4 0 40 0 m 403 438 l 424 467 l 717 467 l 726 438 l 403 438 m 1033 324 q 1003 411 1033 385 q 904 438 974 438 l 701 438 l 701 467 l 907 467 q 1003 490 975 467 q 1032 564 1032 513 q 1040 567 1032 567 q 1049 564 1049 567 q 1048 499 1049 522 q 1047 451 1047 476 q 1049 389 1047 419 q 1050 324 1050 358 q 1042 321 1050 321 q 1033 324 1033 321 z "},"Ǽ":{"ha":1214,"x_min":-1,"x_max":1146,"o":"m 4 0 q -1 8 -1 0 q 4 17 -1 17 q 100 60 47 17 q 208 183 153 104 l 629 797 q 641 842 656 833 q 540 851 626 851 q 538 860 538 851 q 540 868 538 868 l 1088 868 q 1100 856 1100 868 l 1103 685 q 1095 680 1103 681 q 1088 683 1088 679 q 1065 762 1085 726 q 1013 818 1046 797 q 939 839 981 839 l 863 839 q 792 833 817 839 q 760 808 768 826 q 751 754 751 789 l 751 118 q 760 63 751 82 q 792 36 768 43 q 860 29 815 29 l 961 29 q 1036 52 1001 29 q 1096 115 1071 75 q 1129 207 1121 154 q 1138 210 1129 211 q 1146 204 1146 208 q 1137 117 1140 168 q 1133 21 1133 65 q 1111 0 1133 0 l 544 0 q 542 8 542 0 q 544 17 542 17 q 620 24 594 17 q 654 51 646 31 q 663 113 663 72 l 663 817 l 697 839 l 244 175 q 206 56 189 96 q 311 17 224 17 q 318 8 318 17 q 311 0 318 0 q 231 3 267 0 q 140 6 196 6 q 67 3 94 6 q 4 0 40 0 m 403 438 l 424 467 l 717 467 l 726 438 l 403 438 m 1033 324 q 1003 411 1033 385 q 904 438 974 438 l 701 438 l 701 467 l 907 467 q 1003 490 975 467 q 1032 564 1032 513 q 1040 567 1032 567 q 1049 564 1049 567 q 1048 499 1049 522 q 1047 451 1047 476 q 1049 389 1047 419 q 1050 324 1050 358 q 1042 321 1050 321 q 1033 324 1033 321 m 669 943 q 661 948 664 940 q 663 957 658 956 q 781 1024 728 990 q 889 1089 835 1058 q 910 1088 893 1093 q 947 1074 928 1082 q 976 1058 965 1065 q 978 1050 986 1051 q 813 1001 885 1028 q 669 943 740 975 z "},"Ǣ":{"ha":1214,"x_min":-1,"x_max":1146,"o":"m 4 0 q -1 8 -1 0 q 4 17 -1 17 q 100 60 47 17 q 208 183 153 104 l 629 797 q 641 842 656 833 q 540 851 626 851 q 538 860 538 851 q 540 868 538 868 l 1088 868 q 1100 856 1100 868 l 1103 685 q 1095 680 1103 681 q 1088 683 1088 679 q 1065 762 1085 726 q 1013 818 1046 797 q 939 839 981 839 l 863 839 q 792 833 817 839 q 760 808 768 826 q 751 754 751 789 l 751 118 q 760 63 751 82 q 792 36 768 43 q 860 29 815 29 l 961 29 q 1036 52 1001 29 q 1096 115 1071 75 q 1129 207 1121 154 q 1138 210 1129 211 q 1146 204 1146 208 q 1137 117 1140 168 q 1133 21 1133 65 q 1111 0 1133 0 l 544 0 q 542 8 542 0 q 544 17 542 17 q 620 24 594 17 q 654 51 646 31 q 663 113 663 72 l 663 817 l 697 839 l 244 175 q 206 56 189 96 q 311 17 224 17 q 318 8 318 17 q 311 0 318 0 q 231 3 267 0 q 140 6 196 6 q 67 3 94 6 q 4 0 40 0 m 403 438 l 424 467 l 717 467 l 726 438 l 403 438 m 1033 324 q 1003 411 1033 385 q 904 438 974 438 l 701 438 l 701 467 l 907 467 q 1003 490 975 467 q 1032 564 1032 513 q 1040 567 1032 567 q 1049 564 1049 567 q 1048 499 1049 522 q 1047 451 1047 476 q 1049 389 1047 419 q 1050 324 1050 358 q 1042 321 1050 321 q 1033 324 1033 321 m 629 1003 q 622 1013 624 1003 q 622 1032 619 1022 q 629 1042 624 1042 l 978 1042 q 986 1032 985 1042 q 986 1013 988 1022 q 978 1003 985 1003 l 629 1003 z "},"B":{"ha":775,"x_min":57,"x_max":706,"o":"m 417 475 l 432 490 q 576 460 514 490 q 672 376 638 429 q 706 256 706 324 q 669 122 706 182 q 570 28 633 63 q 429 -6 507 -6 q 328 -1 385 -6 q 225 3 272 3 q 137 1 179 3 q 60 0 94 0 q 57 8 57 0 q 60 17 57 17 q 136 24 110 17 q 172 51 163 31 q 182 113 182 72 l 182 756 q 173 816 182 796 q 138 844 164 836 q 63 851 113 851 q 58 860 58 851 q 63 868 58 868 q 138 866 96 868 q 225 864 179 864 q 308 868 261 864 q 389 872 356 872 q 522 848 471 872 q 598 782 574 824 q 622 689 622 740 q 565 554 622 610 q 417 475 507 499 m 358 851 q 307 846 326 851 q 279 820 288 840 q 271 753 271 800 l 271 481 l 226 492 q 300 488 271 489 q 333 488 329 488 q 486 542 440 488 q 532 678 532 597 q 515 766 532 726 q 460 828 497 806 q 358 851 422 851 m 408 19 q 560 73 513 19 q 608 221 608 126 q 547 392 608 325 q 376 458 486 458 q 305 458 342 460 q 231 451 268 457 l 271 467 l 271 113 q 281 58 271 79 q 320 28 290 38 q 408 19 350 19 z "},"D":{"ha":960,"x_min":46,"x_max":892,"o":"m 421 -6 q 322 -1 381 -6 q 213 3 263 3 q 124 1 167 3 q 49 0 82 0 q 46 8 46 0 q 49 17 46 17 q 125 24 99 17 q 160 51 151 31 q 168 113 168 72 l 168 756 q 160 816 168 796 q 126 844 151 836 q 50 851 100 851 q 47 860 47 851 q 50 868 47 868 q 125 866 83 868 q 213 864 167 864 q 311 867 258 864 q 401 871 364 871 q 659 815 549 871 q 831 664 769 760 q 892 449 892 568 q 855 260 892 344 q 752 117 818 176 q 601 26 686 58 q 421 -6 515 -6 m 407 15 q 603 62 518 15 q 737 199 688 108 q 786 418 786 289 q 740 637 786 539 q 612 792 694 735 q 414 850 529 850 q 294 833 331 850 q 258 753 258 817 l 258 128 q 287 42 258 69 q 407 15 315 15 z "},"Ð":{"ha":960,"x_min":46,"x_max":892,"o":"m 74 418 q 68 425 69 418 q 68 439 67 432 q 74 446 69 446 l 447 446 q 452 439 451 446 q 452 425 453 432 q 447 418 451 418 l 74 418 m 421 -6 q 322 -1 381 -6 q 213 3 263 3 q 124 1 167 3 q 49 0 82 0 q 46 8 46 0 q 49 17 46 17 q 125 24 99 17 q 160 51 151 31 q 168 113 168 72 l 168 756 q 160 816 168 796 q 126 844 151 836 q 50 851 100 851 q 47 860 47 851 q 50 868 47 868 q 125 866 83 868 q 213 864 167 864 q 311 867 258 864 q 401 871 364 871 q 659 815 549 871 q 831 664 769 760 q 892 449 892 568 q 855 260 892 344 q 752 117 818 176 q 601 26 686 58 q 421 -6 515 -6 m 407 15 q 603 62 518 15 q 737 199 688 108 q 786 418 786 289 q 740 637 786 539 q 612 792 694 735 q 414 850 529 850 q 294 833 331 850 q 258 753 258 817 l 258 128 q 287 42 258 69 q 407 15 315 15 z "},"Ď":{"ha":960,"x_min":46,"x_max":892,"o":"m 421 -6 q 322 -1 381 -6 q 213 3 263 3 q 124 1 167 3 q 49 0 82 0 q 46 8 46 0 q 49 17 46 17 q 125 24 99 17 q 160 51 151 31 q 168 113 168 72 l 168 756 q 160 816 168 796 q 126 844 151 836 q 50 851 100 851 q 47 860 47 851 q 50 868 47 868 q 125 866 83 868 q 213 864 167 864 q 311 867 258 864 q 401 871 364 871 q 659 815 549 871 q 831 664 769 760 q 892 449 892 568 q 855 260 892 344 q 752 117 818 176 q 601 26 686 58 q 421 -6 515 -6 m 407 15 q 603 62 518 15 q 737 199 688 108 q 786 418 786 289 q 740 637 786 539 q 612 792 694 735 q 414 850 529 850 q 294 833 331 850 q 258 753 258 817 l 258 128 q 287 42 258 69 q 407 15 315 15 m 425 954 l 282 1089 q 284 1096 279 1092 q 290 1099 289 1100 l 442 1018 l 592 1099 q 599 1097 594 1101 q 599 1089 603 1092 l 457 954 q 442 949 451 949 q 425 954 432 949 z "},"Đ":{"ha":960,"x_min":46,"x_max":892,"o":"m 74 418 q 68 425 69 418 q 68 439 67 432 q 74 446 69 446 l 447 446 q 452 439 451 446 q 452 425 453 432 q 447 418 451 418 l 74 418 m 421 -6 q 322 -1 381 -6 q 213 3 263 3 q 124 1 167 3 q 49 0 82 0 q 46 8 46 0 q 49 17 46 17 q 125 24 99 17 q 160 51 151 31 q 168 113 168 72 l 168 756 q 160 816 168 796 q 126 844 151 836 q 50 851 100 851 q 47 860 47 851 q 50 868 47 868 q 125 866 83 868 q 213 864 167 864 q 311 867 258 864 q 401 871 364 871 q 659 815 549 871 q 831 664 769 760 q 892 449 892 568 q 855 260 892 344 q 752 117 818 176 q 601 26 686 58 q 421 -6 515 -6 m 407 15 q 603 62 518 15 q 737 199 688 108 q 786 418 786 289 q 740 637 786 539 q 612 792 694 735 q 414 850 529 850 q 294 833 331 850 q 258 753 258 817 l 258 128 q 287 42 258 69 q 407 15 315 15 z "},"Ḍ":{"ha":960,"x_min":46,"x_max":892,"o":"m 421 -6 q 322 -1 381 -6 q 213 3 263 3 q 124 1 167 3 q 49 0 82 0 q 46 8 46 0 q 49 17 46 17 q 125 24 99 17 q 160 51 151 31 q 168 113 168 72 l 168 756 q 160 816 168 796 q 126 844 151 836 q 50 851 100 851 q 47 860 47 851 q 50 868 47 868 q 125 866 83 868 q 213 864 167 864 q 311 867 258 864 q 401 871 364 871 q 659 815 549 871 q 831 664 769 760 q 892 449 892 568 q 855 260 892 344 q 752 117 818 176 q 601 26 686 58 q 421 -6 515 -6 m 407 15 q 603 62 518 15 q 737 199 688 108 q 786 418 786 289 q 740 637 786 539 q 612 792 694 735 q 414 850 529 850 q 294 833 331 850 q 258 753 258 817 l 258 128 q 287 42 258 69 q 407 15 315 15 m 450 -264 q 405 -249 421 -264 q 389 -206 389 -233 q 405 -162 389 -178 q 450 -147 421 -147 q 493 -162 478 -147 q 508 -206 508 -178 q 450 -264 508 -264 z "},"Ḏ":{"ha":960,"x_min":46,"x_max":892,"o":"m 421 -6 q 322 -1 381 -6 q 213 3 263 3 q 124 1 167 3 q 49 0 82 0 q 46 8 46 0 q 49 17 46 17 q 125 24 99 17 q 160 51 151 31 q 168 113 168 72 l 168 756 q 160 816 168 796 q 126 844 151 836 q 50 851 100 851 q 47 860 47 851 q 50 868 47 868 q 125 866 83 868 q 213 864 167 864 q 311 867 258 864 q 401 871 364 871 q 659 815 549 871 q 831 664 769 760 q 892 449 892 568 q 855 260 892 344 q 752 117 818 176 q 601 26 686 58 q 421 -6 515 -6 m 407 15 q 603 62 518 15 q 737 199 688 108 q 786 418 786 289 q 740 637 786 539 q 612 792 694 735 q 414 850 529 850 q 294 833 331 850 q 258 753 258 817 l 258 128 q 287 42 258 69 q 407 15 315 15 m 274 -157 q 267 -147 269 -157 q 267 -128 264 -137 q 274 -118 269 -118 l 622 -118 q 631 -128 629 -118 q 631 -147 632 -137 q 622 -157 629 -157 l 274 -157 z "},"E":{"ha":746,"x_min":57,"x_max":676,"o":"m 642 0 l 60 0 q 57 8 57 0 q 60 17 57 17 q 136 24 111 17 q 170 51 161 31 q 179 113 179 72 l 179 756 q 170 816 179 796 q 136 844 161 836 q 60 851 111 851 q 57 860 57 851 q 60 868 57 868 l 618 868 q 631 856 631 868 l 633 685 q 626 680 633 681 q 618 683 618 679 q 573 799 614 758 q 467 839 532 839 l 382 839 q 310 832 335 839 q 277 806 286 825 q 268 749 268 786 l 268 118 q 277 63 268 82 q 309 36 286 43 q 378 29 332 29 l 489 29 q 601 77 556 29 q 660 207 646 125 q 668 210 660 211 q 676 204 676 208 q 667 117 671 168 q 664 21 664 65 q 642 0 664 0 m 564 324 q 534 411 564 385 q 435 438 504 438 l 226 438 l 226 467 l 439 467 q 534 490 506 467 q 563 564 563 513 q 571 567 563 567 q 579 564 579 567 q 578 499 579 522 q 578 451 578 476 q 579 389 578 419 q 581 324 581 358 q 572 321 581 321 q 564 324 564 321 z "},"É":{"ha":746,"x_min":57,"x_max":676,"o":"m 642 0 l 60 0 q 57 8 57 0 q 60 17 57 17 q 136 24 111 17 q 170 51 161 31 q 179 113 179 72 l 179 756 q 170 816 179 796 q 136 844 161 836 q 60 851 111 851 q 57 860 57 851 q 60 868 57 868 l 618 868 q 631 856 631 868 l 633 685 q 626 680 633 681 q 618 683 618 679 q 573 799 614 758 q 467 839 532 839 l 382 839 q 310 832 335 839 q 277 806 286 825 q 268 749 268 786 l 268 118 q 277 63 268 82 q 309 36 286 43 q 378 29 332 29 l 489 29 q 601 77 556 29 q 660 207 646 125 q 668 210 660 211 q 676 204 676 208 q 667 117 671 168 q 664 21 664 65 q 642 0 664 0 m 564 324 q 534 411 564 385 q 435 438 504 438 l 226 438 l 226 467 l 439 467 q 534 490 506 467 q 563 564 563 513 q 571 567 563 567 q 579 564 579 567 q 578 499 579 522 q 578 451 578 476 q 579 389 578 419 q 581 324 581 358 q 572 321 581 321 q 564 324 564 321 m 271 943 q 263 948 265 940 q 264 957 260 956 q 383 1024 329 990 q 489 1089 436 1058 q 512 1088 494 1093 q 548 1074 529 1082 q 577 1058 567 1065 q 579 1050 588 1051 q 414 1001 486 1028 q 271 943 342 975 z "},"Ĕ":{"ha":746,"x_min":57,"x_max":676,"o":"m 642 0 l 60 0 q 57 8 57 0 q 60 17 57 17 q 136 24 111 17 q 170 51 161 31 q 179 113 179 72 l 179 756 q 170 816 179 796 q 136 844 161 836 q 60 851 111 851 q 57 860 57 851 q 60 868 57 868 l 618 868 q 631 856 631 868 l 633 685 q 626 680 633 681 q 618 683 618 679 q 573 799 614 758 q 467 839 532 839 l 382 839 q 310 832 335 839 q 277 806 286 825 q 268 749 268 786 l 268 118 q 277 63 268 82 q 309 36 286 43 q 378 29 332 29 l 489 29 q 601 77 556 29 q 660 207 646 125 q 668 210 660 211 q 676 204 676 208 q 667 117 671 168 q 664 21 664 65 q 642 0 664 0 m 564 324 q 534 411 564 385 q 435 438 504 438 l 226 438 l 226 467 l 439 467 q 534 490 506 467 q 563 564 563 513 q 571 567 563 567 q 579 564 579 567 q 578 499 579 522 q 578 451 578 476 q 579 389 578 419 q 581 324 581 358 q 572 321 581 321 q 564 324 564 321 m 406 958 q 309 997 346 958 q 263 1107 272 1036 q 269 1113 261 1113 q 278 1111 276 1114 q 323 1046 286 1074 q 406 1018 360 1018 q 485 1046 449 1018 q 532 1111 522 1074 q 540 1113 532 1114 q 547 1107 547 1113 q 500 997 536 1036 q 406 958 464 958 z "},"Ě":{"ha":746,"x_min":57,"x_max":676,"o":"m 642 0 l 60 0 q 57 8 57 0 q 60 17 57 17 q 136 24 111 17 q 170 51 161 31 q 179 113 179 72 l 179 756 q 170 816 179 796 q 136 844 161 836 q 60 851 111 851 q 57 860 57 851 q 60 868 57 868 l 618 868 q 631 856 631 868 l 633 685 q 626 680 633 681 q 618 683 618 679 q 573 799 614 758 q 467 839 532 839 l 382 839 q 310 832 335 839 q 277 806 286 825 q 268 749 268 786 l 268 118 q 277 63 268 82 q 309 36 286 43 q 378 29 332 29 l 489 29 q 601 77 556 29 q 660 207 646 125 q 668 210 660 211 q 676 204 676 208 q 667 117 671 168 q 664 21 664 65 q 642 0 664 0 m 564 324 q 534 411 564 385 q 435 438 504 438 l 226 438 l 226 467 l 439 467 q 534 490 506 467 q 563 564 563 513 q 571 567 563 567 q 579 564 579 567 q 578 499 579 522 q 578 451 578 476 q 579 389 578 419 q 581 324 581 358 q 572 321 581 321 q 564 324 564 321 m 389 954 l 246 1089 q 248 1096 243 1092 q 254 1099 253 1100 l 406 1018 l 556 1099 q 562 1097 558 1101 q 563 1089 565 1092 l 421 954 q 406 949 415 949 q 389 954 396 949 z "},"Ê":{"ha":746,"x_min":57,"x_max":676,"o":"m 642 0 l 60 0 q 57 8 57 0 q 60 17 57 17 q 136 24 111 17 q 170 51 161 31 q 179 113 179 72 l 179 756 q 170 816 179 796 q 136 844 161 836 q 60 851 111 851 q 57 860 57 851 q 60 868 57 868 l 618 868 q 631 856 631 868 l 633 685 q 626 680 633 681 q 618 683 618 679 q 573 799 614 758 q 467 839 532 839 l 382 839 q 310 832 335 839 q 277 806 286 825 q 268 749 268 786 l 268 118 q 277 63 268 82 q 309 36 286 43 q 378 29 332 29 l 489 29 q 601 77 556 29 q 660 207 646 125 q 668 210 660 211 q 676 204 676 208 q 667 117 671 168 q 664 21 664 65 q 642 0 664 0 m 564 324 q 534 411 564 385 q 435 438 504 438 l 226 438 l 226 467 l 439 467 q 534 490 506 467 q 563 564 563 513 q 571 567 563 567 q 579 564 579 567 q 578 499 579 522 q 578 451 578 476 q 579 389 578 419 q 581 324 581 358 q 572 321 581 321 q 564 324 564 321 m 247 961 l 390 1097 q 407 1104 397 1104 q 422 1097 417 1104 l 564 961 q 564 955 568 960 q 557 951 560 950 l 407 1032 l 256 951 q 249 955 254 950 q 247 961 244 960 z "},"Ế":{"ha":746,"x_min":57,"x_max":689,"o":"m 642 0 l 60 0 q 57 8 57 0 q 60 17 57 17 q 136 24 111 17 q 170 51 161 31 q 179 113 179 72 l 179 756 q 170 816 179 796 q 136 844 161 836 q 60 851 111 851 q 57 860 57 851 q 60 868 57 868 l 618 868 q 631 856 631 868 l 633 685 q 626 680 633 681 q 618 683 618 679 q 573 799 614 758 q 467 839 532 839 l 382 839 q 310 832 335 839 q 277 806 286 825 q 268 749 268 786 l 268 118 q 277 63 268 82 q 309 36 286 43 q 378 29 332 29 l 489 29 q 601 77 556 29 q 660 207 646 125 q 668 210 660 211 q 676 204 676 208 q 667 117 671 168 q 664 21 664 65 q 642 0 664 0 m 564 324 q 534 411 564 385 q 435 438 504 438 l 226 438 l 226 467 l 439 467 q 534 490 506 467 q 563 564 563 513 q 571 567 563 567 q 579 564 579 567 q 578 499 579 522 q 578 451 578 476 q 579 389 578 419 q 581 324 581 358 q 572 321 581 321 q 564 324 564 321 m 246 954 l 389 1089 q 406 1096 396 1096 q 421 1089 415 1096 l 563 954 q 563 948 567 953 q 556 944 558 943 l 406 1025 l 254 944 q 248 948 253 943 q 246 954 243 953 m 496 1006 q 487 1008 490 1003 q 486 1017 483 1013 q 543 1084 517 1050 q 593 1151 569 1118 q 608 1153 596 1156 q 634 1144 619 1150 q 663 1132 649 1139 q 683 1119 676 1125 q 682 1113 689 1114 q 583 1064 626 1090 q 496 1006 539 1038 z "},"Ệ":{"ha":746,"x_min":57,"x_max":676,"o":"m 642 0 l 60 0 q 57 8 57 0 q 60 17 57 17 q 136 24 111 17 q 170 51 161 31 q 179 113 179 72 l 179 756 q 170 816 179 796 q 136 844 161 836 q 60 851 111 851 q 57 860 57 851 q 60 868 57 868 l 618 868 q 631 856 631 868 l 633 685 q 626 680 633 681 q 618 683 618 679 q 573 799 614 758 q 467 839 532 839 l 382 839 q 310 832 335 839 q 277 806 286 825 q 268 749 268 786 l 268 118 q 277 63 268 82 q 309 36 286 43 q 378 29 332 29 l 489 29 q 601 77 556 29 q 660 207 646 125 q 668 210 660 211 q 676 204 676 208 q 667 117 671 168 q 664 21 664 65 q 642 0 664 0 m 564 324 q 534 411 564 385 q 435 438 504 438 l 226 438 l 226 467 l 439 467 q 534 490 506 467 q 563 564 563 513 q 571 567 563 567 q 579 564 579 567 q 578 499 579 522 q 578 451 578 476 q 579 389 578 419 q 581 324 581 358 q 572 321 581 321 q 564 324 564 321 m 400 -264 q 355 -249 371 -264 q 339 -206 339 -233 q 355 -162 339 -178 q 400 -147 371 -147 q 443 -162 428 -147 q 458 -206 458 -178 q 400 -264 458 -264 m 246 954 l 389 1089 q 406 1096 396 1096 q 421 1089 415 1096 l 563 954 q 563 948 567 953 q 556 944 558 943 l 406 1025 l 254 944 q 248 948 253 943 q 246 954 243 953 z "},"Ề":{"ha":746,"x_min":57,"x_max":676,"o":"m 642 0 l 60 0 q 57 8 57 0 q 60 17 57 17 q 136 24 111 17 q 170 51 161 31 q 179 113 179 72 l 179 756 q 170 816 179 796 q 136 844 161 836 q 60 851 111 851 q 57 860 57 851 q 60 868 57 868 l 618 868 q 631 856 631 868 l 633 685 q 626 680 633 681 q 618 683 618 679 q 573 799 614 758 q 467 839 532 839 l 382 839 q 310 832 335 839 q 277 806 286 825 q 268 749 268 786 l 268 118 q 277 63 268 82 q 309 36 286 43 q 378 29 332 29 l 489 29 q 601 77 556 29 q 660 207 646 125 q 668 210 660 211 q 676 204 676 208 q 667 117 671 168 q 664 21 664 65 q 642 0 664 0 m 564 324 q 534 411 564 385 q 435 438 504 438 l 226 438 l 226 467 l 439 467 q 534 490 506 467 q 563 564 563 513 q 571 567 563 567 q 579 564 579 567 q 578 499 579 522 q 578 451 578 476 q 579 389 578 419 q 581 324 581 358 q 572 321 581 321 q 564 324 564 321 m 246 954 l 389 1089 q 406 1096 396 1096 q 421 1089 415 1096 l 563 954 q 563 948 567 953 q 556 944 558 943 l 406 1025 l 254 944 q 248 948 253 943 q 246 954 243 953 m 638 975 q 551 1033 594 1007 q 453 1082 508 1058 q 453 1089 446 1083 q 473 1101 460 1094 q 501 1114 486 1108 q 528 1122 517 1119 q 542 1121 540 1124 q 592 1053 565 1088 q 647 988 618 1019 q 649 977 653 982 q 638 975 644 972 z "},"Ể":{"ha":746,"x_min":57,"x_max":676,"o":"m 642 0 l 60 0 q 57 8 57 0 q 60 17 57 17 q 136 24 111 17 q 170 51 161 31 q 179 113 179 72 l 179 756 q 170 816 179 796 q 136 844 161 836 q 60 851 111 851 q 57 860 57 851 q 60 868 57 868 l 618 868 q 631 856 631 868 l 633 685 q 626 680 633 681 q 618 683 618 679 q 573 799 614 758 q 467 839 532 839 l 382 839 q 310 832 335 839 q 277 806 286 825 q 268 749 268 786 l 268 118 q 277 63 268 82 q 309 36 286 43 q 378 29 332 29 l 489 29 q 601 77 556 29 q 660 207 646 125 q 668 210 660 211 q 676 204 676 208 q 667 117 671 168 q 664 21 664 65 q 642 0 664 0 m 564 324 q 534 411 564 385 q 435 438 504 438 l 226 438 l 226 467 l 439 467 q 534 490 506 467 q 563 564 563 513 q 571 567 563 567 q 579 564 579 567 q 578 499 579 522 q 578 451 578 476 q 579 389 578 419 q 581 324 581 358 q 572 321 581 321 q 564 324 564 321 m 246 954 l 389 1089 q 406 1096 396 1096 q 421 1089 415 1096 l 563 954 q 563 948 567 953 q 556 944 558 943 l 406 1025 l 254 944 q 248 948 253 943 q 246 954 243 953 m 517 1004 q 518 1048 508 1028 q 540 1087 528 1068 q 553 1128 553 1106 q 538 1160 553 1150 q 506 1171 522 1171 q 474 1164 488 1171 q 465 1167 471 1161 q 464 1175 460 1172 q 509 1194 486 1189 q 547 1200 532 1200 q 597 1182 581 1200 q 614 1142 614 1164 q 600 1102 614 1119 q 568 1069 586 1085 q 539 1038 550 1054 q 532 1004 528 1022 q 526 1001 533 1003 q 517 1004 518 1000 z "},"Ễ":{"ha":746,"x_min":57,"x_max":676,"o":"m 642 0 l 60 0 q 57 8 57 0 q 60 17 57 17 q 136 24 111 17 q 170 51 161 31 q 179 113 179 72 l 179 756 q 170 816 179 796 q 136 844 161 836 q 60 851 111 851 q 57 860 57 851 q 60 868 57 868 l 618 868 q 631 856 631 868 l 633 685 q 626 680 633 681 q 618 683 618 679 q 573 799 614 758 q 467 839 532 839 l 382 839 q 310 832 335 839 q 277 806 286 825 q 268 749 268 786 l 268 118 q 277 63 268 82 q 309 36 286 43 q 378 29 332 29 l 489 29 q 601 77 556 29 q 660 207 646 125 q 668 210 660 211 q 676 204 676 208 q 667 117 671 168 q 664 21 664 65 q 642 0 664 0 m 564 324 q 534 411 564 385 q 435 438 504 438 l 226 438 l 226 467 l 439 467 q 534 490 506 467 q 563 564 563 513 q 571 567 563 567 q 579 564 579 567 q 578 499 579 522 q 578 451 578 476 q 579 389 578 419 q 581 324 581 358 q 572 321 581 321 q 564 324 564 321 m 246 954 l 389 1089 q 406 1096 396 1096 q 421 1089 415 1096 l 563 954 q 563 948 567 953 q 556 944 558 943 l 406 1025 l 254 944 q 248 948 253 943 q 246 954 243 953 m 519 1165 q 560 1176 546 1165 q 588 1203 575 1188 q 595 1201 590 1206 q 597 1193 600 1196 q 536 1123 560 1140 q 488 1106 513 1106 q 428 1115 457 1106 q 371 1132 400 1124 q 307 1140 342 1140 q 265 1129 278 1140 q 238 1103 253 1118 q 230 1105 235 1101 q 228 1113 225 1108 q 258 1149 239 1129 q 299 1183 276 1168 q 346 1199 321 1199 q 397 1190 369 1199 q 455 1174 424 1182 q 519 1165 486 1165 z "},"Ȅ":{"ha":746,"x_min":57,"x_max":676,"o":"m 642 0 l 60 0 q 57 8 57 0 q 60 17 57 17 q 136 24 111 17 q 170 51 161 31 q 179 113 179 72 l 179 756 q 170 816 179 796 q 136 844 161 836 q 60 851 111 851 q 57 860 57 851 q 60 868 57 868 l 618 868 q 631 856 631 868 l 633 685 q 626 680 633 681 q 618 683 618 679 q 573 799 614 758 q 467 839 532 839 l 382 839 q 310 832 335 839 q 277 806 286 825 q 268 749 268 786 l 268 118 q 277 63 268 82 q 309 36 286 43 q 378 29 332 29 l 489 29 q 601 77 556 29 q 660 207 646 125 q 668 210 660 211 q 676 204 676 208 q 667 117 671 168 q 664 21 664 65 q 642 0 664 0 m 564 324 q 534 411 564 385 q 435 438 504 438 l 226 438 l 226 467 l 439 467 q 534 490 506 467 q 563 564 563 513 q 571 567 563 567 q 579 564 579 567 q 578 499 579 522 q 578 451 578 476 q 579 389 578 419 q 581 324 581 358 q 572 321 581 321 q 564 324 564 321 m 547 942 q 557 944 553 938 q 558 954 561 950 q 492 1021 522 989 q 433 1086 461 1053 q 413 1088 429 1090 q 377 1078 396 1085 q 347 1064 358 1071 q 343 1053 336 1057 q 451 1001 404 1028 q 547 942 499 975 m 375 942 q 385 944 381 938 q 386 954 389 950 q 320 1020 350 988 q 261 1086 290 1053 q 241 1088 257 1090 q 206 1078 225 1085 q 177 1064 188 1071 q 175 1053 167 1057 q 280 1002 233 1029 q 375 942 326 975 z "},"Ë":{"ha":746,"x_min":57,"x_max":676,"o":"m 642 0 l 60 0 q 57 8 57 0 q 60 17 57 17 q 136 24 111 17 q 170 51 161 31 q 179 113 179 72 l 179 756 q 170 816 179 796 q 136 844 161 836 q 60 851 111 851 q 57 860 57 851 q 60 868 57 868 l 618 868 q 631 856 631 868 l 633 685 q 626 680 633 681 q 618 683 618 679 q 573 799 614 758 q 467 839 532 839 l 382 839 q 310 832 335 839 q 277 806 286 825 q 268 749 268 786 l 268 118 q 277 63 268 82 q 309 36 286 43 q 378 29 332 29 l 489 29 q 601 77 556 29 q 660 207 646 125 q 668 210 660 211 q 676 204 676 208 q 667 117 671 168 q 664 21 664 65 q 642 0 664 0 m 564 324 q 534 411 564 385 q 435 438 504 438 l 226 438 l 226 467 l 439 467 q 534 490 506 467 q 563 564 563 513 q 571 567 563 567 q 579 564 579 567 q 578 499 579 522 q 578 451 578 476 q 579 389 578 419 q 581 324 581 358 q 572 321 581 321 q 564 324 564 321 m 285 996 q 241 1010 257 996 q 225 1053 225 1025 q 241 1094 225 1079 q 285 1110 257 1110 q 326 1094 311 1110 q 342 1053 342 1079 q 285 996 342 996 m 528 996 q 484 1010 500 996 q 468 1053 468 1025 q 484 1094 468 1079 q 528 1110 500 1110 q 585 1053 585 1110 q 528 996 585 996 z "},"Ė":{"ha":746,"x_min":57,"x_max":676,"o":"m 642 0 l 60 0 q 57 8 57 0 q 60 17 57 17 q 136 24 111 17 q 170 51 161 31 q 179 113 179 72 l 179 756 q 170 816 179 796 q 136 844 161 836 q 60 851 111 851 q 57 860 57 851 q 60 868 57 868 l 618 868 q 631 856 631 868 l 633 685 q 626 680 633 681 q 618 683 618 679 q 573 799 614 758 q 467 839 532 839 l 382 839 q 310 832 335 839 q 277 806 286 825 q 268 749 268 786 l 268 118 q 277 63 268 82 q 309 36 286 43 q 378 29 332 29 l 489 29 q 601 77 556 29 q 660 207 646 125 q 668 210 660 211 q 676 204 676 208 q 667 117 671 168 q 664 21 664 65 q 642 0 664 0 m 564 324 q 534 411 564 385 q 435 438 504 438 l 226 438 l 226 467 l 439 467 q 534 490 506 467 q 563 564 563 513 q 571 567 563 567 q 579 564 579 567 q 578 499 579 522 q 578 451 578 476 q 579 389 578 419 q 581 324 581 358 q 572 321 581 321 q 564 324 564 321 m 406 990 q 360 1006 376 990 q 344 1050 344 1022 q 360 1092 344 1076 q 406 1108 376 1108 q 449 1092 433 1108 q 464 1050 464 1076 q 449 1006 464 1022 q 406 990 433 990 z "},"Ẹ":{"ha":746,"x_min":57,"x_max":676,"o":"m 642 0 l 60 0 q 57 8 57 0 q 60 17 57 17 q 136 24 111 17 q 170 51 161 31 q 179 113 179 72 l 179 756 q 170 816 179 796 q 136 844 161 836 q 60 851 111 851 q 57 860 57 851 q 60 868 57 868 l 618 868 q 631 856 631 868 l 633 685 q 626 680 633 681 q 618 683 618 679 q 573 799 614 758 q 467 839 532 839 l 382 839 q 310 832 335 839 q 277 806 286 825 q 268 749 268 786 l 268 118 q 277 63 268 82 q 309 36 286 43 q 378 29 332 29 l 489 29 q 601 77 556 29 q 660 207 646 125 q 668 210 660 211 q 676 204 676 208 q 667 117 671 168 q 664 21 664 65 q 642 0 664 0 m 564 324 q 534 411 564 385 q 435 438 504 438 l 226 438 l 226 467 l 439 467 q 534 490 506 467 q 563 564 563 513 q 571 567 563 567 q 579 564 579 567 q 578 499 579 522 q 578 451 578 476 q 579 389 578 419 q 581 324 581 358 q 572 321 581 321 q 564 324 564 321 m 400 -264 q 355 -249 371 -264 q 339 -206 339 -233 q 355 -162 339 -178 q 400 -147 371 -147 q 443 -162 428 -147 q 458 -206 458 -178 q 400 -264 458 -264 z "},"È":{"ha":746,"x_min":57,"x_max":676,"o":"m 642 0 l 60 0 q 57 8 57 0 q 60 17 57 17 q 136 24 111 17 q 170 51 161 31 q 179 113 179 72 l 179 756 q 170 816 179 796 q 136 844 161 836 q 60 851 111 851 q 57 860 57 851 q 60 868 57 868 l 618 868 q 631 856 631 868 l 633 685 q 626 680 633 681 q 618 683 618 679 q 573 799 614 758 q 467 839 532 839 l 382 839 q 310 832 335 839 q 277 806 286 825 q 268 749 268 786 l 268 118 q 277 63 268 82 q 309 36 286 43 q 378 29 332 29 l 489 29 q 601 77 556 29 q 660 207 646 125 q 668 210 660 211 q 676 204 676 208 q 667 117 671 168 q 664 21 664 65 q 642 0 664 0 m 564 324 q 534 411 564 385 q 435 438 504 438 l 226 438 l 226 467 l 439 467 q 534 490 506 467 q 563 564 563 513 q 571 567 563 567 q 579 564 579 567 q 578 499 579 522 q 578 451 578 476 q 579 389 578 419 q 581 324 581 358 q 572 321 581 321 q 564 324 564 321 m 543 943 q 399 1001 472 975 q 233 1050 326 1028 q 235 1058 225 1051 q 265 1074 246 1065 q 301 1088 283 1082 q 322 1089 318 1093 q 431 1024 376 1057 q 549 957 485 990 q 551 948 554 956 q 543 943 549 940 z "},"Ẻ":{"ha":746,"x_min":57,"x_max":676,"o":"m 642 0 l 60 0 q 57 8 57 0 q 60 17 57 17 q 136 24 111 17 q 170 51 161 31 q 179 113 179 72 l 179 756 q 170 816 179 796 q 136 844 161 836 q 60 851 111 851 q 57 860 57 851 q 60 868 57 868 l 618 868 q 631 856 631 868 l 633 685 q 626 680 633 681 q 618 683 618 679 q 573 799 614 758 q 467 839 532 839 l 382 839 q 310 832 335 839 q 277 806 286 825 q 268 749 268 786 l 268 118 q 277 63 268 82 q 309 36 286 43 q 378 29 332 29 l 489 29 q 601 77 556 29 q 660 207 646 125 q 668 210 660 211 q 676 204 676 208 q 667 117 671 168 q 664 21 664 65 q 642 0 664 0 m 564 324 q 534 411 564 385 q 435 438 504 438 l 226 438 l 226 467 l 439 467 q 534 490 506 467 q 563 564 563 513 q 571 567 563 567 q 579 564 579 567 q 578 499 579 522 q 578 451 578 476 q 579 389 578 419 q 581 324 581 358 q 572 321 581 321 q 564 324 564 321 m 408 904 q 402 902 410 903 q 393 904 394 901 q 392 958 385 933 q 411 1001 399 982 q 435 1041 424 1021 q 446 1083 446 1061 q 428 1125 446 1111 q 388 1139 410 1139 q 367 1136 376 1139 q 349 1129 357 1133 q 339 1133 344 1128 q 339 1140 333 1139 q 385 1163 361 1156 q 429 1169 408 1169 q 494 1148 472 1169 q 517 1097 517 1126 q 499 1044 517 1068 q 458 999 481 1021 q 419 955 435 978 q 408 904 403 932 z "},"Ȇ":{"ha":746,"x_min":57,"x_max":676,"o":"m 642 0 l 60 0 q 57 8 57 0 q 60 17 57 17 q 136 24 111 17 q 170 51 161 31 q 179 113 179 72 l 179 756 q 170 816 179 796 q 136 844 161 836 q 60 851 111 851 q 57 860 57 851 q 60 868 57 868 l 618 868 q 631 856 631 868 l 633 685 q 626 680 633 681 q 618 683 618 679 q 573 799 614 758 q 467 839 532 839 l 382 839 q 310 832 335 839 q 277 806 286 825 q 268 749 268 786 l 268 118 q 277 63 268 82 q 309 36 286 43 q 378 29 332 29 l 489 29 q 601 77 556 29 q 660 207 646 125 q 668 210 660 211 q 676 204 676 208 q 667 117 671 168 q 664 21 664 65 q 642 0 664 0 m 564 324 q 534 411 564 385 q 435 438 504 438 l 226 438 l 226 467 l 439 467 q 534 490 506 467 q 563 564 563 513 q 571 567 563 567 q 579 564 579 567 q 578 499 579 522 q 578 451 578 476 q 579 389 578 419 q 581 324 581 358 q 572 321 581 321 q 564 324 564 321 m 278 947 q 269 944 276 943 q 263 949 261 944 q 406 1097 283 1097 q 547 949 525 1097 q 540 944 547 944 q 532 947 532 943 q 485 1011 522 983 q 406 1039 449 1039 q 323 1011 360 1039 q 278 947 286 983 z "},"Ē":{"ha":746,"x_min":57,"x_max":676,"o":"m 642 0 l 60 0 q 57 8 57 0 q 60 17 57 17 q 136 24 111 17 q 170 51 161 31 q 179 113 179 72 l 179 756 q 170 816 179 796 q 136 844 161 836 q 60 851 111 851 q 57 860 57 851 q 60 868 57 868 l 618 868 q 631 856 631 868 l 633 685 q 626 680 633 681 q 618 683 618 679 q 573 799 614 758 q 467 839 532 839 l 382 839 q 310 832 335 839 q 277 806 286 825 q 268 749 268 786 l 268 118 q 277 63 268 82 q 309 36 286 43 q 378 29 332 29 l 489 29 q 601 77 556 29 q 660 207 646 125 q 668 210 660 211 q 676 204 676 208 q 667 117 671 168 q 664 21 664 65 q 642 0 664 0 m 564 324 q 534 411 564 385 q 435 438 504 438 l 226 438 l 226 467 l 439 467 q 534 490 506 467 q 563 564 563 513 q 571 567 563 567 q 579 564 579 567 q 578 499 579 522 q 578 451 578 476 q 579 389 578 419 q 581 324 581 358 q 572 321 581 321 q 564 324 564 321 m 231 1003 q 223 1013 225 1003 q 223 1032 221 1022 q 231 1042 225 1042 l 579 1042 q 587 1032 585 1042 q 587 1013 589 1022 q 579 1003 585 1003 l 231 1003 z "},"Ę":{"ha":746,"x_min":57,"x_max":704,"o":"m 642 0 l 60 0 q 57 8 57 0 q 60 17 57 17 q 136 24 111 17 q 170 51 161 31 q 179 113 179 72 l 179 756 q 170 816 179 796 q 136 844 161 836 q 60 851 111 851 q 57 860 57 851 q 60 868 57 868 l 618 868 q 631 856 631 868 l 633 685 q 626 680 633 681 q 618 683 618 679 q 573 799 614 758 q 467 839 532 839 l 382 839 q 310 832 335 839 q 277 806 286 825 q 268 749 268 786 l 268 118 q 277 63 268 82 q 309 36 286 43 q 378 29 332 29 l 489 29 q 601 77 556 29 q 660 207 646 125 q 668 210 660 211 q 676 204 676 208 q 667 117 671 168 q 664 21 664 65 q 642 0 664 0 m 564 324 q 534 411 564 385 q 435 438 504 438 l 226 438 l 226 467 l 439 467 q 534 490 506 467 q 563 564 563 513 q 571 567 563 567 q 579 564 579 567 q 578 499 579 522 q 578 451 578 476 q 579 389 578 419 q 581 324 581 358 q 572 321 581 321 q 564 324 564 321 m 561 8 l 578 1 q 495 -97 521 -49 q 469 -199 469 -144 q 502 -302 469 -264 q 599 -340 535 -340 q 652 -331 631 -340 q 690 -308 674 -321 q 699 -311 694 -306 q 700 -319 704 -317 q 624 -367 661 -353 q 550 -382 588 -382 q 433 -344 474 -382 q 393 -244 393 -306 q 435 -119 393 -182 q 561 8 478 -57 z "},"Ẽ":{"ha":746,"x_min":57,"x_max":676,"o":"m 642 0 l 60 0 q 57 8 57 0 q 60 17 57 17 q 136 24 111 17 q 170 51 161 31 q 179 113 179 72 l 179 756 q 170 816 179 796 q 136 844 161 836 q 60 851 111 851 q 57 860 57 851 q 60 868 57 868 l 618 868 q 631 856 631 868 l 633 685 q 626 680 633 681 q 618 683 618 679 q 573 799 614 758 q 467 839 532 839 l 382 839 q 310 832 335 839 q 277 806 286 825 q 268 749 268 786 l 268 118 q 277 63 268 82 q 309 36 286 43 q 378 29 332 29 l 489 29 q 601 77 556 29 q 660 207 646 125 q 668 210 660 211 q 676 204 676 208 q 667 117 671 168 q 664 21 664 65 q 642 0 664 0 m 564 324 q 534 411 564 385 q 435 438 504 438 l 226 438 l 226 467 l 439 467 q 534 490 506 467 q 563 564 563 513 q 571 567 563 567 q 579 564 579 567 q 578 499 579 522 q 578 451 578 476 q 579 389 578 419 q 581 324 581 358 q 572 321 581 321 q 564 324 564 321 m 511 1047 q 553 1058 539 1047 q 581 1085 568 1069 q 588 1083 583 1088 q 590 1075 593 1078 q 529 1006 553 1022 q 481 989 506 989 q 422 998 450 989 q 363 1015 393 1007 q 299 1024 333 1024 q 258 1012 271 1024 q 231 986 244 1000 q 223 988 228 985 q 221 996 218 992 q 250 1031 232 1011 q 291 1066 268 1051 q 338 1081 314 1081 q 389 1072 361 1081 q 447 1056 417 1064 q 511 1047 478 1047 z "},"F":{"ha":707,"x_min":56,"x_max":633,"o":"m 58 0 q 56 8 56 0 q 58 17 56 17 q 135 24 110 17 q 170 51 161 31 q 179 113 179 72 l 179 756 q 170 816 179 796 q 136 844 161 836 q 60 851 111 851 q 57 860 57 851 q 60 868 57 868 l 618 868 q 631 856 631 868 l 633 685 q 626 680 633 681 q 618 683 618 679 q 573 799 614 758 q 467 839 532 839 l 382 839 q 290 822 313 839 q 268 754 268 806 l 268 118 q 280 55 268 76 q 328 25 292 33 q 438 17 365 17 q 442 8 442 17 q 438 0 442 0 q 340 1 392 0 q 224 3 288 3 q 135 1 178 3 q 58 0 92 0 m 547 307 q 515 394 547 368 q 406 421 482 421 l 226 421 l 226 450 l 410 450 q 515 474 483 450 q 546 547 546 497 q 554 550 546 550 q 563 547 563 550 q 562 483 563 506 q 561 435 561 460 q 563 372 561 403 q 564 307 564 342 q 556 304 564 304 q 547 307 547 304 z "},"Ǧ":{"ha":992,"x_min":68,"x_max":940,"o":"m 563 -17 q 296 42 407 -17 q 126 201 185 101 q 68 424 68 301 q 108 610 68 526 q 219 756 147 694 q 387 850 290 817 q 597 883 483 883 q 725 871 663 883 q 828 833 788 858 q 842 819 840 825 q 844 801 843 814 l 861 646 q 853 641 861 643 q 844 644 846 639 q 735 799 814 746 q 538 853 656 853 q 266 751 361 853 q 171 474 171 649 q 226 231 171 336 q 378 67 282 126 q 596 7 474 7 q 704 19 664 7 q 763 68 744 32 q 781 175 781 104 q 772 273 781 242 q 731 314 764 304 q 624 324 697 324 q 615 335 615 324 q 622 346 615 346 q 782 340 710 340 q 933 343 854 339 q 940 333 940 343 q 933 324 940 324 q 887 315 901 325 q 868 269 872 304 q 864 161 864 235 q 867 93 864 115 q 872 60 869 71 q 874 39 874 50 q 871 28 874 31 q 858 22 868 25 q 710 -6 788 6 q 563 -17 633 -17 m 531 954 l 388 1089 q 390 1096 385 1092 q 396 1099 394 1100 l 547 1018 l 697 1099 q 704 1097 700 1101 q 704 1089 708 1092 l 563 954 q 547 949 557 949 q 531 954 538 949 z "},"Ḡ":{"ha":992,"x_min":68,"x_max":940,"o":"m 563 -17 q 296 42 407 -17 q 126 201 185 101 q 68 424 68 301 q 108 610 68 526 q 219 756 147 694 q 387 850 290 817 q 597 883 483 883 q 725 871 663 883 q 828 833 788 858 q 842 819 840 825 q 844 801 843 814 l 861 646 q 853 641 861 643 q 844 644 846 639 q 735 799 814 746 q 538 853 656 853 q 266 751 361 853 q 171 474 171 649 q 226 231 171 336 q 378 67 282 126 q 596 7 474 7 q 704 19 664 7 q 763 68 744 32 q 781 175 781 104 q 772 273 781 242 q 731 314 764 304 q 624 324 697 324 q 615 335 615 324 q 622 346 615 346 q 782 340 710 340 q 933 343 854 339 q 940 333 940 343 q 933 324 940 324 q 887 315 901 325 q 868 269 872 304 q 864 161 864 235 q 867 93 864 115 q 872 60 869 71 q 874 39 874 50 q 871 28 874 31 q 858 22 868 25 q 710 -6 788 6 q 563 -17 633 -17 m 372 1003 q 365 1013 367 1003 q 365 1032 363 1022 q 372 1042 367 1042 l 721 1042 q 729 1032 728 1042 q 729 1013 731 1022 q 721 1003 728 1003 l 372 1003 z "},"H":{"ha":1054,"x_min":46,"x_max":1007,"o":"m 793 753 q 785 814 793 793 q 751 843 776 835 q 671 851 725 851 q 667 860 667 851 q 671 868 667 868 q 746 866 704 868 q 839 864 788 864 q 928 866 885 864 q 1003 868 971 868 q 1007 860 1007 868 q 1003 851 1007 851 q 925 844 951 851 q 890 816 899 836 q 882 756 882 796 l 882 113 q 890 51 882 72 q 925 24 899 31 q 1003 17 951 17 q 1007 8 1007 17 q 1003 0 1007 0 q 928 1 971 0 q 839 3 885 3 q 746 1 788 3 q 671 0 704 0 q 667 8 667 0 q 671 17 667 17 q 751 24 725 17 q 785 51 776 31 q 793 113 793 72 l 793 753 m 211 438 l 211 467 l 832 467 l 832 438 l 211 438 m 171 113 l 171 756 q 162 816 171 796 q 127 844 153 836 q 50 851 101 851 q 47 860 47 851 q 50 868 47 868 q 126 866 83 868 q 214 864 168 864 q 307 866 265 864 q 382 868 349 868 q 385 860 385 868 q 382 851 385 851 q 304 843 331 851 q 269 814 278 835 q 260 753 260 793 l 260 113 q 268 51 260 72 q 303 24 276 31 q 382 17 331 17 q 385 8 385 17 q 382 0 385 0 q 306 1 347 0 q 214 3 265 3 q 125 1 168 3 q 49 0 82 0 q 46 8 46 0 q 49 17 46 17 q 126 24 100 17 q 162 51 153 31 q 171 113 171 72 z "},"Ħ":{"ha":1054,"x_min":46,"x_max":1007,"o":"m 793 753 q 785 814 793 793 q 751 843 776 835 q 671 851 725 851 q 667 860 667 851 q 671 868 667 868 q 746 866 704 868 q 839 864 788 864 q 928 866 885 864 q 1003 868 971 868 q 1007 860 1007 868 q 1003 851 1007 851 q 925 844 951 851 q 890 816 899 836 q 882 756 882 796 l 882 113 q 890 51 882 72 q 925 24 899 31 q 1003 17 951 17 q 1007 8 1007 17 q 1003 0 1007 0 q 928 1 971 0 q 839 3 885 3 q 746 1 788 3 q 671 0 704 0 q 667 8 667 0 q 671 17 667 17 q 751 24 725 17 q 785 51 776 31 q 793 113 793 72 l 793 753 m 211 567 l 211 596 l 832 596 l 832 567 l 211 567 m 171 113 l 171 756 q 162 816 171 796 q 127 844 153 836 q 50 851 101 851 q 47 860 47 851 q 50 868 47 868 q 126 866 83 868 q 214 864 168 864 q 307 866 265 864 q 382 868 349 868 q 385 860 385 868 q 382 851 385 851 q 304 843 331 851 q 269 814 278 835 q 260 753 260 793 l 260 113 q 268 51 260 72 q 303 24 276 31 q 382 17 331 17 q 385 8 385 17 q 382 0 385 0 q 306 1 347 0 q 214 3 265 3 q 125 1 168 3 q 49 0 82 0 q 46 8 46 0 q 49 17 46 17 q 126 24 100 17 q 162 51 153 31 q 171 113 171 72 m 211 307 l 211 336 l 832 336 l 832 307 l 211 307 z "},"Ḫ":{"ha":1054,"x_min":46,"x_max":1007,"o":"m 793 753 q 785 814 793 793 q 751 843 776 835 q 671 851 725 851 q 667 860 667 851 q 671 868 667 868 q 746 866 704 868 q 839 864 788 864 q 928 866 885 864 q 1003 868 971 868 q 1007 860 1007 868 q 1003 851 1007 851 q 925 844 951 851 q 890 816 899 836 q 882 756 882 796 l 882 113 q 890 51 882 72 q 925 24 899 31 q 1003 17 951 17 q 1007 8 1007 17 q 1003 0 1007 0 q 928 1 971 0 q 839 3 885 3 q 746 1 788 3 q 671 0 704 0 q 667 8 667 0 q 671 17 667 17 q 751 24 725 17 q 785 51 776 31 q 793 113 793 72 l 793 753 m 211 438 l 211 467 l 832 467 l 832 438 l 211 438 m 171 113 l 171 756 q 162 816 171 796 q 127 844 153 836 q 50 851 101 851 q 47 860 47 851 q 50 868 47 868 q 126 866 83 868 q 214 864 168 864 q 307 866 265 864 q 382 868 349 868 q 385 860 385 868 q 382 851 385 851 q 304 843 331 851 q 269 814 278 835 q 260 753 260 793 l 260 113 q 268 51 260 72 q 303 24 276 31 q 382 17 331 17 q 385 8 385 17 q 382 0 385 0 q 306 1 347 0 q 214 3 265 3 q 125 1 168 3 q 49 0 82 0 q 46 8 46 0 q 49 17 46 17 q 126 24 100 17 q 162 51 153 31 q 171 113 171 72 m 385 -110 q 392 -103 385 -104 q 400 -106 400 -103 q 436 -207 400 -165 q 528 -249 472 -249 q 617 -207 581 -249 q 654 -106 654 -165 q 662 -103 654 -103 q 669 -110 669 -104 q 633 -265 669 -212 q 528 -318 597 -318 q 422 -265 458 -318 q 385 -110 385 -212 z "},"Ĥ":{"ha":1054,"x_min":46,"x_max":1007,"o":"m 793 753 q 785 814 793 793 q 751 843 776 835 q 671 851 725 851 q 667 860 667 851 q 671 868 667 868 q 746 866 704 868 q 839 864 788 864 q 928 866 885 864 q 1003 868 971 868 q 1007 860 1007 868 q 1003 851 1007 851 q 925 844 951 851 q 890 816 899 836 q 882 756 882 796 l 882 113 q 890 51 882 72 q 925 24 899 31 q 1003 17 951 17 q 1007 8 1007 17 q 1003 0 1007 0 q 928 1 971 0 q 839 3 885 3 q 746 1 788 3 q 671 0 704 0 q 667 8 667 0 q 671 17 667 17 q 751 24 725 17 q 785 51 776 31 q 793 113 793 72 l 793 753 m 211 438 l 211 467 l 832 467 l 832 438 l 211 438 m 171 113 l 171 756 q 162 816 171 796 q 127 844 153 836 q 50 851 101 851 q 47 860 47 851 q 50 868 47 868 q 126 866 83 868 q 214 864 168 864 q 307 866 265 864 q 382 868 349 868 q 385 860 385 868 q 382 851 385 851 q 304 843 331 851 q 269 814 278 835 q 260 753 260 793 l 260 113 q 268 51 260 72 q 303 24 276 31 q 382 17 331 17 q 385 8 385 17 q 382 0 385 0 q 306 1 347 0 q 214 3 265 3 q 125 1 168 3 q 49 0 82 0 q 46 8 46 0 q 49 17 46 17 q 126 24 100 17 q 162 51 153 31 q 171 113 171 72 m 369 961 l 513 1097 q 529 1104 519 1104 q 544 1097 539 1104 l 686 961 q 686 955 690 960 q 679 951 682 950 l 529 1032 l 378 951 q 372 955 376 950 q 369 961 367 960 z "},"Ḥ":{"ha":1054,"x_min":46,"x_max":1007,"o":"m 793 753 q 785 814 793 793 q 751 843 776 835 q 671 851 725 851 q 667 860 667 851 q 671 868 667 868 q 746 866 704 868 q 839 864 788 864 q 928 866 885 864 q 1003 868 971 868 q 1007 860 1007 868 q 1003 851 1007 851 q 925 844 951 851 q 890 816 899 836 q 882 756 882 796 l 882 113 q 890 51 882 72 q 925 24 899 31 q 1003 17 951 17 q 1007 8 1007 17 q 1003 0 1007 0 q 928 1 971 0 q 839 3 885 3 q 746 1 788 3 q 671 0 704 0 q 667 8 667 0 q 671 17 667 17 q 751 24 725 17 q 785 51 776 31 q 793 113 793 72 l 793 753 m 211 438 l 211 467 l 832 467 l 832 438 l 211 438 m 171 113 l 171 756 q 162 816 171 796 q 127 844 153 836 q 50 851 101 851 q 47 860 47 851 q 50 868 47 868 q 126 866 83 868 q 214 864 168 864 q 307 866 265 864 q 382 868 349 868 q 385 860 385 868 q 382 851 385 851 q 304 843 331 851 q 269 814 278 835 q 260 753 260 793 l 260 113 q 268 51 260 72 q 303 24 276 31 q 382 17 331 17 q 385 8 385 17 q 382 0 385 0 q 306 1 347 0 q 214 3 265 3 q 125 1 168 3 q 49 0 82 0 q 46 8 46 0 q 49 17 46 17 q 126 24 100 17 q 162 51 153 31 q 171 113 171 72 m 529 -264 q 483 -249 500 -264 q 467 -206 467 -233 q 483 -162 467 -178 q 529 -147 500 -147 q 572 -162 557 -147 q 588 -206 588 -178 q 529 -264 588 -264 z "},"I":{"ha":461,"x_min":61,"x_max":399,"o":"m 276 113 q 285 51 276 72 q 319 24 293 31 q 394 17 344 17 q 399 8 399 17 q 394 0 399 0 q 320 1 361 0 q 229 3 279 3 q 141 1 183 3 q 65 0 99 0 q 61 8 61 0 q 65 17 61 17 q 142 24 115 17 q 176 51 168 31 q 185 113 185 72 l 185 756 q 176 816 185 796 q 142 844 168 836 q 65 851 115 851 q 61 860 61 851 q 65 868 61 868 q 141 866 99 868 q 229 864 183 864 q 321 866 279 864 q 394 868 363 868 q 399 860 399 868 q 394 851 399 851 q 319 843 344 851 q 285 814 293 835 q 276 753 276 793 l 276 113 z "},"Ĳ":{"ha":958,"x_min":56,"x_max":915,"o":"m 269 486 q 277 425 269 446 q 311 397 285 404 q 389 390 338 390 q 392 382 392 390 q 389 374 392 374 q 313 375 354 374 q 222 376 272 376 q 134 375 176 376 q 58 374 92 374 q 56 382 56 374 q 58 390 56 390 q 135 397 108 390 q 169 425 161 404 q 178 486 178 446 l 178 756 q 169 816 178 796 q 135 844 161 836 q 58 851 108 851 q 56 860 56 851 q 58 868 56 868 q 134 866 92 868 q 222 864 176 864 q 315 866 272 864 q 389 868 357 868 q 392 860 392 868 q 389 851 392 851 q 312 843 338 851 q 278 814 286 835 q 269 753 269 793 l 269 486 m 911 868 q 915 860 915 868 q 911 851 915 851 q 827 832 846 851 q 808 753 808 813 l 808 358 q 766 152 808 236 q 649 25 724 68 q 476 -18 574 -18 q 315 14 386 -18 q 205 94 244 46 q 165 188 165 142 q 178 224 165 210 q 213 238 190 238 q 254 221 242 238 q 272 177 267 204 q 286 120 278 150 q 313 64 294 90 q 367 20 331 38 q 469 3 404 3 q 660 78 601 3 q 718 278 718 153 l 718 756 q 708 816 718 796 q 669 844 699 836 q 582 851 639 851 q 578 860 578 851 q 582 868 578 868 q 667 866 621 868 q 761 864 713 864 q 844 866 807 864 q 911 868 882 868 z "},"Í":{"ha":461,"x_min":61,"x_max":413,"o":"m 276 113 q 285 51 276 72 q 319 24 293 31 q 394 17 344 17 q 399 8 399 17 q 394 0 399 0 q 320 1 361 0 q 229 3 279 3 q 141 1 183 3 q 65 0 99 0 q 61 8 61 0 q 65 17 61 17 q 142 24 115 17 q 176 51 168 31 q 185 113 185 72 l 185 756 q 176 816 185 796 q 142 844 168 836 q 65 851 115 851 q 61 860 61 851 q 65 868 61 868 q 141 866 99 868 q 229 864 183 864 q 321 866 279 864 q 394 868 363 868 q 399 860 399 868 q 394 851 399 851 q 319 843 344 851 q 285 814 293 835 q 276 753 276 793 l 276 113 m 96 943 q 88 948 90 940 q 89 957 85 956 q 208 1024 154 990 q 315 1089 261 1058 q 338 1088 319 1093 q 374 1074 356 1082 q 403 1058 393 1065 q 404 1050 413 1051 q 239 1001 311 1028 q 96 943 167 975 z "},"Ĭ":{"ha":461,"x_min":61,"x_max":399,"o":"m 276 113 q 285 51 276 72 q 319 24 293 31 q 394 17 344 17 q 399 8 399 17 q 394 0 399 0 q 320 1 361 0 q 229 3 279 3 q 141 1 183 3 q 65 0 99 0 q 61 8 61 0 q 65 17 61 17 q 142 24 115 17 q 176 51 168 31 q 185 113 185 72 l 185 756 q 176 816 185 796 q 142 844 168 836 q 65 851 115 851 q 61 860 61 851 q 65 868 61 868 q 141 866 99 868 q 229 864 183 864 q 321 866 279 864 q 394 868 363 868 q 399 860 399 868 q 394 851 399 851 q 319 843 344 851 q 285 814 293 835 q 276 753 276 793 l 276 113 m 231 958 q 134 997 171 958 q 88 1107 97 1036 q 94 1113 86 1113 q 103 1111 101 1114 q 149 1046 113 1074 q 231 1018 185 1018 q 312 1046 275 1018 q 357 1111 349 1074 q 366 1113 358 1114 q 372 1107 374 1113 q 326 997 363 1036 q 231 958 290 958 z "},"Ǐ":{"ha":461,"x_min":61,"x_max":399,"o":"m 276 113 q 285 51 276 72 q 319 24 293 31 q 394 17 344 17 q 399 8 399 17 q 394 0 399 0 q 320 1 361 0 q 229 3 279 3 q 141 1 183 3 q 65 0 99 0 q 61 8 61 0 q 65 17 61 17 q 142 24 115 17 q 176 51 168 31 q 185 113 185 72 l 185 756 q 176 816 185 796 q 142 844 168 836 q 65 851 115 851 q 61 860 61 851 q 65 868 61 868 q 141 866 99 868 q 229 864 183 864 q 321 866 279 864 q 394 868 363 868 q 399 860 399 868 q 394 851 399 851 q 319 843 344 851 q 285 814 293 835 q 276 753 276 793 l 276 113 m 214 954 l 71 1089 q 73 1096 68 1092 q 79 1099 78 1100 l 231 1018 l 381 1099 q 388 1097 383 1101 q 388 1089 392 1092 l 246 954 q 231 949 240 949 q 214 954 221 949 z "},"Î":{"ha":461,"x_min":61,"x_max":399,"o":"m 276 113 q 285 51 276 72 q 319 24 293 31 q 394 17 344 17 q 399 8 399 17 q 394 0 399 0 q 320 1 361 0 q 229 3 279 3 q 141 1 183 3 q 65 0 99 0 q 61 8 61 0 q 65 17 61 17 q 142 24 115 17 q 176 51 168 31 q 185 113 185 72 l 185 756 q 176 816 185 796 q 142 844 168 836 q 65 851 115 851 q 61 860 61 851 q 65 868 61 868 q 141 866 99 868 q 229 864 183 864 q 321 866 279 864 q 394 868 363 868 q 399 860 399 868 q 394 851 399 851 q 319 843 344 851 q 285 814 293 835 q 276 753 276 793 l 276 113 m 72 961 l 215 1097 q 232 1104 222 1104 q 247 1097 242 1104 l 389 961 q 389 955 393 960 q 382 951 385 950 l 232 1032 l 81 951 q 74 955 79 950 q 72 961 69 960 z "},"Ȉ":{"ha":461,"x_min":-7,"x_max":399,"o":"m 276 113 q 285 51 276 72 q 319 24 293 31 q 394 17 344 17 q 399 8 399 17 q 394 0 399 0 q 320 1 361 0 q 229 3 279 3 q 141 1 183 3 q 65 0 99 0 q 61 8 61 0 q 65 17 61 17 q 142 24 115 17 q 176 51 168 31 q 185 113 185 72 l 185 756 q 176 816 185 796 q 142 844 168 836 q 65 851 115 851 q 61 860 61 851 q 65 868 61 868 q 141 866 99 868 q 229 864 183 864 q 321 866 279 864 q 394 868 363 868 q 399 860 399 868 q 394 851 399 851 q 319 843 344 851 q 285 814 293 835 q 276 753 276 793 l 276 113 m 372 942 q 383 944 379 938 q 383 954 388 950 q 318 1021 349 989 q 258 1086 288 1053 q 238 1088 256 1090 q 202 1078 221 1085 q 172 1064 183 1071 q 169 1053 161 1057 q 277 1001 231 1028 q 372 942 324 975 m 200 942 q 210 944 207 938 q 211 954 214 950 q 145 1020 175 988 q 86 1086 115 1053 q 67 1088 83 1090 q 33 1078 51 1085 q 3 1064 14 1071 q 0 1053 -7 1057 q 106 1002 60 1029 q 200 942 151 975 z "},"Ï":{"ha":461,"x_min":61,"x_max":399,"o":"m 276 113 q 285 51 276 72 q 319 24 293 31 q 394 17 344 17 q 399 8 399 17 q 394 0 399 0 q 320 1 361 0 q 229 3 279 3 q 141 1 183 3 q 65 0 99 0 q 61 8 61 0 q 65 17 61 17 q 142 24 115 17 q 176 51 168 31 q 185 113 185 72 l 185 756 q 176 816 185 796 q 142 844 168 836 q 65 851 115 851 q 61 860 61 851 q 65 868 61 868 q 141 866 99 868 q 229 864 183 864 q 321 866 279 864 q 394 868 363 868 q 399 860 399 868 q 394 851 399 851 q 319 843 344 851 q 285 814 293 835 q 276 753 276 793 l 276 113 m 132 996 q 89 1010 106 996 q 72 1053 72 1025 q 89 1094 72 1079 q 132 1110 106 1110 q 175 1094 160 1110 q 190 1053 190 1079 q 175 1010 190 1025 q 132 996 160 996 m 331 996 q 288 1010 303 996 q 272 1053 272 1025 q 288 1094 272 1079 q 331 1110 303 1110 q 388 1053 388 1110 q 331 996 388 996 z "},"İ":{"ha":461,"x_min":61,"x_max":399,"o":"m 276 113 q 285 51 276 72 q 319 24 293 31 q 394 17 344 17 q 399 8 399 17 q 394 0 399 0 q 320 1 361 0 q 229 3 279 3 q 141 1 183 3 q 65 0 99 0 q 61 8 61 0 q 65 17 61 17 q 142 24 115 17 q 176 51 168 31 q 185 113 185 72 l 185 756 q 176 816 185 796 q 142 844 168 836 q 65 851 115 851 q 61 860 61 851 q 65 868 61 868 q 141 866 99 868 q 229 864 183 864 q 321 866 279 864 q 394 868 363 868 q 399 860 399 868 q 394 851 399 851 q 319 843 344 851 q 285 814 293 835 q 276 753 276 793 l 276 113 m 231 990 q 186 1006 203 990 q 169 1050 169 1022 q 186 1092 169 1076 q 231 1108 203 1108 q 274 1092 258 1108 q 289 1050 289 1076 q 274 1006 289 1022 q 231 990 258 990 z "},"Ị":{"ha":461,"x_min":61,"x_max":399,"o":"m 276 113 q 285 51 276 72 q 319 24 293 31 q 394 17 344 17 q 399 8 399 17 q 394 0 399 0 q 320 1 361 0 q 229 3 279 3 q 141 1 183 3 q 65 0 99 0 q 61 8 61 0 q 65 17 61 17 q 142 24 115 17 q 176 51 168 31 q 185 113 185 72 l 185 756 q 176 816 185 796 q 142 844 168 836 q 65 851 115 851 q 61 860 61 851 q 65 868 61 868 q 141 866 99 868 q 229 864 183 864 q 321 866 279 864 q 394 868 363 868 q 399 860 399 868 q 394 851 399 851 q 319 843 344 851 q 285 814 293 835 q 276 753 276 793 l 276 113 m 232 -264 q 187 -249 203 -264 q 171 -206 171 -233 q 187 -162 171 -178 q 232 -147 203 -147 q 275 -162 260 -147 q 290 -206 290 -178 q 232 -264 290 -264 z "},"Ì":{"ha":461,"x_min":51,"x_max":399,"o":"m 276 113 q 285 51 276 72 q 319 24 293 31 q 394 17 344 17 q 399 8 399 17 q 394 0 399 0 q 320 1 361 0 q 229 3 279 3 q 141 1 183 3 q 65 0 99 0 q 61 8 61 0 q 65 17 61 17 q 142 24 115 17 q 176 51 168 31 q 185 113 185 72 l 185 756 q 176 816 185 796 q 142 844 168 836 q 65 851 115 851 q 61 860 61 851 q 65 868 61 868 q 141 866 99 868 q 229 864 183 864 q 321 866 279 864 q 394 868 363 868 q 399 860 399 868 q 394 851 399 851 q 319 843 344 851 q 285 814 293 835 q 276 753 276 793 l 276 113 m 368 943 q 224 1001 297 975 q 60 1050 151 1028 q 62 1058 51 1051 q 91 1074 72 1065 q 127 1088 110 1082 q 149 1089 144 1093 q 256 1024 203 1057 q 374 957 310 990 q 377 948 379 956 q 368 943 375 940 z "},"Ỉ":{"ha":461,"x_min":61,"x_max":399,"o":"m 276 113 q 285 51 276 72 q 319 24 293 31 q 394 17 344 17 q 399 8 399 17 q 394 0 399 0 q 320 1 361 0 q 229 3 279 3 q 141 1 183 3 q 65 0 99 0 q 61 8 61 0 q 65 17 61 17 q 142 24 115 17 q 176 51 168 31 q 185 113 185 72 l 185 756 q 176 816 185 796 q 142 844 168 836 q 65 851 115 851 q 61 860 61 851 q 65 868 61 868 q 141 866 99 868 q 229 864 183 864 q 321 866 279 864 q 394 868 363 868 q 399 860 399 868 q 394 851 399 851 q 319 843 344 851 q 285 814 293 835 q 276 753 276 793 l 276 113 m 235 904 q 228 902 236 903 q 219 904 221 901 q 217 958 210 933 q 237 1001 224 982 q 261 1041 250 1021 q 272 1083 272 1061 q 254 1125 272 1111 q 213 1139 236 1139 q 192 1136 203 1139 q 174 1129 182 1133 q 165 1133 171 1128 q 164 1140 158 1139 q 210 1163 186 1156 q 254 1169 235 1169 q 321 1148 299 1169 q 343 1097 343 1126 q 324 1044 343 1068 q 283 999 306 1021 q 244 955 260 978 q 235 904 229 932 z "},"Ȋ":{"ha":461,"x_min":61,"x_max":399,"o":"m 276 113 q 285 51 276 72 q 319 24 293 31 q 394 17 344 17 q 399 8 399 17 q 394 0 399 0 q 320 1 361 0 q 229 3 279 3 q 141 1 183 3 q 65 0 99 0 q 61 8 61 0 q 65 17 61 17 q 142 24 115 17 q 176 51 168 31 q 185 113 185 72 l 185 756 q 176 816 185 796 q 142 844 168 836 q 65 851 115 851 q 61 860 61 851 q 65 868 61 868 q 141 866 99 868 q 229 864 183 864 q 321 866 279 864 q 394 868 363 868 q 399 860 399 868 q 394 851 399 851 q 319 843 344 851 q 285 814 293 835 q 276 753 276 793 l 276 113 m 103 947 q 94 944 101 943 q 88 949 86 944 q 231 1097 108 1097 q 372 949 351 1097 q 366 944 374 944 q 357 947 358 943 q 312 1011 349 983 q 231 1039 275 1039 q 149 1011 185 1039 q 103 947 113 983 z "},"Ī":{"ha":461,"x_min":46,"x_max":414,"o":"m 276 113 q 285 51 276 72 q 319 24 293 31 q 394 17 344 17 q 399 8 399 17 q 394 0 399 0 q 320 1 361 0 q 229 3 279 3 q 141 1 183 3 q 65 0 99 0 q 61 8 61 0 q 65 17 61 17 q 142 24 115 17 q 176 51 168 31 q 185 113 185 72 l 185 756 q 176 816 185 796 q 142 844 168 836 q 65 851 115 851 q 61 860 61 851 q 65 868 61 868 q 141 866 99 868 q 229 864 183 864 q 321 866 279 864 q 394 868 363 868 q 399 860 399 868 q 394 851 399 851 q 319 843 344 851 q 285 814 293 835 q 276 753 276 793 l 276 113 m 56 1003 q 49 1013 51 1003 q 49 1032 46 1022 q 56 1042 51 1042 l 404 1042 q 413 1032 411 1042 q 413 1013 414 1022 q 404 1003 411 1003 l 56 1003 z "},"Į":{"ha":461,"x_min":61,"x_max":399,"o":"m 276 113 q 285 51 276 72 q 319 24 293 31 q 394 17 344 17 q 399 8 399 17 q 394 0 399 0 q 320 1 361 0 q 229 3 279 3 q 141 1 183 3 q 65 0 99 0 q 61 8 61 0 q 65 17 61 17 q 142 24 115 17 q 176 51 168 31 q 185 113 185 72 l 185 756 q 176 816 185 796 q 142 844 168 836 q 65 851 115 851 q 61 860 61 851 q 65 868 61 868 q 141 866 99 868 q 229 864 183 864 q 321 866 279 864 q 394 868 363 868 q 399 860 399 868 q 394 851 399 851 q 319 843 344 851 q 285 814 293 835 q 276 753 276 793 l 276 113 m 242 -382 q 136 -344 174 -382 q 99 -246 99 -307 q 133 -115 99 -182 q 235 17 168 -49 l 249 10 q 192 -89 210 -39 q 175 -192 175 -139 q 189 -269 175 -236 q 229 -320 203 -301 q 292 -339 256 -339 q 335 -330 319 -339 q 364 -308 350 -321 q 373 -311 368 -306 q 374 -319 378 -317 q 310 -367 340 -353 q 242 -382 279 -382 z "},"Ɨ":{"ha":461,"x_min":58,"x_max":400,"o":"m 65 421 q 60 428 61 421 q 60 442 58 435 q 65 449 61 449 l 394 449 q 399 442 399 449 q 399 428 400 435 q 394 421 399 421 l 65 421 m 276 113 q 285 51 276 72 q 319 24 293 31 q 394 17 344 17 q 399 8 399 17 q 394 0 399 0 q 320 1 361 0 q 229 3 279 3 q 141 1 183 3 q 65 0 99 0 q 61 8 61 0 q 65 17 61 17 q 142 24 115 17 q 176 51 168 31 q 185 113 185 72 l 185 756 q 176 816 185 796 q 142 844 168 836 q 65 851 115 851 q 61 860 61 851 q 65 868 61 868 q 141 866 99 868 q 229 864 183 864 q 321 866 279 864 q 394 868 363 868 q 399 860 399 868 q 394 851 399 851 q 319 843 344 851 q 285 814 293 835 q 276 753 276 793 l 276 113 z "},"Ĩ":{"ha":461,"x_min":43,"x_max":418,"o":"m 276 113 q 285 51 276 72 q 319 24 293 31 q 394 17 344 17 q 399 8 399 17 q 394 0 399 0 q 320 1 361 0 q 229 3 279 3 q 141 1 183 3 q 65 0 99 0 q 61 8 61 0 q 65 17 61 17 q 142 24 115 17 q 176 51 168 31 q 185 113 185 72 l 185 756 q 176 816 185 796 q 142 844 168 836 q 65 851 115 851 q 61 860 61 851 q 65 868 61 868 q 141 866 99 868 q 229 864 183 864 q 321 866 279 864 q 394 868 363 868 q 399 860 399 868 q 394 851 399 851 q 319 843 344 851 q 285 814 293 835 q 276 753 276 793 l 276 113 m 338 1047 q 378 1058 364 1047 q 406 1085 393 1069 q 413 1083 408 1088 q 415 1075 418 1078 q 354 1006 378 1022 q 306 989 331 989 q 247 998 275 989 q 189 1015 218 1007 q 125 1024 160 1024 q 83 1012 96 1024 q 56 986 71 1000 q 48 988 53 985 q 46 996 43 992 q 76 1031 57 1011 q 117 1066 94 1051 q 164 1081 139 1081 q 215 1072 188 1081 q 273 1056 242 1064 q 338 1047 304 1047 z "},"J":{"ha":447,"x_min":-64,"x_max":392,"o":"m 389 868 q 392 860 392 868 q 389 851 392 851 q 323 843 344 851 q 294 814 301 835 q 286 753 286 793 l 286 -39 q 224 -256 286 -172 q 38 -339 161 -339 q -37 -322 -10 -339 q -64 -279 -64 -306 q -51 -246 -64 -258 q -17 -233 -39 -233 q 22 -244 8 -233 q 44 -272 35 -256 q 64 -299 53 -287 q 96 -311 75 -311 q 169 -255 144 -311 q 194 -68 194 -199 l 194 756 q 185 816 194 796 q 146 844 175 836 q 58 851 117 851 q 56 860 56 851 q 58 868 56 868 q 144 866 99 868 q 239 864 190 864 q 322 866 285 864 q 389 868 358 868 z "},"Ĵ":{"ha":447,"x_min":-64,"x_max":392,"o":"m 389 868 q 392 860 392 868 q 389 851 392 851 q 323 843 344 851 q 294 814 301 835 q 286 753 286 793 l 286 -39 q 224 -256 286 -172 q 38 -339 161 -339 q -37 -322 -10 -339 q -64 -279 -64 -306 q -51 -246 -64 -258 q -17 -233 -39 -233 q 22 -244 8 -233 q 44 -272 35 -256 q 64 -299 53 -287 q 96 -311 75 -311 q 169 -255 144 -311 q 194 -68 194 -199 l 194 756 q 185 816 194 796 q 146 844 175 836 q 58 851 117 851 q 56 860 56 851 q 58 868 56 868 q 144 866 99 868 q 239 864 190 864 q 322 866 285 864 q 389 868 358 868 m 68 974 l 211 1110 q 228 1117 218 1117 q 243 1110 238 1117 l 385 974 q 385 967 389 972 q 378 964 381 963 l 228 1044 l 76 964 q 70 967 75 963 q 68 974 65 972 z "},"K":{"ha":903,"x_min":46,"x_max":894,"o":"m 168 113 l 168 756 q 160 816 168 796 q 126 844 151 836 q 50 851 100 851 q 47 860 47 851 q 50 868 47 868 q 125 866 83 868 q 213 864 167 864 q 303 866 263 864 q 376 868 344 868 q 381 860 381 868 q 376 851 381 851 q 301 843 326 851 q 267 814 276 835 q 258 753 258 793 l 258 113 q 267 51 258 72 q 301 24 275 31 q 376 17 326 17 q 381 8 381 17 q 376 0 381 0 q 303 1 343 0 q 213 3 263 3 q 124 1 167 3 q 49 0 82 0 q 46 8 46 0 q 49 17 46 17 q 125 24 99 17 q 160 51 151 31 q 168 113 168 72 m 517 201 l 296 479 l 365 535 l 568 276 q 674 144 631 194 q 747 67 718 94 q 799 30 776 40 q 843 18 822 19 q 890 17 864 17 q 894 8 894 17 q 890 0 894 0 q 790 0 828 0 q 735 0 753 0 q 715 -1 722 0 q 699 -1 707 -1 q 667 6 679 -1 q 640 33 656 13 q 597 94 625 54 q 517 201 568 135 m 197 399 l 556 756 q 599 830 607 808 q 519 851 592 851 q 517 860 517 851 q 519 868 517 868 q 589 866 554 868 q 681 864 624 864 q 767 866 735 864 q 828 868 799 868 q 832 860 832 868 q 828 851 832 851 q 713 828 778 851 q 588 747 647 806 l 232 399 l 197 399 z "},"Ḱ":{"ha":903,"x_min":46,"x_max":894,"o":"m 168 113 l 168 756 q 160 816 168 796 q 126 844 151 836 q 50 851 100 851 q 47 860 47 851 q 50 868 47 868 q 125 866 83 868 q 213 864 167 864 q 303 866 263 864 q 376 868 344 868 q 381 860 381 868 q 376 851 381 851 q 301 843 326 851 q 267 814 276 835 q 258 753 258 793 l 258 113 q 267 51 258 72 q 301 24 275 31 q 376 17 326 17 q 381 8 381 17 q 376 0 381 0 q 303 1 343 0 q 213 3 263 3 q 124 1 167 3 q 49 0 82 0 q 46 8 46 0 q 49 17 46 17 q 125 24 99 17 q 160 51 151 31 q 168 113 168 72 m 517 201 l 296 479 l 365 535 l 568 276 q 674 144 631 194 q 747 67 718 94 q 799 30 776 40 q 843 18 822 19 q 890 17 864 17 q 894 8 894 17 q 890 0 894 0 q 790 0 828 0 q 735 0 753 0 q 715 -1 722 0 q 699 -1 707 -1 q 667 6 679 -1 q 640 33 656 13 q 597 94 625 54 q 517 201 568 135 m 197 399 l 556 756 q 599 830 607 808 q 519 851 592 851 q 517 860 517 851 q 519 868 517 868 q 589 866 554 868 q 681 864 624 864 q 767 866 735 864 q 828 868 799 868 q 832 860 832 868 q 828 851 832 851 q 713 828 778 851 q 588 747 647 806 l 232 399 l 197 399 m 318 943 q 310 948 313 940 q 311 957 307 956 q 430 1024 376 990 q 538 1089 483 1058 q 560 1088 542 1093 q 597 1074 578 1082 q 625 1058 615 1065 q 626 1050 635 1051 q 461 1001 533 1028 q 318 943 389 975 z "},"Ǩ":{"ha":903,"x_min":46,"x_max":894,"o":"m 168 113 l 168 756 q 160 816 168 796 q 126 844 151 836 q 50 851 100 851 q 47 860 47 851 q 50 868 47 868 q 125 866 83 868 q 213 864 167 864 q 303 866 263 864 q 376 868 344 868 q 381 860 381 868 q 376 851 381 851 q 301 843 326 851 q 267 814 276 835 q 258 753 258 793 l 258 113 q 267 51 258 72 q 301 24 275 31 q 376 17 326 17 q 381 8 381 17 q 376 0 381 0 q 303 1 343 0 q 213 3 263 3 q 124 1 167 3 q 49 0 82 0 q 46 8 46 0 q 49 17 46 17 q 125 24 99 17 q 160 51 151 31 q 168 113 168 72 m 517 201 l 296 479 l 365 535 l 568 276 q 674 144 631 194 q 747 67 718 94 q 799 30 776 40 q 843 18 822 19 q 890 17 864 17 q 894 8 894 17 q 890 0 894 0 q 790 0 828 0 q 735 0 753 0 q 715 -1 722 0 q 699 -1 707 -1 q 667 6 679 -1 q 640 33 656 13 q 597 94 625 54 q 517 201 568 135 m 197 399 l 556 756 q 599 830 607 808 q 519 851 592 851 q 517 860 517 851 q 519 868 517 868 q 589 866 554 868 q 681 864 624 864 q 767 866 735 864 q 828 868 799 868 q 832 860 832 868 q 828 851 832 851 q 713 828 778 851 q 588 747 647 806 l 232 399 l 197 399 m 436 954 l 293 1089 q 295 1096 290 1092 q 301 1099 300 1100 l 453 1018 l 603 1099 q 610 1097 606 1101 q 610 1089 614 1092 l 468 954 q 453 949 463 949 q 436 954 443 949 z "},"Ķ":{"ha":903,"x_min":46,"x_max":894,"o":"m 168 113 l 168 756 q 160 816 168 796 q 126 844 151 836 q 50 851 100 851 q 47 860 47 851 q 50 868 47 868 q 125 866 83 868 q 213 864 167 864 q 303 866 263 864 q 376 868 344 868 q 381 860 381 868 q 376 851 381 851 q 301 843 326 851 q 267 814 276 835 q 258 753 258 793 l 258 113 q 267 51 258 72 q 301 24 275 31 q 376 17 326 17 q 381 8 381 17 q 376 0 381 0 q 303 1 343 0 q 213 3 263 3 q 124 1 167 3 q 49 0 82 0 q 46 8 46 0 q 49 17 46 17 q 125 24 99 17 q 160 51 151 31 q 168 113 168 72 m 517 201 l 296 479 l 365 535 l 568 276 q 674 144 631 194 q 747 67 718 94 q 799 30 776 40 q 843 18 822 19 q 890 17 864 17 q 894 8 894 17 q 890 0 894 0 q 790 0 828 0 q 735 0 753 0 q 715 -1 722 0 q 699 -1 707 -1 q 667 6 679 -1 q 640 33 656 13 q 597 94 625 54 q 517 201 568 135 m 197 399 l 556 756 q 599 830 607 808 q 519 851 592 851 q 517 860 517 851 q 519 868 517 868 q 589 866 554 868 q 681 864 624 864 q 767 866 735 864 q 828 868 799 868 q 832 860 832 868 q 828 851 832 851 q 713 828 778 851 q 588 747 647 806 l 232 399 l 197 399 m 463 -382 q 452 -380 457 -385 q 453 -371 447 -375 q 499 -312 483 -343 q 514 -247 514 -281 q 505 -205 514 -217 q 483 -187 496 -193 l 508 -179 q 499 -215 513 -203 q 463 -228 485 -228 q 423 -212 438 -228 q 408 -174 408 -197 q 426 -131 408 -143 q 469 -118 444 -118 q 528 -144 508 -118 q 547 -219 547 -171 q 524 -308 547 -269 q 463 -382 501 -347 z "},"L":{"ha":740,"x_min":46,"x_max":724,"o":"m 257 754 l 257 118 q 265 61 257 81 q 298 35 274 42 q 368 29 322 29 l 519 29 q 647 80 600 29 q 708 213 694 131 q 716 216 708 217 q 724 211 724 215 q 715 120 719 174 q 711 21 711 67 q 690 0 711 0 l 49 0 q 46 8 46 0 q 49 17 46 17 q 124 24 99 17 q 158 51 150 31 q 167 113 167 72 l 167 756 q 158 816 167 796 q 124 844 150 836 q 49 851 99 851 q 46 860 46 851 q 49 868 46 868 q 124 866 82 868 q 211 864 165 864 q 301 866 260 864 q 375 868 343 868 q 379 860 379 868 q 375 851 379 851 q 299 844 325 851 q 265 815 274 836 q 257 754 257 794 z "},"Ĺ":{"ha":740,"x_min":46,"x_max":724,"o":"m 257 754 l 257 118 q 265 61 257 81 q 298 35 274 42 q 368 29 322 29 l 519 29 q 647 80 600 29 q 708 213 694 131 q 716 216 708 217 q 724 211 724 215 q 715 120 719 174 q 711 21 711 67 q 690 0 711 0 l 49 0 q 46 8 46 0 q 49 17 46 17 q 124 24 99 17 q 158 51 150 31 q 167 113 167 72 l 167 756 q 158 816 167 796 q 124 844 150 836 q 49 851 99 851 q 46 860 46 851 q 49 868 46 868 q 124 866 82 868 q 211 864 165 864 q 301 866 260 864 q 375 868 343 868 q 379 860 379 868 q 375 851 379 851 q 299 844 325 851 q 265 815 274 836 q 257 754 257 794 m 85 943 q 76 948 79 940 q 78 957 74 956 q 197 1024 143 990 q 304 1089 250 1058 q 326 1088 308 1093 q 363 1074 344 1082 q 392 1058 382 1065 q 393 1050 401 1051 q 228 1001 300 1028 q 85 943 156 975 z "},"Ľ":{"ha":740,"x_min":46,"x_max":724,"o":"m 257 754 l 257 118 q 265 61 257 81 q 298 35 274 42 q 368 29 322 29 l 519 29 q 647 80 600 29 q 708 213 694 131 q 716 216 708 217 q 724 211 724 215 q 715 120 719 174 q 711 21 711 67 q 690 0 711 0 l 49 0 q 46 8 46 0 q 49 17 46 17 q 124 24 99 17 q 158 51 150 31 q 167 113 167 72 l 167 756 q 158 816 167 796 q 124 844 150 836 q 49 851 99 851 q 46 860 46 851 q 49 868 46 868 q 124 866 82 868 q 211 864 165 864 q 301 866 260 864 q 375 868 343 868 q 379 860 379 868 q 375 851 379 851 q 299 844 325 851 q 265 815 274 836 q 257 754 257 794 m 490 868 q 501 870 490 874 q 526 858 513 867 q 551 841 540 850 q 561 826 561 832 l 517 489 q 509 487 517 486 q 501 490 501 488 l 490 868 z "},"Ļ":{"ha":740,"x_min":46,"x_max":724,"o":"m 257 754 l 257 118 q 265 61 257 81 q 298 35 274 42 q 368 29 322 29 l 519 29 q 647 80 600 29 q 708 213 694 131 q 716 216 708 217 q 724 211 724 215 q 715 120 719 174 q 711 21 711 67 q 690 0 711 0 l 49 0 q 46 8 46 0 q 49 17 46 17 q 124 24 99 17 q 158 51 150 31 q 167 113 167 72 l 167 756 q 158 816 167 796 q 124 844 150 836 q 49 851 99 851 q 46 860 46 851 q 49 868 46 868 q 124 866 82 868 q 211 864 165 864 q 301 866 260 864 q 375 868 343 868 q 379 860 379 868 q 375 851 379 851 q 299 844 325 851 q 265 815 274 836 q 257 754 257 794 m 397 -382 q 387 -380 392 -385 q 386 -371 382 -375 q 432 -312 417 -343 q 447 -247 447 -281 q 439 -205 447 -217 q 417 -187 431 -193 l 443 -179 q 432 -215 446 -203 q 396 -228 418 -228 q 358 -212 372 -228 q 343 -174 343 -197 q 360 -131 343 -143 q 403 -118 378 -118 q 462 -144 442 -118 q 482 -219 482 -171 q 459 -308 482 -269 q 397 -382 436 -347 z "},"Ŀ":{"ha":740,"x_min":46,"x_max":724,"o":"m 257 754 l 257 118 q 265 61 257 81 q 298 35 274 42 q 368 29 322 29 l 519 29 q 647 80 600 29 q 708 213 694 131 q 716 216 708 217 q 724 211 724 215 q 715 120 719 174 q 711 21 711 67 q 690 0 711 0 l 49 0 q 46 8 46 0 q 49 17 46 17 q 124 24 99 17 q 158 51 150 31 q 167 113 167 72 l 167 756 q 158 816 167 796 q 124 844 150 836 q 49 851 99 851 q 46 860 46 851 q 49 868 46 868 q 124 866 82 868 q 211 864 165 864 q 301 866 260 864 q 375 868 343 868 q 379 860 379 868 q 375 851 379 851 q 299 844 325 851 q 265 815 274 836 q 257 754 257 794 m 596 386 q 551 403 568 386 q 535 447 535 419 q 551 489 535 474 q 596 504 568 504 q 640 489 625 504 q 656 447 656 474 q 640 403 656 419 q 596 386 625 386 z "},"Ḷ":{"ha":740,"x_min":46,"x_max":724,"o":"m 257 754 l 257 118 q 265 61 257 81 q 298 35 274 42 q 368 29 322 29 l 519 29 q 647 80 600 29 q 708 213 694 131 q 716 216 708 217 q 724 211 724 215 q 715 120 719 174 q 711 21 711 67 q 690 0 711 0 l 49 0 q 46 8 46 0 q 49 17 46 17 q 124 24 99 17 q 158 51 150 31 q 167 113 167 72 l 167 756 q 158 816 167 796 q 124 844 150 836 q 49 851 99 851 q 46 860 46 851 q 49 868 46 868 q 124 866 82 868 q 211 864 165 864 q 301 866 260 864 q 375 868 343 868 q 379 860 379 868 q 375 851 379 851 q 299 844 325 851 q 265 815 274 836 q 257 754 257 794 m 414 -264 q 369 -249 385 -264 q 353 -206 353 -233 q 369 -162 353 -178 q 414 -147 385 -147 q 457 -162 442 -147 q 472 -206 472 -178 q 414 -264 472 -264 z "},"Ḹ":{"ha":740,"x_min":35,"x_max":724,"o":"m 257 754 l 257 118 q 265 61 257 81 q 298 35 274 42 q 368 29 322 29 l 519 29 q 647 80 600 29 q 708 213 694 131 q 716 216 708 217 q 724 211 724 215 q 715 120 719 174 q 711 21 711 67 q 690 0 711 0 l 49 0 q 46 8 46 0 q 49 17 46 17 q 124 24 99 17 q 158 51 150 31 q 167 113 167 72 l 167 756 q 158 816 167 796 q 124 844 150 836 q 49 851 99 851 q 46 860 46 851 q 49 868 46 868 q 124 866 82 868 q 211 864 165 864 q 301 866 260 864 q 375 868 343 868 q 379 860 379 868 q 375 851 379 851 q 299 844 325 851 q 265 815 274 836 q 257 754 257 794 m 414 -264 q 369 -249 385 -264 q 353 -206 353 -233 q 369 -162 353 -178 q 414 -147 385 -147 q 457 -162 442 -147 q 472 -206 472 -178 q 414 -264 472 -264 m 44 1003 q 37 1013 39 1003 q 37 1032 35 1022 q 44 1042 39 1042 l 393 1042 q 401 1032 400 1042 q 401 1013 403 1022 q 393 1003 400 1003 l 44 1003 z "},"Ḻ":{"ha":740,"x_min":46,"x_max":724,"o":"m 257 754 l 257 118 q 265 61 257 81 q 298 35 274 42 q 368 29 322 29 l 519 29 q 647 80 600 29 q 708 213 694 131 q 716 216 708 217 q 724 211 724 215 q 715 120 719 174 q 711 21 711 67 q 690 0 711 0 l 49 0 q 46 8 46 0 q 49 17 46 17 q 124 24 99 17 q 158 51 150 31 q 167 113 167 72 l 167 756 q 158 816 167 796 q 124 844 150 836 q 49 851 99 851 q 46 860 46 851 q 49 868 46 868 q 124 866 82 868 q 211 864 165 864 q 301 866 260 864 q 375 868 343 868 q 379 860 379 868 q 375 851 379 851 q 299 844 325 851 q 265 815 274 836 q 257 754 257 794 m 238 -157 q 230 -147 232 -157 q 230 -128 228 -137 q 238 -118 232 -118 l 586 -118 q 594 -128 592 -118 q 594 -147 596 -137 q 586 -157 592 -157 l 238 -157 z "},"Ł":{"ha":726,"x_min":46,"x_max":724,"o":"m 96 326 q 88 331 93 325 q 81 343 83 336 q 81 351 78 350 l 404 538 q 413 534 408 540 q 420 521 418 528 q 418 513 422 514 l 96 326 m 257 754 l 257 118 q 265 61 257 81 q 298 35 274 42 q 368 29 322 29 l 519 29 q 647 80 600 29 q 708 213 694 131 q 716 216 708 217 q 724 211 724 215 q 715 120 719 174 q 711 21 711 67 q 690 0 711 0 l 49 0 q 46 8 46 0 q 49 17 46 17 q 124 24 99 17 q 158 51 150 31 q 167 113 167 72 l 167 756 q 158 816 167 796 q 124 844 150 836 q 49 851 99 851 q 46 860 46 851 q 49 868 46 868 q 124 866 82 868 q 211 864 165 864 q 301 866 260 864 q 375 868 343 868 q 379 860 379 868 q 375 851 379 851 q 299 844 325 851 q 265 815 274 836 q 257 754 257 794 z "},"M":{"ha":1160,"x_min":51,"x_max":1132,"o":"m 165 151 l 179 836 l 213 833 l 199 151 q 223 48 197 79 q 317 17 249 17 q 319 8 319 17 q 317 0 319 0 q 253 1 286 0 q 182 3 221 3 q 114 1 146 3 q 54 0 82 0 q 51 8 51 0 q 54 17 51 17 q 138 48 113 17 q 165 151 164 79 m 1128 17 q 1132 8 1132 17 q 1128 0 1132 0 q 1052 1 1094 0 q 964 3 1010 3 q 881 1 919 3 q 813 0 843 0 q 810 8 810 0 q 813 17 810 17 q 901 35 882 17 q 918 113 921 53 l 892 783 l 938 847 l 576 10 q 565 4 575 4 q 553 10 556 4 l 204 753 q 64 851 157 851 q 61 860 61 851 q 64 868 61 868 q 112 867 86 868 q 154 865 138 865 q 195 867 176 865 q 224 868 214 868 q 254 856 243 868 q 288 796 265 843 l 604 129 l 561 57 l 900 833 q 918 859 907 850 q 942 868 929 868 q 964 867 950 868 q 997 865 978 865 q 1058 867 1035 865 q 1108 868 1082 868 q 1111 860 1111 868 q 1108 851 1111 851 q 1010 832 1042 851 q 981 756 978 813 l 1008 113 q 1018 51 1010 72 q 1052 24 1026 31 q 1128 17 1078 17 z "},"Ḿ":{"ha":1160,"x_min":51,"x_max":1132,"o":"m 165 151 l 179 836 l 213 833 l 199 151 q 223 48 197 79 q 317 17 249 17 q 319 8 319 17 q 317 0 319 0 q 253 1 286 0 q 182 3 221 3 q 114 1 146 3 q 54 0 82 0 q 51 8 51 0 q 54 17 51 17 q 138 48 113 17 q 165 151 164 79 m 1128 17 q 1132 8 1132 17 q 1128 0 1132 0 q 1052 1 1094 0 q 964 3 1010 3 q 881 1 919 3 q 813 0 843 0 q 810 8 810 0 q 813 17 810 17 q 901 35 882 17 q 918 113 921 53 l 892 783 l 938 847 l 576 10 q 565 4 575 4 q 553 10 556 4 l 204 753 q 64 851 157 851 q 61 860 61 851 q 64 868 61 868 q 112 867 86 868 q 154 865 138 865 q 195 867 176 865 q 224 868 214 868 q 254 856 243 868 q 288 796 265 843 l 604 129 l 561 57 l 900 833 q 918 859 907 850 q 942 868 929 868 q 964 867 950 868 q 997 865 978 865 q 1058 867 1035 865 q 1108 868 1082 868 q 1111 860 1111 868 q 1108 851 1111 851 q 1010 832 1042 851 q 981 756 978 813 l 1008 113 q 1018 51 1010 72 q 1052 24 1026 31 q 1128 17 1078 17 m 446 942 q 438 948 440 940 q 439 957 435 956 q 558 1024 504 990 q 665 1088 611 1057 q 687 1087 669 1092 q 723 1074 704 1082 q 752 1058 742 1065 q 754 1050 763 1051 q 589 1000 661 1026 q 446 942 517 974 z "},"Ṁ":{"ha":1160,"x_min":51,"x_max":1132,"o":"m 165 151 l 179 836 l 213 833 l 199 151 q 223 48 197 79 q 317 17 249 17 q 319 8 319 17 q 317 0 319 0 q 253 1 286 0 q 182 3 221 3 q 114 1 146 3 q 54 0 82 0 q 51 8 51 0 q 54 17 51 17 q 138 48 113 17 q 165 151 164 79 m 1128 17 q 1132 8 1132 17 q 1128 0 1132 0 q 1052 1 1094 0 q 964 3 1010 3 q 881 1 919 3 q 813 0 843 0 q 810 8 810 0 q 813 17 810 17 q 901 35 882 17 q 918 113 921 53 l 892 783 l 938 847 l 576 10 q 565 4 575 4 q 553 10 556 4 l 204 753 q 64 851 157 851 q 61 860 61 851 q 64 868 61 868 q 112 867 86 868 q 154 865 138 865 q 195 867 176 865 q 224 868 214 868 q 254 856 243 868 q 288 796 265 843 l 604 129 l 561 57 l 900 833 q 918 859 907 850 q 942 868 929 868 q 964 867 950 868 q 997 865 978 865 q 1058 867 1035 865 q 1108 868 1082 868 q 1111 860 1111 868 q 1108 851 1111 851 q 1010 832 1042 851 q 981 756 978 813 l 1008 113 q 1018 51 1010 72 q 1052 24 1026 31 q 1128 17 1078 17 m 581 990 q 535 1006 551 990 q 519 1050 519 1022 q 535 1092 519 1076 q 581 1108 551 1108 q 624 1092 608 1108 q 639 1050 639 1076 q 624 1006 639 1022 q 581 990 608 990 z "},"Ṃ":{"ha":1160,"x_min":51,"x_max":1132,"o":"m 165 151 l 179 836 l 213 833 l 199 151 q 223 48 197 79 q 317 17 249 17 q 319 8 319 17 q 317 0 319 0 q 253 1 286 0 q 182 3 221 3 q 114 1 146 3 q 54 0 82 0 q 51 8 51 0 q 54 17 51 17 q 138 48 113 17 q 165 151 164 79 m 1128 17 q 1132 8 1132 17 q 1128 0 1132 0 q 1052 1 1094 0 q 964 3 1010 3 q 881 1 919 3 q 813 0 843 0 q 810 8 810 0 q 813 17 810 17 q 901 35 882 17 q 918 113 921 53 l 892 783 l 938 847 l 576 10 q 565 4 575 4 q 553 10 556 4 l 204 753 q 64 851 157 851 q 61 860 61 851 q 64 868 61 868 q 112 867 86 868 q 154 865 138 865 q 195 867 176 865 q 224 868 214 868 q 254 856 243 868 q 288 796 265 843 l 604 129 l 561 57 l 900 833 q 918 859 907 850 q 942 868 929 868 q 964 867 950 868 q 997 865 978 865 q 1058 867 1035 865 q 1108 868 1082 868 q 1111 860 1111 868 q 1108 851 1111 851 q 1010 832 1042 851 q 981 756 978 813 l 1008 113 q 1018 51 1010 72 q 1052 24 1026 31 q 1128 17 1078 17 m 568 -264 q 524 -249 540 -264 q 507 -206 507 -233 q 524 -162 507 -178 q 568 -147 540 -147 q 611 -162 596 -147 q 626 -206 626 -178 q 568 -264 626 -264 z "},"N":{"ha":1010,"x_min":53,"x_max":982,"o":"m 167 151 l 167 836 l 199 833 l 199 151 q 224 48 199 79 q 307 17 249 17 q 311 8 311 17 q 307 0 311 0 q 250 1 279 0 q 185 3 221 3 q 118 1 150 3 q 57 0 86 0 q 54 8 54 0 q 57 17 54 17 q 142 48 118 17 q 167 151 167 79 m 867 -17 q 860 -20 867 -19 q 850 -19 853 -21 l 211 754 q 127 831 164 811 q 57 851 90 851 q 53 860 53 851 q 57 868 53 868 q 108 867 82 868 q 154 865 133 865 q 201 867 179 865 q 235 868 224 868 q 260 852 253 868 q 300 796 267 836 l 856 114 l 867 -17 m 867 715 l 867 -17 l 835 26 l 835 715 q 810 819 835 788 q 729 851 786 851 q 726 860 726 851 q 729 868 726 868 q 787 866 757 868 q 851 864 817 864 q 917 866 885 864 q 978 868 950 868 q 982 860 982 868 q 978 851 982 851 q 892 819 918 851 q 867 715 867 788 z "},"Ń":{"ha":1010,"x_min":53,"x_max":982,"o":"m 167 151 l 167 836 l 199 833 l 199 151 q 224 48 199 79 q 307 17 249 17 q 311 8 311 17 q 307 0 311 0 q 250 1 279 0 q 185 3 221 3 q 118 1 150 3 q 57 0 86 0 q 54 8 54 0 q 57 17 54 17 q 142 48 118 17 q 167 151 167 79 m 867 -17 q 860 -20 867 -19 q 850 -19 853 -21 l 211 754 q 127 831 164 811 q 57 851 90 851 q 53 860 53 851 q 57 868 53 868 q 108 867 82 868 q 154 865 133 865 q 201 867 179 865 q 235 868 224 868 q 260 852 253 868 q 300 796 267 836 l 856 114 l 867 -17 m 867 715 l 867 -17 l 835 26 l 835 715 q 810 819 835 788 q 729 851 786 851 q 726 860 726 851 q 729 868 726 868 q 787 866 757 868 q 851 864 817 864 q 917 866 885 864 q 978 868 950 868 q 982 860 982 868 q 978 851 982 851 q 892 819 918 851 q 867 715 867 788 m 388 943 q 379 948 382 940 q 381 957 376 956 q 499 1024 446 990 q 606 1089 553 1058 q 628 1088 611 1093 q 665 1074 646 1082 q 694 1058 683 1065 q 696 1050 704 1051 q 531 1001 603 1028 q 388 943 458 975 z "},"Ň":{"ha":1010,"x_min":53,"x_max":982,"o":"m 167 151 l 167 836 l 199 833 l 199 151 q 224 48 199 79 q 307 17 249 17 q 311 8 311 17 q 307 0 311 0 q 250 1 279 0 q 185 3 221 3 q 118 1 150 3 q 57 0 86 0 q 54 8 54 0 q 57 17 54 17 q 142 48 118 17 q 167 151 167 79 m 867 -17 q 860 -20 867 -19 q 850 -19 853 -21 l 211 754 q 127 831 164 811 q 57 851 90 851 q 53 860 53 851 q 57 868 53 868 q 108 867 82 868 q 154 865 133 865 q 201 867 179 865 q 235 868 224 868 q 260 852 253 868 q 300 796 267 836 l 856 114 l 867 -17 m 867 715 l 867 -17 l 835 26 l 835 715 q 810 819 835 788 q 729 851 786 851 q 726 860 726 851 q 729 868 726 868 q 787 866 757 868 q 851 864 817 864 q 917 866 885 864 q 978 868 950 868 q 982 860 982 868 q 978 851 982 851 q 892 819 918 851 q 867 715 867 788 m 506 954 l 363 1089 q 365 1096 360 1092 q 371 1099 369 1100 l 522 1018 l 672 1099 q 678 1097 675 1101 q 679 1089 682 1092 l 538 954 q 522 949 532 949 q 506 954 513 949 z "},"Ṋ":{"ha":1010,"x_min":53,"x_max":982,"o":"m 167 151 l 167 836 l 199 833 l 199 151 q 224 48 199 79 q 307 17 249 17 q 311 8 311 17 q 307 0 311 0 q 250 1 279 0 q 185 3 221 3 q 118 1 150 3 q 57 0 86 0 q 54 8 54 0 q 57 17 54 17 q 142 48 118 17 q 167 151 167 79 m 867 -17 q 860 -20 867 -19 q 850 -19 853 -21 l 211 754 q 127 831 164 811 q 57 851 90 851 q 53 860 53 851 q 57 868 53 868 q 108 867 82 868 q 154 865 133 865 q 201 867 179 865 q 235 868 224 868 q 260 852 253 868 q 300 796 267 836 l 856 114 l 867 -17 m 867 715 l 867 -17 l 835 26 l 835 715 q 810 819 835 788 q 729 851 786 851 q 726 860 726 851 q 729 868 726 868 q 787 866 757 868 q 851 864 817 864 q 917 866 885 864 q 978 868 950 868 q 982 860 982 868 q 978 851 982 851 q 892 819 918 851 q 867 715 867 788 m 369 -256 q 363 -252 368 -257 q 361 -246 358 -247 l 504 -111 q 521 -104 511 -104 q 536 -111 531 -104 l 678 -246 q 678 -252 682 -247 q 671 -256 674 -257 l 521 -176 l 369 -256 z "},"Ņ":{"ha":1010,"x_min":53,"x_max":982,"o":"m 167 151 l 167 836 l 199 833 l 199 151 q 224 48 199 79 q 307 17 249 17 q 311 8 311 17 q 307 0 311 0 q 250 1 279 0 q 185 3 221 3 q 118 1 150 3 q 57 0 86 0 q 54 8 54 0 q 57 17 54 17 q 142 48 118 17 q 167 151 167 79 m 867 -17 q 860 -20 867 -19 q 850 -19 853 -21 l 211 754 q 127 831 164 811 q 57 851 90 851 q 53 860 53 851 q 57 868 53 868 q 108 867 82 868 q 154 865 133 865 q 201 867 179 865 q 235 868 224 868 q 260 852 253 868 q 300 796 267 836 l 856 114 l 867 -17 m 867 715 l 867 -17 l 835 26 l 835 715 q 810 819 835 788 q 729 851 786 851 q 726 860 726 851 q 729 868 726 868 q 787 866 757 868 q 851 864 817 864 q 917 866 885 864 q 978 868 950 868 q 982 860 982 868 q 978 851 982 851 q 892 819 918 851 q 867 715 867 788 m 504 -382 q 494 -380 499 -385 q 493 -371 489 -375 q 539 -312 524 -343 q 554 -247 554 -281 q 546 -205 554 -217 q 525 -187 538 -193 l 550 -179 q 540 -215 553 -203 q 504 -228 526 -228 q 465 -212 479 -228 q 450 -174 450 -197 q 468 -131 450 -143 q 510 -118 486 -118 q 569 -144 549 -118 q 589 -219 589 -171 q 566 -308 589 -269 q 504 -382 543 -347 z "},"Ṅ":{"ha":1010,"x_min":53,"x_max":982,"o":"m 167 151 l 167 836 l 199 833 l 199 151 q 224 48 199 79 q 307 17 249 17 q 311 8 311 17 q 307 0 311 0 q 250 1 279 0 q 185 3 221 3 q 118 1 150 3 q 57 0 86 0 q 54 8 54 0 q 57 17 54 17 q 142 48 118 17 q 167 151 167 79 m 867 -17 q 860 -20 867 -19 q 850 -19 853 -21 l 211 754 q 127 831 164 811 q 57 851 90 851 q 53 860 53 851 q 57 868 53 868 q 108 867 82 868 q 154 865 133 865 q 201 867 179 865 q 235 868 224 868 q 260 852 253 868 q 300 796 267 836 l 856 114 l 867 -17 m 867 715 l 867 -17 l 835 26 l 835 715 q 810 819 835 788 q 729 851 786 851 q 726 860 726 851 q 729 868 726 868 q 787 866 757 868 q 851 864 817 864 q 917 866 885 864 q 978 868 950 868 q 982 860 982 868 q 978 851 982 851 q 892 819 918 851 q 867 715 867 788 m 522 990 q 477 1006 493 990 q 461 1050 461 1022 q 477 1092 461 1076 q 522 1108 493 1108 q 565 1092 550 1108 q 581 1050 581 1076 q 565 1006 581 1022 q 522 990 550 990 z "},"Ṇ":{"ha":1010,"x_min":53,"x_max":982,"o":"m 167 151 l 167 836 l 199 833 l 199 151 q 224 48 199 79 q 307 17 249 17 q 311 8 311 17 q 307 0 311 0 q 250 1 279 0 q 185 3 221 3 q 118 1 150 3 q 57 0 86 0 q 54 8 54 0 q 57 17 54 17 q 142 48 118 17 q 167 151 167 79 m 867 -17 q 860 -20 867 -19 q 850 -19 853 -21 l 211 754 q 127 831 164 811 q 57 851 90 851 q 53 860 53 851 q 57 868 53 868 q 108 867 82 868 q 154 865 133 865 q 201 867 179 865 q 235 868 224 868 q 260 852 253 868 q 300 796 267 836 l 856 114 l 867 -17 m 867 715 l 867 -17 l 835 26 l 835 715 q 810 819 835 788 q 729 851 786 851 q 726 860 726 851 q 729 868 726 868 q 787 866 757 868 q 851 864 817 864 q 917 866 885 864 q 978 868 950 868 q 982 860 982 868 q 978 851 982 851 q 892 819 918 851 q 867 715 867 788 m 521 -264 q 476 -249 492 -264 q 460 -206 460 -233 q 476 -162 460 -178 q 521 -147 492 -147 q 564 -162 549 -147 q 579 -206 579 -178 q 521 -264 579 -264 z "},"Ǹ":{"ha":1010,"x_min":53,"x_max":982,"o":"m 167 151 l 167 836 l 199 833 l 199 151 q 224 48 199 79 q 307 17 249 17 q 311 8 311 17 q 307 0 311 0 q 250 1 279 0 q 185 3 221 3 q 118 1 150 3 q 57 0 86 0 q 54 8 54 0 q 57 17 54 17 q 142 48 118 17 q 167 151 167 79 m 867 -17 q 860 -20 867 -19 q 850 -19 853 -21 l 211 754 q 127 831 164 811 q 57 851 90 851 q 53 860 53 851 q 57 868 53 868 q 108 867 82 868 q 154 865 133 865 q 201 867 179 865 q 235 868 224 868 q 260 852 253 868 q 300 796 267 836 l 856 114 l 867 -17 m 867 715 l 867 -17 l 835 26 l 835 715 q 810 819 835 788 q 729 851 786 851 q 726 860 726 851 q 729 868 726 868 q 787 866 757 868 q 851 864 817 864 q 917 866 885 864 q 978 868 950 868 q 982 860 982 868 q 978 851 982 851 q 892 819 918 851 q 867 715 867 788 m 660 943 q 516 1001 589 975 q 350 1050 443 1028 q 352 1058 342 1051 q 381 1074 363 1065 q 417 1088 400 1082 q 439 1089 435 1093 q 547 1024 493 1057 q 665 957 601 990 q 668 948 671 956 q 660 943 665 940 z "},"Ṉ":{"ha":1010,"x_min":53,"x_max":982,"o":"m 167 151 l 167 836 l 199 833 l 199 151 q 224 48 199 79 q 307 17 249 17 q 311 8 311 17 q 307 0 311 0 q 250 1 279 0 q 185 3 221 3 q 118 1 150 3 q 57 0 86 0 q 54 8 54 0 q 57 17 54 17 q 142 48 118 17 q 167 151 167 79 m 867 -17 q 860 -20 867 -19 q 850 -19 853 -21 l 211 754 q 127 831 164 811 q 57 851 90 851 q 53 860 53 851 q 57 868 53 868 q 108 867 82 868 q 154 865 133 865 q 201 867 179 865 q 235 868 224 868 q 260 852 253 868 q 300 796 267 836 l 856 114 l 867 -17 m 867 715 l 867 -17 l 835 26 l 835 715 q 810 819 835 788 q 729 851 786 851 q 726 860 726 851 q 729 868 726 868 q 787 866 757 868 q 851 864 817 864 q 917 866 885 864 q 978 868 950 868 q 982 860 982 868 q 978 851 982 851 q 892 819 918 851 q 867 715 867 788 m 344 -157 q 337 -147 339 -157 q 337 -128 335 -137 q 344 -118 339 -118 l 693 -118 q 701 -128 700 -118 q 701 -147 703 -137 q 693 -157 700 -157 l 344 -157 z "},"Ñ":{"ha":1010,"x_min":53,"x_max":982,"o":"m 167 151 l 167 836 l 199 833 l 199 151 q 224 48 199 79 q 307 17 249 17 q 311 8 311 17 q 307 0 311 0 q 250 1 279 0 q 185 3 221 3 q 118 1 150 3 q 57 0 86 0 q 54 8 54 0 q 57 17 54 17 q 142 48 118 17 q 167 151 167 79 m 867 -17 q 860 -20 867 -19 q 850 -19 853 -21 l 211 754 q 127 831 164 811 q 57 851 90 851 q 53 860 53 851 q 57 868 53 868 q 108 867 82 868 q 154 865 133 865 q 201 867 179 865 q 235 868 224 868 q 260 852 253 868 q 300 796 267 836 l 856 114 l 867 -17 m 867 715 l 867 -17 l 835 26 l 835 715 q 810 819 835 788 q 729 851 786 851 q 726 860 726 851 q 729 868 726 868 q 787 866 757 868 q 851 864 817 864 q 917 866 885 864 q 978 868 950 868 q 982 860 982 868 q 978 851 982 851 q 892 819 918 851 q 867 715 867 788 m 628 1047 q 670 1058 656 1047 q 697 1085 685 1069 q 705 1083 700 1088 q 707 1075 710 1078 q 646 1006 669 1022 q 597 989 622 989 q 538 998 567 989 q 480 1015 510 1007 q 415 1024 450 1024 q 374 1012 388 1024 q 347 986 361 1000 q 340 988 344 985 q 338 996 335 992 q 367 1031 349 1011 q 408 1066 385 1051 q 454 1081 431 1081 q 506 1072 478 1081 q 564 1056 533 1064 q 628 1047 594 1047 z "},"Ŋ":{"ha":1010,"x_min":53,"x_max":982,"o":"m 850 -19 l 211 754 q 127 831 164 811 q 57 851 90 851 q 53 860 53 851 q 57 868 53 868 q 108 867 82 868 q 154 865 133 865 q 201 867 179 865 q 235 868 224 868 q 260 852 253 868 q 300 796 267 836 l 856 114 l 867 -17 l 850 -19 m 690 -265 q 608 -242 639 -265 q 576 -186 576 -218 q 588 -150 576 -164 q 621 -136 600 -136 q 652 -147 642 -136 q 667 -172 663 -157 q 676 -201 671 -186 q 693 -227 682 -217 q 725 -237 704 -237 q 807 -177 778 -237 q 836 -19 836 -117 l 867 -17 q 822 -201 867 -136 q 690 -265 776 -265 m 57 0 q 54 8 54 0 q 57 17 54 17 q 143 48 118 17 q 168 151 168 79 l 168 836 l 199 833 l 199 151 q 224 48 199 79 q 307 17 249 17 q 311 8 311 17 q 307 0 311 0 q 250 1 279 0 q 185 3 221 3 q 118 1 150 3 q 57 0 86 0 m 836 -19 l 836 715 q 811 819 836 788 q 729 851 786 851 q 726 860 726 851 q 729 868 726 868 q 787 866 757 868 q 851 864 817 864 q 917 866 885 864 q 978 868 950 868 q 982 860 982 868 q 978 851 982 851 q 892 819 918 851 q 867 715 867 788 l 867 -17 l 836 -19 z "},"O":{"ha":1064,"x_min":68,"x_max":996,"o":"m 508 -17 q 327 19 408 -17 q 188 117 246 54 q 99 260 131 179 q 68 433 68 342 q 112 631 68 546 q 228 772 156 715 q 386 856 300 828 q 557 883 472 883 q 741 847 660 883 q 879 747 822 810 q 966 606 936 685 q 996 443 996 526 q 957 263 996 346 q 851 117 918 179 q 695 19 783 54 q 508 -17 607 -17 m 557 13 q 726 58 651 13 q 846 190 801 103 q 890 404 890 278 q 842 635 890 535 q 706 794 794 736 q 499 851 618 851 q 259 752 344 851 q 174 482 174 653 q 201 298 174 383 q 279 148 228 213 q 401 48 331 83 q 557 13 472 13 z "},"Ó":{"ha":1064,"x_min":68,"x_max":996,"o":"m 508 -17 q 327 19 408 -17 q 188 117 246 54 q 99 260 131 179 q 68 433 68 342 q 112 631 68 546 q 228 772 156 715 q 386 856 300 828 q 557 883 472 883 q 741 847 660 883 q 879 747 822 810 q 966 606 936 685 q 996 443 996 526 q 957 263 996 346 q 851 117 918 179 q 695 19 783 54 q 508 -17 607 -17 m 557 13 q 726 58 651 13 q 846 190 801 103 q 890 404 890 278 q 842 635 890 535 q 706 794 794 736 q 499 851 618 851 q 259 752 344 851 q 174 482 174 653 q 201 298 174 383 q 279 148 228 213 q 401 48 331 83 q 557 13 472 13 m 400 943 q 392 948 394 940 q 393 957 389 956 q 512 1024 458 990 q 619 1089 565 1058 q 641 1088 624 1093 q 677 1074 658 1082 q 706 1058 696 1065 q 708 1050 717 1051 q 543 1001 615 1028 q 400 943 471 975 z "},"Ŏ":{"ha":1064,"x_min":68,"x_max":996,"o":"m 508 -17 q 327 19 408 -17 q 188 117 246 54 q 99 260 131 179 q 68 433 68 342 q 112 631 68 546 q 228 772 156 715 q 386 856 300 828 q 557 883 472 883 q 741 847 660 883 q 879 747 822 810 q 966 606 936 685 q 996 443 996 526 q 957 263 996 346 q 851 117 918 179 q 695 19 783 54 q 508 -17 607 -17 m 557 13 q 726 58 651 13 q 846 190 801 103 q 890 404 890 278 q 842 635 890 535 q 706 794 794 736 q 499 851 618 851 q 259 752 344 851 q 174 482 174 653 q 201 298 174 383 q 279 148 228 213 q 401 48 331 83 q 557 13 472 13 m 535 958 q 438 997 475 958 q 392 1107 401 1036 q 398 1113 390 1113 q 407 1111 406 1114 q 452 1046 415 1074 q 535 1018 489 1018 q 615 1046 578 1018 q 661 1111 651 1074 q 670 1113 663 1114 q 676 1107 678 1113 q 631 997 667 1036 q 535 958 594 958 z "},"Ǒ":{"ha":1064,"x_min":68,"x_max":996,"o":"m 508 -17 q 327 19 408 -17 q 188 117 246 54 q 99 260 131 179 q 68 433 68 342 q 112 631 68 546 q 228 772 156 715 q 386 856 300 828 q 557 883 472 883 q 741 847 660 883 q 879 747 822 810 q 966 606 936 685 q 996 443 996 526 q 957 263 996 346 q 851 117 918 179 q 695 19 783 54 q 508 -17 607 -17 m 557 13 q 726 58 651 13 q 846 190 801 103 q 890 404 890 278 q 842 635 890 535 q 706 794 794 736 q 499 851 618 851 q 259 752 344 851 q 174 482 174 653 q 201 298 174 383 q 279 148 228 213 q 401 48 331 83 q 557 13 472 13 m 518 954 l 375 1089 q 377 1096 372 1092 q 383 1099 382 1100 l 535 1018 l 685 1099 q 692 1097 688 1101 q 692 1089 696 1092 l 550 954 q 535 949 544 949 q 518 954 525 949 z "},"Ô":{"ha":1064,"x_min":68,"x_max":996,"o":"m 508 -17 q 327 19 408 -17 q 188 117 246 54 q 99 260 131 179 q 68 433 68 342 q 112 631 68 546 q 228 772 156 715 q 386 856 300 828 q 557 883 472 883 q 741 847 660 883 q 879 747 822 810 q 966 606 936 685 q 996 443 996 526 q 957 263 996 346 q 851 117 918 179 q 695 19 783 54 q 508 -17 607 -17 m 557 13 q 726 58 651 13 q 846 190 801 103 q 890 404 890 278 q 842 635 890 535 q 706 794 794 736 q 499 851 618 851 q 259 752 344 851 q 174 482 174 653 q 201 298 174 383 q 279 148 228 213 q 401 48 331 83 q 557 13 472 13 m 376 961 l 519 1097 q 536 1104 526 1104 q 551 1097 546 1104 l 693 961 q 693 955 697 960 q 686 951 689 950 l 536 1032 l 385 951 q 378 955 383 950 q 376 961 374 960 z "},"Ố":{"ha":1064,"x_min":68,"x_max":996,"o":"m 508 -17 q 327 19 408 -17 q 188 117 246 54 q 99 260 131 179 q 68 433 68 342 q 112 631 68 546 q 228 772 156 715 q 386 856 300 828 q 557 883 472 883 q 741 847 660 883 q 879 747 822 810 q 966 606 936 685 q 996 443 996 526 q 957 263 996 346 q 851 117 918 179 q 695 19 783 54 q 508 -17 607 -17 m 557 13 q 726 58 651 13 q 846 190 801 103 q 890 404 890 278 q 842 635 890 535 q 706 794 794 736 q 499 851 618 851 q 259 752 344 851 q 174 482 174 653 q 201 298 174 383 q 279 148 228 213 q 401 48 331 83 q 557 13 472 13 m 375 954 l 518 1089 q 535 1096 525 1096 q 550 1089 544 1096 l 692 954 q 692 948 696 953 q 685 944 688 943 l 535 1025 l 383 944 q 377 948 382 943 q 375 954 372 953 m 626 1006 q 617 1008 621 1003 q 615 1017 614 1013 q 672 1084 646 1050 q 722 1151 699 1118 q 737 1153 725 1156 q 763 1144 749 1150 q 792 1132 778 1139 q 812 1119 806 1125 q 811 1113 818 1114 q 713 1064 756 1090 q 626 1006 669 1038 z "},"Ộ":{"ha":1064,"x_min":68,"x_max":996,"o":"m 508 -17 q 327 19 408 -17 q 188 117 246 54 q 99 260 131 179 q 68 433 68 342 q 112 631 68 546 q 228 772 156 715 q 386 856 300 828 q 557 883 472 883 q 741 847 660 883 q 879 747 822 810 q 966 606 936 685 q 996 443 996 526 q 957 263 996 346 q 851 117 918 179 q 695 19 783 54 q 508 -17 607 -17 m 557 13 q 726 58 651 13 q 846 190 801 103 q 890 404 890 278 q 842 635 890 535 q 706 794 794 736 q 499 851 618 851 q 259 752 344 851 q 174 482 174 653 q 201 298 174 383 q 279 148 228 213 q 401 48 331 83 q 557 13 472 13 m 550 -264 q 505 -249 521 -264 q 489 -206 489 -233 q 505 -162 489 -178 q 550 -147 521 -147 q 593 -162 578 -147 q 608 -206 608 -178 q 550 -264 608 -264 m 375 954 l 518 1089 q 535 1096 525 1096 q 550 1089 544 1096 l 692 954 q 692 948 696 953 q 685 944 688 943 l 535 1025 l 383 944 q 377 948 382 943 q 375 954 372 953 z "},"Ồ":{"ha":1064,"x_min":68,"x_max":996,"o":"m 508 -17 q 327 19 408 -17 q 188 117 246 54 q 99 260 131 179 q 68 433 68 342 q 112 631 68 546 q 228 772 156 715 q 386 856 300 828 q 557 883 472 883 q 741 847 660 883 q 879 747 822 810 q 966 606 936 685 q 996 443 996 526 q 957 263 996 346 q 851 117 918 179 q 695 19 783 54 q 508 -17 607 -17 m 557 13 q 726 58 651 13 q 846 190 801 103 q 890 404 890 278 q 842 635 890 535 q 706 794 794 736 q 499 851 618 851 q 259 752 344 851 q 174 482 174 653 q 201 298 174 383 q 279 148 228 213 q 401 48 331 83 q 557 13 472 13 m 375 954 l 518 1089 q 535 1096 525 1096 q 550 1089 544 1096 l 692 954 q 692 948 696 953 q 685 944 688 943 l 535 1025 l 383 944 q 377 948 382 943 q 375 954 372 953 m 767 975 q 681 1033 724 1007 q 582 1082 639 1058 q 583 1089 576 1083 q 602 1101 589 1094 q 631 1114 615 1108 q 658 1122 646 1119 q 672 1121 669 1124 q 722 1053 694 1088 q 776 988 749 1019 q 778 977 782 982 q 767 975 774 972 z "},"Ổ":{"ha":1064,"x_min":68,"x_max":996,"o":"m 508 -17 q 327 19 408 -17 q 188 117 246 54 q 99 260 131 179 q 68 433 68 342 q 112 631 68 546 q 228 772 156 715 q 386 856 300 828 q 557 883 472 883 q 741 847 660 883 q 879 747 822 810 q 966 606 936 685 q 996 443 996 526 q 957 263 996 346 q 851 117 918 179 q 695 19 783 54 q 508 -17 607 -17 m 557 13 q 726 58 651 13 q 846 190 801 103 q 890 404 890 278 q 842 635 890 535 q 706 794 794 736 q 499 851 618 851 q 259 752 344 851 q 174 482 174 653 q 201 298 174 383 q 279 148 228 213 q 401 48 331 83 q 557 13 472 13 m 375 954 l 518 1089 q 535 1096 525 1096 q 550 1089 544 1096 l 692 954 q 692 948 696 953 q 685 944 688 943 l 535 1025 l 383 944 q 377 948 382 943 q 375 954 372 953 m 646 1004 q 647 1048 638 1028 q 670 1087 657 1068 q 683 1128 683 1106 q 667 1160 683 1150 q 636 1171 651 1171 q 603 1164 617 1171 q 594 1167 600 1161 q 593 1175 589 1172 q 638 1194 615 1189 q 676 1200 661 1200 q 726 1182 710 1200 q 743 1142 743 1164 q 729 1102 743 1119 q 698 1069 715 1085 q 669 1038 681 1054 q 661 1004 657 1022 q 656 1001 664 1003 q 646 1004 647 1000 z "},"Ỗ":{"ha":1064,"x_min":68,"x_max":996,"o":"m 508 -17 q 327 19 408 -17 q 188 117 246 54 q 99 260 131 179 q 68 433 68 342 q 112 631 68 546 q 228 772 156 715 q 386 856 300 828 q 557 883 472 883 q 741 847 660 883 q 879 747 822 810 q 966 606 936 685 q 996 443 996 526 q 957 263 996 346 q 851 117 918 179 q 695 19 783 54 q 508 -17 607 -17 m 557 13 q 726 58 651 13 q 846 190 801 103 q 890 404 890 278 q 842 635 890 535 q 706 794 794 736 q 499 851 618 851 q 259 752 344 851 q 174 482 174 653 q 201 298 174 383 q 279 148 228 213 q 401 48 331 83 q 557 13 472 13 m 375 954 l 518 1089 q 535 1096 525 1096 q 550 1089 544 1096 l 692 954 q 692 948 696 953 q 685 944 688 943 l 535 1025 l 383 944 q 377 948 382 943 q 375 954 372 953 m 649 1165 q 690 1176 675 1165 q 717 1203 704 1188 q 724 1201 719 1206 q 726 1193 729 1196 q 666 1123 689 1140 q 617 1106 643 1106 q 558 1115 586 1106 q 500 1132 529 1124 q 436 1140 471 1140 q 394 1129 407 1140 q 367 1103 382 1118 q 359 1105 364 1101 q 357 1113 354 1108 q 387 1149 368 1129 q 428 1183 406 1168 q 475 1199 451 1199 q 526 1190 499 1199 q 584 1174 553 1182 q 649 1165 615 1165 z "},"Ȍ":{"ha":1064,"x_min":68,"x_max":996,"o":"m 508 -17 q 327 19 408 -17 q 188 117 246 54 q 99 260 131 179 q 68 433 68 342 q 112 631 68 546 q 228 772 156 715 q 386 856 300 828 q 557 883 472 883 q 741 847 660 883 q 879 747 822 810 q 966 606 936 685 q 996 443 996 526 q 957 263 996 346 q 851 117 918 179 q 695 19 783 54 q 508 -17 607 -17 m 557 13 q 726 58 651 13 q 846 190 801 103 q 890 404 890 278 q 842 635 890 535 q 706 794 794 736 q 499 851 618 851 q 259 752 344 851 q 174 482 174 653 q 201 298 174 383 q 279 148 228 213 q 401 48 331 83 q 557 13 472 13 m 676 942 q 686 944 682 938 q 688 954 690 950 q 622 1021 651 989 q 563 1086 592 1053 q 542 1088 558 1090 q 506 1078 525 1085 q 476 1064 488 1071 q 474 1053 465 1057 q 581 1001 533 1028 q 676 942 628 975 m 504 942 q 514 944 510 938 q 515 954 518 950 q 449 1020 479 988 q 390 1086 419 1053 q 371 1088 386 1090 q 337 1078 356 1085 q 307 1064 318 1071 q 304 1053 296 1057 q 409 1002 363 1029 q 504 942 456 975 z "},"Ö":{"ha":1064,"x_min":68,"x_max":996,"o":"m 508 -17 q 327 19 408 -17 q 188 117 246 54 q 99 260 131 179 q 68 433 68 342 q 112 631 68 546 q 228 772 156 715 q 386 856 300 828 q 557 883 472 883 q 741 847 660 883 q 879 747 822 810 q 966 606 936 685 q 996 443 996 526 q 957 263 996 346 q 851 117 918 179 q 695 19 783 54 q 508 -17 607 -17 m 557 13 q 726 58 651 13 q 846 190 801 103 q 890 404 890 278 q 842 635 890 535 q 706 794 794 736 q 499 851 618 851 q 259 752 344 851 q 174 482 174 653 q 201 298 174 383 q 279 148 228 213 q 401 48 331 83 q 557 13 472 13 m 414 996 q 370 1010 386 996 q 354 1053 354 1025 q 370 1094 354 1079 q 414 1110 386 1110 q 456 1094 440 1110 q 471 1053 471 1079 q 414 996 471 996 m 657 996 q 613 1010 629 996 q 597 1053 597 1025 q 613 1094 597 1079 q 657 1110 629 1110 q 714 1053 714 1110 q 657 996 714 996 z "},"Ọ":{"ha":1064,"x_min":68,"x_max":996,"o":"m 508 -17 q 327 19 408 -17 q 188 117 246 54 q 99 260 131 179 q 68 433 68 342 q 112 631 68 546 q 228 772 156 715 q 386 856 300 828 q 557 883 472 883 q 741 847 660 883 q 879 747 822 810 q 966 606 936 685 q 996 443 996 526 q 957 263 996 346 q 851 117 918 179 q 695 19 783 54 q 508 -17 607 -17 m 557 13 q 726 58 651 13 q 846 190 801 103 q 890 404 890 278 q 842 635 890 535 q 706 794 794 736 q 499 851 618 851 q 259 752 344 851 q 174 482 174 653 q 201 298 174 383 q 279 148 228 213 q 401 48 331 83 q 557 13 472 13 m 550 -264 q 505 -249 521 -264 q 489 -206 489 -233 q 505 -162 489 -178 q 550 -147 521 -147 q 593 -162 578 -147 q 608 -206 608 -178 q 550 -264 608 -264 z "},"Ò":{"ha":1064,"x_min":68,"x_max":996,"o":"m 508 -17 q 327 19 408 -17 q 188 117 246 54 q 99 260 131 179 q 68 433 68 342 q 112 631 68 546 q 228 772 156 715 q 386 856 300 828 q 557 883 472 883 q 741 847 660 883 q 879 747 822 810 q 966 606 936 685 q 996 443 996 526 q 957 263 996 346 q 851 117 918 179 q 695 19 783 54 q 508 -17 607 -17 m 557 13 q 726 58 651 13 q 846 190 801 103 q 890 404 890 278 q 842 635 890 535 q 706 794 794 736 q 499 851 618 851 q 259 752 344 851 q 174 482 174 653 q 201 298 174 383 q 279 148 228 213 q 401 48 331 83 q 557 13 472 13 m 672 943 q 528 1001 601 975 q 363 1050 456 1028 q 365 1058 354 1051 q 395 1074 376 1065 q 431 1088 414 1082 q 451 1089 447 1093 q 560 1024 506 1057 q 678 957 614 990 q 681 948 683 956 q 672 943 678 940 z "},"Ỏ":{"ha":1064,"x_min":68,"x_max":996,"o":"m 508 -17 q 327 19 408 -17 q 188 117 246 54 q 99 260 131 179 q 68 433 68 342 q 112 631 68 546 q 228 772 156 715 q 386 856 300 828 q 557 883 472 883 q 741 847 660 883 q 879 747 822 810 q 966 606 936 685 q 996 443 996 526 q 957 263 996 346 q 851 117 918 179 q 695 19 783 54 q 508 -17 607 -17 m 557 13 q 726 58 651 13 q 846 190 801 103 q 890 404 890 278 q 842 635 890 535 q 706 794 794 736 q 499 851 618 851 q 259 752 344 851 q 174 482 174 653 q 201 298 174 383 q 279 148 228 213 q 401 48 331 83 q 557 13 472 13 m 538 904 q 531 902 539 903 q 522 904 524 901 q 521 958 514 933 q 540 1001 528 982 q 564 1041 553 1021 q 575 1083 575 1061 q 557 1125 575 1111 q 517 1139 539 1139 q 497 1136 507 1139 q 478 1129 486 1133 q 469 1133 475 1128 q 468 1140 463 1139 q 514 1163 490 1156 q 558 1169 538 1169 q 624 1148 601 1169 q 647 1097 647 1126 q 628 1044 647 1068 q 587 999 610 1021 q 548 955 564 978 q 538 904 532 932 z "},"Ơ":{"ha":1064,"x_min":68,"x_max":1018,"o":"m 508 -17 q 327 19 408 -17 q 188 117 246 54 q 99 260 131 179 q 68 433 68 342 q 112 631 68 546 q 228 772 156 715 q 386 856 300 828 q 557 883 472 883 q 741 847 660 883 q 879 747 822 810 q 966 606 936 685 q 996 443 996 526 q 957 263 996 346 q 851 117 918 179 q 695 19 783 54 q 508 -17 607 -17 m 557 13 q 726 58 651 13 q 846 190 801 103 q 890 404 890 278 q 842 635 890 535 q 706 794 794 736 q 499 851 618 851 q 259 752 344 851 q 174 482 174 653 q 201 298 174 383 q 279 148 228 213 q 401 48 331 83 q 557 13 472 13 m 838 739 l 833 758 q 936 856 936 801 q 928 878 936 871 q 914 896 921 886 q 907 925 907 906 q 926 965 907 951 q 964 978 944 978 q 1005 958 992 978 q 1018 917 1018 939 q 991 839 1018 872 q 922 781 964 806 q 838 739 881 756 z "},"Ớ":{"ha":1064,"x_min":68,"x_max":1018,"o":"m 508 -17 q 327 19 408 -17 q 188 117 246 54 q 99 260 131 179 q 68 433 68 342 q 112 631 68 546 q 228 772 156 715 q 386 856 300 828 q 557 883 472 883 q 741 847 660 883 q 879 747 822 810 q 966 606 936 685 q 996 443 996 526 q 957 263 996 346 q 851 117 918 179 q 695 19 783 54 q 508 -17 607 -17 m 557 13 q 726 58 651 13 q 846 190 801 103 q 890 404 890 278 q 842 635 890 535 q 706 794 794 736 q 499 851 618 851 q 259 752 344 851 q 174 482 174 653 q 201 298 174 383 q 279 148 228 213 q 401 48 331 83 q 557 13 472 13 m 838 739 l 833 758 q 936 856 936 801 q 928 878 936 871 q 914 896 921 886 q 907 925 907 906 q 926 965 907 951 q 964 978 944 978 q 1005 958 992 978 q 1018 917 1018 939 q 991 839 1018 872 q 922 781 964 806 q 838 739 881 756 m 399 942 q 390 948 393 940 q 392 957 388 956 q 510 1024 457 990 q 618 1088 564 1057 q 640 1087 622 1092 q 676 1074 657 1082 q 705 1058 694 1065 q 707 1050 715 1051 q 542 1000 614 1026 q 399 942 469 974 z "},"Ợ":{"ha":1064,"x_min":68,"x_max":1018,"o":"m 508 -17 q 327 19 408 -17 q 188 117 246 54 q 99 260 131 179 q 68 433 68 342 q 112 631 68 546 q 228 772 156 715 q 386 856 300 828 q 557 883 472 883 q 741 847 660 883 q 879 747 822 810 q 966 606 936 685 q 996 443 996 526 q 957 263 996 346 q 851 117 918 179 q 695 19 783 54 q 508 -17 607 -17 m 557 13 q 726 58 651 13 q 846 190 801 103 q 890 404 890 278 q 842 635 890 535 q 706 794 794 736 q 499 851 618 851 q 259 752 344 851 q 174 482 174 653 q 201 298 174 383 q 279 148 228 213 q 401 48 331 83 q 557 13 472 13 m 838 739 l 833 758 q 936 856 936 801 q 928 878 936 871 q 914 896 921 886 q 907 925 907 906 q 926 965 907 951 q 964 978 944 978 q 1005 958 992 978 q 1018 917 1018 939 q 991 839 1018 872 q 922 781 964 806 q 838 739 881 756 m 535 -264 q 490 -249 506 -264 q 474 -206 474 -233 q 490 -162 474 -178 q 535 -147 506 -147 q 578 -162 563 -147 q 593 -206 593 -178 q 535 -264 593 -264 z "},"Ờ":{"ha":1064,"x_min":68,"x_max":1018,"o":"m 508 -17 q 327 19 408 -17 q 188 117 246 54 q 99 260 131 179 q 68 433 68 342 q 112 631 68 546 q 228 772 156 715 q 386 856 300 828 q 557 883 472 883 q 741 847 660 883 q 879 747 822 810 q 966 606 936 685 q 996 443 996 526 q 957 263 996 346 q 851 117 918 179 q 695 19 783 54 q 508 -17 607 -17 m 557 13 q 726 58 651 13 q 846 190 801 103 q 890 404 890 278 q 842 635 890 535 q 706 794 794 736 q 499 851 618 851 q 259 752 344 851 q 174 482 174 653 q 201 298 174 383 q 279 148 228 213 q 401 48 331 83 q 557 13 472 13 m 838 739 l 833 758 q 936 856 936 801 q 928 878 936 871 q 914 896 921 886 q 907 925 907 906 q 926 965 907 951 q 964 978 944 978 q 1005 958 992 978 q 1018 917 1018 939 q 991 839 1018 872 q 922 781 964 806 q 838 739 881 756 m 671 943 q 527 1001 600 975 q 361 1050 454 1028 q 364 1058 353 1051 q 394 1074 375 1065 q 429 1088 413 1082 q 451 1089 446 1093 q 558 1024 504 1057 q 676 957 613 990 q 679 948 682 956 q 671 943 676 940 z "},"Ở":{"ha":1064,"x_min":68,"x_max":1018,"o":"m 508 -17 q 327 19 408 -17 q 188 117 246 54 q 99 260 131 179 q 68 433 68 342 q 112 631 68 546 q 228 772 156 715 q 386 856 300 828 q 557 883 472 883 q 741 847 660 883 q 879 747 822 810 q 966 606 936 685 q 996 443 996 526 q 957 263 996 346 q 851 117 918 179 q 695 19 783 54 q 508 -17 607 -17 m 557 13 q 726 58 651 13 q 846 190 801 103 q 890 404 890 278 q 842 635 890 535 q 706 794 794 736 q 499 851 618 851 q 259 752 344 851 q 174 482 174 653 q 201 298 174 383 q 279 148 228 213 q 401 48 331 83 q 557 13 472 13 m 838 739 l 833 758 q 936 856 936 801 q 928 878 936 871 q 914 896 921 886 q 907 925 907 906 q 926 965 907 951 q 964 978 944 978 q 1005 958 992 978 q 1018 917 1018 939 q 991 839 1018 872 q 922 781 964 806 q 838 739 881 756 m 525 918 q 519 915 528 915 q 510 918 511 914 q 507 971 500 947 q 527 1014 514 994 q 551 1053 540 1033 q 563 1096 563 1074 q 544 1138 563 1124 q 503 1151 526 1151 q 483 1149 493 1151 q 464 1143 472 1146 q 456 1146 461 1140 q 454 1154 450 1151 q 501 1175 478 1168 q 544 1182 525 1182 q 611 1160 589 1182 q 633 1110 633 1139 q 615 1057 633 1081 q 573 1013 596 1033 q 535 969 550 992 q 525 918 519 946 z "},"Ỡ":{"ha":1064,"x_min":68,"x_max":1018,"o":"m 508 -17 q 327 19 408 -17 q 188 117 246 54 q 99 260 131 179 q 68 433 68 342 q 112 631 68 546 q 228 772 156 715 q 386 856 300 828 q 557 883 472 883 q 741 847 660 883 q 879 747 822 810 q 966 606 936 685 q 996 443 996 526 q 957 263 996 346 q 851 117 918 179 q 695 19 783 54 q 508 -17 607 -17 m 557 13 q 726 58 651 13 q 846 190 801 103 q 890 404 890 278 q 842 635 890 535 q 706 794 794 736 q 499 851 618 851 q 259 752 344 851 q 174 482 174 653 q 201 298 174 383 q 279 148 228 213 q 401 48 331 83 q 557 13 472 13 m 838 739 l 833 758 q 936 856 936 801 q 928 878 936 871 q 914 896 921 886 q 907 925 907 906 q 926 965 907 951 q 964 978 944 978 q 1005 958 992 978 q 1018 917 1018 939 q 991 839 1018 872 q 922 781 964 806 q 838 739 881 756 m 640 1047 q 681 1058 667 1047 q 708 1085 696 1069 q 716 1083 711 1088 q 718 1075 721 1078 q 657 1006 681 1022 q 608 989 633 989 q 549 998 578 989 q 492 1015 521 1007 q 426 1024 463 1024 q 385 1012 399 1024 q 358 986 372 1000 q 351 988 356 985 q 349 996 346 992 q 378 1031 360 1011 q 419 1066 397 1051 q 467 1081 442 1081 q 517 1072 490 1081 q 575 1056 544 1064 q 640 1047 606 1047 z "},"Ő":{"ha":1064,"x_min":68,"x_max":996,"o":"m 508 -17 q 327 19 408 -17 q 188 117 246 54 q 99 260 131 179 q 68 433 68 342 q 112 631 68 546 q 228 772 156 715 q 386 856 300 828 q 557 883 472 883 q 741 847 660 883 q 879 747 822 810 q 966 606 936 685 q 996 443 996 526 q 957 263 996 346 q 851 117 918 179 q 695 19 783 54 q 508 -17 607 -17 m 557 13 q 726 58 651 13 q 846 190 801 103 q 890 404 890 278 q 842 635 890 535 q 706 794 794 736 q 499 851 618 851 q 259 752 344 851 q 174 482 174 653 q 201 298 174 383 q 279 148 228 213 q 401 48 331 83 q 557 13 472 13 m 389 940 q 381 943 383 936 q 382 954 378 950 q 448 1021 418 989 q 507 1086 478 1053 q 527 1088 510 1090 q 563 1078 544 1085 q 593 1064 582 1071 q 596 1053 604 1057 q 487 1001 535 1028 q 389 940 439 974 m 561 940 q 553 943 556 936 q 554 954 551 950 q 620 1020 590 988 q 679 1086 650 1053 q 698 1088 682 1090 q 733 1078 714 1085 q 762 1064 751 1071 q 765 1053 772 1057 q 658 1001 706 1029 q 561 940 611 974 z "},"Ȏ":{"ha":1064,"x_min":68,"x_max":996,"o":"m 508 -17 q 327 19 408 -17 q 188 117 246 54 q 99 260 131 179 q 68 433 68 342 q 112 631 68 546 q 228 772 156 715 q 386 856 300 828 q 557 883 472 883 q 741 847 660 883 q 879 747 822 810 q 966 606 936 685 q 996 443 996 526 q 957 263 996 346 q 851 117 918 179 q 695 19 783 54 q 508 -17 607 -17 m 557 13 q 726 58 651 13 q 846 190 801 103 q 890 404 890 278 q 842 635 890 535 q 706 794 794 736 q 499 851 618 851 q 259 752 344 851 q 174 482 174 653 q 201 298 174 383 q 279 148 228 213 q 401 48 331 83 q 557 13 472 13 m 407 947 q 398 944 406 943 q 392 949 390 944 q 535 1097 413 1097 q 676 949 656 1097 q 670 944 678 944 q 661 947 663 943 q 615 1011 651 983 q 535 1039 578 1039 q 452 1011 489 1039 q 407 947 415 983 z "},"Ō":{"ha":1064,"x_min":68,"x_max":996,"o":"m 508 -17 q 327 19 408 -17 q 188 117 246 54 q 99 260 131 179 q 68 433 68 342 q 112 631 68 546 q 228 772 156 715 q 386 856 300 828 q 557 883 472 883 q 741 847 660 883 q 879 747 822 810 q 966 606 936 685 q 996 443 996 526 q 957 263 996 346 q 851 117 918 179 q 695 19 783 54 q 508 -17 607 -17 m 557 13 q 726 58 651 13 q 846 190 801 103 q 890 404 890 278 q 842 635 890 535 q 706 794 794 736 q 499 851 618 851 q 259 752 344 851 q 174 482 174 653 q 201 298 174 383 q 279 148 228 213 q 401 48 331 83 q 557 13 472 13 m 360 1003 q 352 1013 354 1003 q 352 1032 350 1022 q 360 1042 354 1042 l 708 1042 q 716 1032 714 1042 q 716 1013 718 1022 q 708 1003 714 1003 l 360 1003 z "},"Ǫ":{"ha":1064,"x_min":68,"x_max":996,"o":"m 508 -17 q 327 19 408 -17 q 188 117 246 54 q 99 260 131 179 q 68 433 68 342 q 112 631 68 546 q 228 772 156 715 q 386 856 300 828 q 557 883 472 883 q 741 847 660 883 q 879 747 822 810 q 966 606 936 685 q 996 443 996 526 q 957 263 996 346 q 851 117 918 179 q 695 19 783 54 q 508 -17 607 -17 m 557 13 q 726 58 651 13 q 846 190 801 103 q 890 404 890 278 q 842 635 890 535 q 706 794 794 736 q 499 851 618 851 q 259 752 344 851 q 174 482 174 653 q 201 298 174 383 q 279 148 228 213 q 401 48 331 83 q 557 13 472 13 m 603 8 l 618 1 q 537 -97 563 -49 q 511 -199 511 -144 q 544 -302 511 -264 q 640 -340 576 -340 q 694 -331 672 -340 q 731 -308 715 -321 q 740 -311 735 -306 q 740 -319 744 -317 q 666 -367 703 -353 q 590 -382 629 -382 q 475 -344 515 -382 q 435 -244 435 -306 q 476 -119 435 -182 q 603 8 518 -57 z "},"Ø":{"ha":1071,"x_min":68,"x_max":996,"o":"m 111 -10 q 103 -9 110 -12 q 92 1 97 -6 q 90 11 88 8 l 942 875 q 958 870 946 879 q 964 857 969 861 l 111 -10 m 508 -17 q 327 19 408 -17 q 188 117 246 54 q 99 260 131 179 q 68 433 68 342 q 112 631 68 546 q 228 772 156 715 q 386 856 300 828 q 557 883 472 883 q 741 847 660 883 q 879 747 822 810 q 966 606 936 685 q 996 443 996 526 q 957 263 996 346 q 851 117 918 179 q 695 19 783 54 q 508 -17 607 -17 m 557 13 q 726 58 651 13 q 846 190 801 103 q 890 404 890 278 q 842 635 890 535 q 706 794 794 736 q 499 851 618 851 q 259 752 344 851 q 174 482 174 653 q 201 298 174 383 q 279 148 228 213 q 401 48 331 83 q 557 13 472 13 z "},"Ǿ":{"ha":1071,"x_min":68,"x_max":996,"o":"m 111 -10 q 103 -9 110 -12 q 92 1 97 -6 q 90 11 88 8 l 942 875 q 958 870 946 879 q 964 857 969 861 l 111 -10 m 508 -17 q 327 19 408 -17 q 188 117 246 54 q 99 260 131 179 q 68 433 68 342 q 112 631 68 546 q 228 772 156 715 q 386 856 300 828 q 557 883 472 883 q 741 847 660 883 q 879 747 822 810 q 966 606 936 685 q 996 443 996 526 q 957 263 996 346 q 851 117 918 179 q 695 19 783 54 q 508 -17 607 -17 m 557 13 q 726 58 651 13 q 846 190 801 103 q 890 404 890 278 q 842 635 890 535 q 706 794 794 736 q 499 851 618 851 q 259 752 344 851 q 174 482 174 653 q 201 298 174 383 q 279 148 228 213 q 401 48 331 83 q 557 13 472 13 m 404 943 q 396 948 399 940 q 397 957 393 956 q 516 1024 463 990 q 624 1089 569 1058 q 645 1088 628 1093 q 681 1074 663 1082 q 710 1058 700 1065 q 713 1050 721 1051 q 547 1001 619 1028 q 404 943 475 975 z "},"Õ":{"ha":1064,"x_min":68,"x_max":996,"o":"m 508 -17 q 327 19 408 -17 q 188 117 246 54 q 99 260 131 179 q 68 433 68 342 q 112 631 68 546 q 228 772 156 715 q 386 856 300 828 q 557 883 472 883 q 741 847 660 883 q 879 747 822 810 q 966 606 936 685 q 996 443 996 526 q 957 263 996 346 q 851 117 918 179 q 695 19 783 54 q 508 -17 607 -17 m 557 13 q 726 58 651 13 q 846 190 801 103 q 890 404 890 278 q 842 635 890 535 q 706 794 794 736 q 499 851 618 851 q 259 752 344 851 q 174 482 174 653 q 201 298 174 383 q 279 148 228 213 q 401 48 331 83 q 557 13 472 13 m 640 1047 q 683 1058 668 1047 q 710 1085 697 1069 q 717 1083 713 1088 q 719 1075 722 1078 q 658 1006 682 1022 q 610 989 635 989 q 551 998 579 989 q 493 1015 522 1007 q 428 1024 464 1024 q 387 1012 400 1024 q 360 986 374 1000 q 352 988 357 985 q 350 996 347 992 q 380 1031 361 1011 q 421 1066 399 1051 q 467 1081 443 1081 q 519 1072 492 1081 q 576 1056 546 1064 q 640 1047 607 1047 z "},"Œ":{"ha":1269,"x_min":68,"x_max":1200,"o":"m 553 -6 q 301 51 410 -6 q 130 203 192 107 q 68 418 68 299 q 106 606 68 522 q 210 749 143 689 q 363 840 276 808 q 546 871 450 871 q 644 869 588 871 q 750 868 701 868 l 1142 868 q 1156 856 1156 868 l 1158 685 q 1150 680 1158 681 q 1142 683 1142 679 q 1121 762 1140 726 q 1069 818 1101 797 q 993 839 1036 839 l 904 839 q 834 833 858 839 q 801 808 810 826 q 793 754 793 789 l 793 118 q 801 63 793 83 q 833 36 810 43 q 901 29 856 29 l 1017 29 q 1092 52 1057 29 q 1151 115 1126 75 q 1185 206 1176 154 q 1192 209 1185 210 q 1200 204 1200 208 q 1192 117 1196 168 q 1188 21 1188 65 q 1167 0 1188 0 l 753 0 q 654 -3 707 0 q 553 -6 601 -6 m 1089 324 q 1059 411 1089 385 q 958 438 1029 438 l 750 438 l 750 467 l 963 467 q 1059 490 1031 467 q 1088 564 1088 513 q 1095 567 1088 567 q 1103 564 1103 567 q 1102 499 1103 522 q 1101 451 1101 476 q 1103 389 1101 419 q 1104 324 1104 358 q 1097 321 1104 321 q 1089 324 1089 321 m 551 15 q 642 22 608 15 q 689 51 675 29 q 703 114 703 72 l 703 742 q 692 804 703 781 q 651 839 682 828 q 560 850 619 850 q 360 804 449 850 q 223 668 272 758 q 174 449 174 578 q 220 229 174 328 q 351 73 267 131 q 551 15 436 15 z "},"P":{"ha":754,"x_min":56,"x_max":696,"o":"m 267 118 q 278 55 267 76 q 325 25 289 33 q 432 17 361 17 q 436 8 436 17 q 432 0 436 0 q 335 1 388 0 q 222 3 283 3 q 134 1 176 3 q 58 0 92 0 q 56 8 56 0 q 58 17 56 17 q 135 24 110 17 q 168 51 160 31 q 176 113 176 72 l 176 756 q 168 816 176 796 q 135 844 160 836 q 58 851 110 851 q 56 860 56 851 q 58 868 56 868 q 133 866 92 868 q 221 864 175 864 q 309 868 257 864 q 414 872 361 872 q 556 849 493 872 q 657 775 619 825 q 696 644 694 725 q 669 518 696 571 q 597 431 642 465 q 497 381 551 397 q 389 364 443 364 q 355 365 372 364 q 322 371 338 367 q 319 381 317 372 q 325 389 321 390 q 351 385 338 386 q 375 383 364 383 q 482 408 432 383 q 563 485 532 433 q 593 615 593 538 q 565 744 593 692 q 489 824 538 796 q 381 851 440 851 q 310 847 335 851 q 276 821 286 842 q 267 753 267 800 l 267 118 z "},"Þ":{"ha":747,"x_min":57,"x_max":699,"o":"m 176 756 q 167 816 176 796 q 134 844 158 836 q 60 851 110 851 q 57 860 57 851 q 60 868 57 868 q 135 866 93 868 q 221 864 176 864 q 334 866 282 864 q 431 868 386 868 q 435 860 435 868 q 431 851 435 851 q 324 843 360 851 q 276 813 288 835 q 265 749 265 792 l 265 118 q 276 55 265 76 q 324 25 288 33 q 431 17 360 17 q 435 8 435 17 q 431 0 435 0 q 334 1 386 0 q 221 3 282 3 q 135 1 176 3 q 60 0 93 0 q 57 8 57 0 q 60 17 57 17 q 134 24 110 17 q 167 51 158 31 q 176 113 176 72 l 176 756 m 208 671 q 303 688 253 683 q 396 693 354 693 q 545 672 478 693 q 653 601 613 650 q 696 467 694 551 q 671 340 699 393 q 598 252 643 286 q 499 201 553 218 q 392 185 444 185 q 356 187 374 185 q 324 192 339 189 q 320 202 318 193 q 326 210 322 211 q 352 206 339 208 q 376 204 365 204 q 483 229 433 204 q 563 306 532 254 q 593 439 593 358 q 528 613 593 553 q 361 674 464 674 q 287 667 324 674 q 219 651 250 661 l 208 671 z "},"Q":{"ha":1064,"x_min":68,"x_max":1043,"o":"m 643 10 q 740 -113 682 -60 q 862 -197 797 -167 q 985 -226 926 -226 q 1011 -226 997 -226 q 1035 -224 1025 -225 q 1041 -228 1039 -221 q 1040 -237 1043 -236 q 980 -249 1010 -244 q 922 -254 950 -254 q 786 -224 858 -254 q 646 -137 714 -194 q 524 3 578 -81 l 643 10 m 508 -17 q 327 19 408 -17 q 188 117 246 54 q 99 260 131 179 q 68 433 68 342 q 112 631 68 546 q 228 772 156 715 q 386 856 300 828 q 557 883 472 883 q 741 847 660 883 q 879 747 822 810 q 966 606 936 685 q 996 443 996 526 q 957 263 996 346 q 851 117 918 179 q 695 19 783 54 q 508 -17 607 -17 m 557 13 q 726 58 651 13 q 846 190 801 103 q 890 404 890 278 q 842 635 890 535 q 706 794 794 736 q 499 851 618 851 q 259 752 344 851 q 174 482 174 653 q 201 298 174 383 q 279 148 228 213 q 401 48 331 83 q 557 13 472 13 z "},"S":{"ha":682,"x_min":93,"x_max":607,"o":"m 201 706 q 230 608 201 649 q 303 536 258 567 q 397 475 347 506 q 497 413 449 446 q 576 333 544 379 q 607 221 607 288 q 574 101 607 154 q 477 15 540 47 q 321 -17 414 -17 q 255 -12 288 -17 q 190 4 222 -7 q 125 32 157 15 q 116 42 118 36 q 113 58 114 49 l 94 247 q 101 255 93 254 q 110 250 108 256 q 138 165 119 208 q 185 86 156 122 q 256 28 214 50 q 353 6 297 6 q 431 21 393 6 q 494 71 469 36 q 518 165 518 106 q 488 278 518 233 q 413 357 458 324 q 315 419 367 390 q 222 482 267 450 q 148 558 176 514 q 119 667 119 601 q 157 788 119 740 q 254 860 194 836 q 378 883 314 883 q 458 876 417 883 q 540 850 500 868 q 556 840 551 846 q 561 826 561 833 l 571 668 q 564 662 571 663 q 554 667 557 661 q 539 728 551 694 q 503 793 526 763 q 443 843 479 824 q 356 863 407 863 q 267 840 301 863 q 217 781 233 817 q 201 706 201 746 z "},"Ś":{"ha":682,"x_min":93,"x_max":607,"o":"m 201 706 q 230 608 201 649 q 303 536 258 567 q 397 475 347 506 q 497 413 449 446 q 576 333 544 379 q 607 221 607 288 q 574 101 607 154 q 477 15 540 47 q 321 -17 414 -17 q 255 -12 288 -17 q 190 4 222 -7 q 125 32 157 15 q 116 42 118 36 q 113 58 114 49 l 94 247 q 101 255 93 254 q 110 250 108 256 q 138 165 119 208 q 185 86 156 122 q 256 28 214 50 q 353 6 297 6 q 431 21 393 6 q 494 71 469 36 q 518 165 518 106 q 488 278 518 233 q 413 357 458 324 q 315 419 367 390 q 222 482 267 450 q 148 558 176 514 q 119 667 119 601 q 157 788 119 740 q 254 860 194 836 q 378 883 314 883 q 458 876 417 883 q 540 850 500 868 q 556 840 551 846 q 561 826 561 833 l 571 668 q 564 662 571 663 q 554 667 557 661 q 539 728 551 694 q 503 793 526 763 q 443 843 479 824 q 356 863 407 863 q 267 840 301 863 q 217 781 233 817 q 201 706 201 746 m 219 943 q 211 948 214 940 q 213 957 208 956 q 331 1024 278 990 q 439 1089 385 1058 q 460 1088 443 1093 q 497 1074 478 1082 q 526 1058 515 1065 q 528 1050 536 1051 q 363 1001 435 1028 q 219 943 290 975 z "},"Ꞌ":{"ha":343,"x_min":110,"x_max":235,"o":"m 110 1003 q 119 1009 110 1006 q 142 1014 128 1013 q 172 1015 157 1015 q 202 1014 188 1015 q 226 1009 217 1013 q 233 1003 235 1006 q 206 808 217 911 q 188 601 194 704 q 178 404 182 497 q 169 400 178 400 q 160 404 160 400 q 152 601 157 497 q 137 808 147 704 q 110 1003 126 911 z "},"Š":{"ha":682,"x_min":93,"x_max":607,"o":"m 201 706 q 230 608 201 649 q 303 536 258 567 q 397 475 347 506 q 497 413 449 446 q 576 333 544 379 q 607 221 607 288 q 574 101 607 154 q 477 15 540 47 q 321 -17 414 -17 q 255 -12 288 -17 q 190 4 222 -7 q 125 32 157 15 q 116 42 118 36 q 113 58 114 49 l 94 247 q 101 255 93 254 q 110 250 108 256 q 138 165 119 208 q 185 86 156 122 q 256 28 214 50 q 353 6 297 6 q 431 21 393 6 q 494 71 469 36 q 518 165 518 106 q 488 278 518 233 q 413 357 458 324 q 315 419 367 390 q 222 482 267 450 q 148 558 176 514 q 119 667 119 601 q 157 788 119 740 q 254 860 194 836 q 378 883 314 883 q 458 876 417 883 q 540 850 500 868 q 556 840 551 846 q 561 826 561 833 l 571 668 q 564 662 571 663 q 554 667 557 661 q 539 728 551 694 q 503 793 526 763 q 443 843 479 824 q 356 863 407 863 q 267 840 301 863 q 217 781 233 817 q 201 706 201 746 m 338 954 l 194 1089 q 197 1096 192 1092 q 203 1099 201 1100 l 354 1018 l 504 1099 q 511 1097 507 1101 q 511 1089 515 1092 l 369 954 q 354 949 364 949 q 338 954 344 949 z "},"Ş":{"ha":682,"x_min":93,"x_max":607,"o":"m 201 706 q 230 608 201 649 q 303 536 258 567 q 397 475 347 506 q 497 413 449 446 q 576 333 544 379 q 607 221 607 288 q 574 101 607 154 q 477 15 540 47 q 321 -17 414 -17 q 255 -12 288 -17 q 190 4 222 -7 q 125 32 157 15 q 116 42 118 36 q 113 58 114 49 l 94 247 q 101 255 93 254 q 110 250 108 256 q 138 165 119 208 q 185 86 156 122 q 256 28 214 50 q 353 6 297 6 q 431 21 393 6 q 494 71 469 36 q 518 165 518 106 q 488 278 518 233 q 413 357 458 324 q 315 419 367 390 q 222 482 267 450 q 148 558 176 514 q 119 667 119 601 q 157 788 119 740 q 254 860 194 836 q 378 883 314 883 q 458 876 417 883 q 540 850 500 868 q 556 840 551 846 q 561 826 561 833 l 571 668 q 564 662 571 663 q 554 667 557 661 q 539 728 551 694 q 503 793 526 763 q 443 843 479 824 q 356 863 407 863 q 267 840 301 863 q 217 781 233 817 q 201 706 201 746 m 367 -3 q 348 -74 350 -51 q 360 -109 346 -97 q 408 -142 375 -121 q 460 -183 438 -158 q 483 -249 483 -208 q 469 -308 483 -278 q 424 -360 456 -339 q 340 -382 392 -382 q 276 -369 303 -382 q 250 -329 250 -356 q 263 -299 250 -310 q 293 -287 276 -287 q 319 -297 311 -287 q 334 -321 328 -307 q 350 -344 340 -335 q 383 -354 360 -354 q 431 -301 431 -354 q 405 -237 431 -265 q 313 -172 379 -208 q 292 -156 293 -162 q 300 -131 290 -150 q 316 -89 310 -104 q 329 -56 322 -74 q 349 -1 336 -37 l 367 -3 z "},"Ŝ":{"ha":682,"x_min":93,"x_max":607,"o":"m 201 706 q 230 608 201 649 q 303 536 258 567 q 397 475 347 506 q 497 413 449 446 q 576 333 544 379 q 607 221 607 288 q 574 101 607 154 q 477 15 540 47 q 321 -17 414 -17 q 255 -12 288 -17 q 190 4 222 -7 q 125 32 157 15 q 116 42 118 36 q 113 58 114 49 l 94 247 q 101 255 93 254 q 110 250 108 256 q 138 165 119 208 q 185 86 156 122 q 256 28 214 50 q 353 6 297 6 q 431 21 393 6 q 494 71 469 36 q 518 165 518 106 q 488 278 518 233 q 413 357 458 324 q 315 419 367 390 q 222 482 267 450 q 148 558 176 514 q 119 667 119 601 q 157 788 119 740 q 254 860 194 836 q 378 883 314 883 q 458 876 417 883 q 540 850 500 868 q 556 840 551 846 q 561 826 561 833 l 571 668 q 564 662 571 663 q 554 667 557 661 q 539 728 551 694 q 503 793 526 763 q 443 843 479 824 q 356 863 407 863 q 267 840 301 863 q 217 781 233 817 q 201 706 201 746 m 196 961 l 339 1097 q 356 1104 346 1104 q 371 1097 365 1104 l 513 961 q 513 955 517 960 q 506 951 508 950 l 356 1032 l 204 951 q 198 955 203 950 q 196 961 193 960 z "},"Ș":{"ha":682,"x_min":93,"x_max":607,"o":"m 201 706 q 230 608 201 649 q 303 536 258 567 q 397 475 347 506 q 497 413 449 446 q 576 333 544 379 q 607 221 607 288 q 574 101 607 154 q 477 15 540 47 q 321 -17 414 -17 q 255 -12 288 -17 q 190 4 222 -7 q 125 32 157 15 q 116 42 118 36 q 113 58 114 49 l 94 247 q 101 255 93 254 q 110 250 108 256 q 138 165 119 208 q 185 86 156 122 q 256 28 214 50 q 353 6 297 6 q 431 21 393 6 q 494 71 469 36 q 518 165 518 106 q 488 278 518 233 q 413 357 458 324 q 315 419 367 390 q 222 482 267 450 q 148 558 176 514 q 119 667 119 601 q 157 788 119 740 q 254 860 194 836 q 378 883 314 883 q 458 876 417 883 q 540 850 500 868 q 556 840 551 846 q 561 826 561 833 l 571 668 q 564 662 571 663 q 554 667 557 661 q 539 728 551 694 q 503 793 526 763 q 443 843 479 824 q 356 863 407 863 q 267 840 301 863 q 217 781 233 817 q 201 706 201 746 m 353 -382 q 342 -380 347 -385 q 343 -371 338 -375 q 389 -312 374 -343 q 404 -247 404 -281 q 395 -205 404 -217 q 374 -187 386 -193 l 399 -179 q 389 -215 403 -203 q 353 -228 375 -228 q 313 -212 328 -228 q 299 -174 299 -197 q 317 -131 299 -143 q 360 -118 335 -118 q 418 -144 399 -118 q 438 -219 438 -171 q 415 -308 438 -269 q 353 -382 392 -347 z "},"Ṡ":{"ha":682,"x_min":93,"x_max":607,"o":"m 201 706 q 230 608 201 649 q 303 536 258 567 q 397 475 347 506 q 497 413 449 446 q 576 333 544 379 q 607 221 607 288 q 574 101 607 154 q 477 15 540 47 q 321 -17 414 -17 q 255 -12 288 -17 q 190 4 222 -7 q 125 32 157 15 q 116 42 118 36 q 113 58 114 49 l 94 247 q 101 255 93 254 q 110 250 108 256 q 138 165 119 208 q 185 86 156 122 q 256 28 214 50 q 353 6 297 6 q 431 21 393 6 q 494 71 469 36 q 518 165 518 106 q 488 278 518 233 q 413 357 458 324 q 315 419 367 390 q 222 482 267 450 q 148 558 176 514 q 119 667 119 601 q 157 788 119 740 q 254 860 194 836 q 378 883 314 883 q 458 876 417 883 q 540 850 500 868 q 556 840 551 846 q 561 826 561 833 l 571 668 q 564 662 571 663 q 554 667 557 661 q 539 728 551 694 q 503 793 526 763 q 443 843 479 824 q 356 863 407 863 q 267 840 301 863 q 217 781 233 817 q 201 706 201 746 m 354 990 q 309 1006 325 990 q 293 1050 293 1022 q 309 1092 293 1076 q 354 1108 325 1108 q 397 1092 382 1108 q 413 1050 413 1076 q 397 1006 413 1022 q 354 990 382 990 z "},"Ṣ":{"ha":682,"x_min":93,"x_max":607,"o":"m 201 706 q 230 608 201 649 q 303 536 258 567 q 397 475 347 506 q 497 413 449 446 q 576 333 544 379 q 607 221 607 288 q 574 101 607 154 q 477 15 540 47 q 321 -17 414 -17 q 255 -12 288 -17 q 190 4 222 -7 q 125 32 157 15 q 116 42 118 36 q 113 58 114 49 l 94 247 q 101 255 93 254 q 110 250 108 256 q 138 165 119 208 q 185 86 156 122 q 256 28 214 50 q 353 6 297 6 q 431 21 393 6 q 494 71 469 36 q 518 165 518 106 q 488 278 518 233 q 413 357 458 324 q 315 419 367 390 q 222 482 267 450 q 148 558 176 514 q 119 667 119 601 q 157 788 119 740 q 254 860 194 836 q 378 883 314 883 q 458 876 417 883 q 540 850 500 868 q 556 840 551 846 q 561 826 561 833 l 571 668 q 564 662 571 663 q 554 667 557 661 q 539 728 551 694 q 503 793 526 763 q 443 843 479 824 q 356 863 407 863 q 267 840 301 863 q 217 781 233 817 q 201 706 201 746 m 369 -264 q 325 -249 342 -264 q 308 -206 308 -233 q 325 -162 308 -178 q 369 -147 342 -147 q 413 -162 397 -147 q 428 -206 428 -178 q 369 -264 428 -264 z "},"ẞ":{"ha":932,"x_min":29,"x_max":869,"o":"m 594 -17 q 524 -8 557 -17 q 464 17 492 0 q 453 28 454 22 q 450 43 451 35 l 436 186 q 443 193 436 192 q 451 189 450 194 q 494 100 461 139 q 571 38 526 61 q 658 15 615 15 q 764 66 722 15 q 806 200 806 117 q 787 291 806 247 q 726 374 768 335 q 614 443 683 414 q 605 453 604 449 q 607 464 606 458 l 757 774 q 672 804 721 790 q 573 826 624 818 q 476 835 522 835 q 344 803 396 835 q 267 710 292 772 q 242 553 242 647 l 242 113 q 249 51 242 72 q 281 24 257 31 q 357 17 306 17 q 361 8 361 17 q 357 0 361 0 q 275 1 321 0 q 193 1 229 1 q 106 1 146 1 q 33 0 67 0 q 29 8 29 0 q 33 17 29 17 q 128 35 106 17 q 151 113 151 53 l 151 513 q 176 636 151 572 q 251 756 200 700 q 386 847 303 813 q 586 881 469 881 q 650 878 615 881 q 718 874 685 876 q 774 870 751 872 q 797 868 796 868 q 821 876 815 868 q 831 888 826 885 q 838 885 833 888 q 842 881 843 883 l 669 521 q 789 449 746 489 q 851 361 832 408 q 869 265 869 314 q 855 170 869 219 q 808 78 840 121 q 722 10 775 36 q 594 -17 669 -17 z "},"T":{"ha":881,"x_min":53,"x_max":831,"o":"m 261 843 q 131 799 175 843 q 68 647 88 754 q 60 644 68 644 q 53 647 53 644 q 58 698 56 665 q 65 768 61 731 q 70 841 68 806 q 72 899 72 876 q 80 906 72 906 q 88 899 88 906 q 101 878 88 885 q 133 870 115 872 q 163 868 150 868 q 442 864 282 864 q 598 866 540 864 q 710 868 656 868 q 783 874 757 868 q 815 903 808 881 q 824 908 817 908 q 831 903 831 908 q 826 846 829 882 q 822 771 824 810 q 819 699 821 732 q 818 647 818 665 q 810 644 818 644 q 801 647 801 644 q 757 799 797 756 q 624 843 717 843 q 536 838 565 843 q 498 813 507 832 q 489 753 489 794 l 489 113 q 499 51 489 72 q 537 24 508 31 q 624 17 565 17 q 628 8 628 17 q 624 0 628 0 q 542 1 588 0 q 442 3 496 3 q 344 1 390 3 q 261 0 299 0 q 258 8 258 0 q 261 17 258 17 q 348 24 318 17 q 388 51 378 31 q 397 113 397 72 l 397 756 q 388 816 397 797 q 349 839 378 835 q 261 843 319 843 z "},"Ŧ":{"ha":878,"x_min":53,"x_max":831,"o":"m 260 433 q 254 441 256 433 q 254 456 253 449 q 260 463 256 463 l 628 463 q 633 456 632 463 q 633 441 635 449 q 628 433 632 433 l 260 433 m 261 843 q 131 799 175 843 q 68 647 88 754 q 60 644 68 644 q 53 647 53 644 q 58 698 56 665 q 65 768 61 731 q 70 841 68 806 q 72 899 72 876 q 80 906 72 906 q 88 899 88 906 q 101 878 88 885 q 133 870 115 872 q 163 868 150 868 q 442 864 282 864 q 598 866 540 864 q 710 868 656 868 q 783 874 757 868 q 815 903 808 881 q 824 908 817 908 q 831 903 831 908 q 826 846 829 882 q 822 771 824 810 q 819 699 821 732 q 818 647 818 665 q 810 644 818 644 q 801 647 801 644 q 757 799 797 756 q 624 843 717 843 q 536 838 565 843 q 498 813 507 832 q 489 753 489 794 l 489 113 q 499 51 489 72 q 537 24 508 31 q 624 17 565 17 q 628 8 628 17 q 624 0 628 0 q 542 1 588 0 q 442 3 496 3 q 344 1 390 3 q 261 0 299 0 q 258 8 258 0 q 261 17 258 17 q 348 24 318 17 q 388 51 378 31 q 397 113 397 72 l 397 756 q 388 816 397 797 q 349 839 378 835 q 261 843 319 843 z "},"Ť":{"ha":881,"x_min":53,"x_max":831,"o":"m 261 843 q 131 799 175 843 q 68 647 88 754 q 60 644 68 644 q 53 647 53 644 q 58 698 56 665 q 65 768 61 731 q 70 841 68 806 q 72 899 72 876 q 80 906 72 906 q 88 899 88 906 q 101 878 88 885 q 133 870 115 872 q 163 868 150 868 q 442 864 282 864 q 598 866 540 864 q 710 868 656 868 q 783 874 757 868 q 815 903 808 881 q 824 908 817 908 q 831 903 831 908 q 826 846 829 882 q 822 771 824 810 q 819 699 821 732 q 818 647 818 665 q 810 644 818 644 q 801 647 801 644 q 757 799 797 756 q 624 843 717 843 q 536 838 565 843 q 498 813 507 832 q 489 753 489 794 l 489 113 q 499 51 489 72 q 537 24 508 31 q 624 17 565 17 q 628 8 628 17 q 624 0 628 0 q 542 1 588 0 q 442 3 496 3 q 344 1 390 3 q 261 0 299 0 q 258 8 258 0 q 261 17 258 17 q 348 24 318 17 q 388 51 378 31 q 397 113 397 72 l 397 756 q 388 816 397 797 q 349 839 378 835 q 261 843 319 843 m 424 954 l 281 1089 q 283 1096 278 1092 q 289 1099 288 1100 l 440 1018 l 590 1099 q 597 1097 593 1101 q 597 1089 601 1092 l 456 954 q 440 949 450 949 q 424 954 431 949 z "},"Ţ":{"ha":881,"x_min":53,"x_max":831,"o":"m 261 843 q 131 799 175 843 q 68 647 88 754 q 60 644 68 644 q 53 647 53 644 q 58 698 56 665 q 65 768 61 731 q 70 841 68 806 q 72 899 72 876 q 80 906 72 906 q 88 899 88 906 q 101 878 88 885 q 133 870 115 872 q 163 868 150 868 q 442 864 282 864 q 598 866 540 864 q 710 868 656 868 q 783 874 757 868 q 815 903 808 881 q 824 908 817 908 q 831 903 831 908 q 826 846 829 882 q 822 771 824 810 q 819 699 821 732 q 818 647 818 665 q 810 644 818 644 q 801 647 801 644 q 757 799 797 756 q 624 843 717 843 q 536 838 565 843 q 498 813 507 832 q 489 753 489 794 l 489 113 q 499 51 489 72 q 537 24 508 31 q 624 17 565 17 q 628 8 628 17 q 624 0 628 0 q 542 1 588 0 q 442 3 496 3 q 344 1 390 3 q 261 0 299 0 q 258 8 258 0 q 261 17 258 17 q 348 24 318 17 q 388 51 378 31 q 397 113 397 72 l 397 756 q 388 816 397 797 q 349 839 378 835 q 261 843 319 843 m 456 25 q 433 -61 438 -32 q 441 -106 428 -90 q 488 -142 454 -121 q 540 -183 517 -158 q 563 -249 563 -208 q 549 -308 563 -278 q 503 -360 535 -339 q 419 -382 471 -382 q 356 -369 382 -382 q 329 -329 329 -356 q 342 -299 329 -310 q 372 -287 356 -287 q 399 -297 390 -287 q 413 -321 407 -307 q 429 -344 419 -335 q 463 -354 439 -354 q 510 -301 510 -354 q 484 -237 510 -265 q 392 -172 458 -208 q 371 -156 372 -162 q 379 -131 369 -150 q 398 -81 390 -103 q 415 -35 406 -60 q 438 26 425 -11 l 456 25 z "},"Ț":{"ha":881,"x_min":53,"x_max":831,"o":"m 261 843 q 131 799 175 843 q 68 647 88 754 q 60 644 68 644 q 53 647 53 644 q 58 698 56 665 q 65 768 61 731 q 70 841 68 806 q 72 899 72 876 q 80 906 72 906 q 88 899 88 906 q 101 878 88 885 q 133 870 115 872 q 163 868 150 868 q 442 864 282 864 q 598 866 540 864 q 710 868 656 868 q 783 874 757 868 q 815 903 808 881 q 824 908 817 908 q 831 903 831 908 q 826 846 829 882 q 822 771 824 810 q 819 699 821 732 q 818 647 818 665 q 810 644 818 644 q 801 647 801 644 q 757 799 797 756 q 624 843 717 843 q 536 838 565 843 q 498 813 507 832 q 489 753 489 794 l 489 113 q 499 51 489 72 q 537 24 508 31 q 624 17 565 17 q 628 8 628 17 q 624 0 628 0 q 542 1 588 0 q 442 3 496 3 q 344 1 390 3 q 261 0 299 0 q 258 8 258 0 q 261 17 258 17 q 348 24 318 17 q 388 51 378 31 q 397 113 397 72 l 397 756 q 388 816 397 797 q 349 839 378 835 q 261 843 319 843 m 433 -382 q 423 -380 428 -385 q 422 -371 418 -375 q 468 -312 453 -343 q 483 -247 483 -281 q 475 -205 483 -217 q 454 -187 467 -193 l 479 -179 q 469 -215 482 -203 q 433 -228 456 -228 q 394 -212 408 -228 q 379 -174 379 -197 q 397 -131 379 -143 q 439 -118 415 -118 q 498 -144 478 -118 q 518 -219 518 -171 q 495 -308 518 -269 q 433 -382 472 -347 z "},"Ṭ":{"ha":881,"x_min":53,"x_max":831,"o":"m 261 843 q 131 799 175 843 q 68 647 88 754 q 60 644 68 644 q 53 647 53 644 q 58 698 56 665 q 65 768 61 731 q 70 841 68 806 q 72 899 72 876 q 80 906 72 906 q 88 899 88 906 q 101 878 88 885 q 133 870 115 872 q 163 868 150 868 q 442 864 282 864 q 598 866 540 864 q 710 868 656 868 q 783 874 757 868 q 815 903 808 881 q 824 908 817 908 q 831 903 831 908 q 826 846 829 882 q 822 771 824 810 q 819 699 821 732 q 818 647 818 665 q 810 644 818 644 q 801 647 801 644 q 757 799 797 756 q 624 843 717 843 q 536 838 565 843 q 498 813 507 832 q 489 753 489 794 l 489 113 q 499 51 489 72 q 537 24 508 31 q 624 17 565 17 q 628 8 628 17 q 624 0 628 0 q 542 1 588 0 q 442 3 496 3 q 344 1 390 3 q 261 0 299 0 q 258 8 258 0 q 261 17 258 17 q 348 24 318 17 q 388 51 378 31 q 397 113 397 72 l 397 756 q 388 816 397 797 q 349 839 378 835 q 261 843 319 843 m 450 -264 q 405 -249 421 -264 q 389 -206 389 -233 q 405 -162 389 -178 q 450 -147 421 -147 q 493 -162 478 -147 q 508 -206 508 -178 q 450 -264 508 -264 z "},"Ṯ":{"ha":881,"x_min":53,"x_max":831,"o":"m 261 843 q 131 799 175 843 q 68 647 88 754 q 60 644 68 644 q 53 647 53 644 q 58 698 56 665 q 65 768 61 731 q 70 841 68 806 q 72 899 72 876 q 80 906 72 906 q 88 899 88 906 q 101 878 88 885 q 133 870 115 872 q 163 868 150 868 q 442 864 282 864 q 598 866 540 864 q 710 868 656 868 q 783 874 757 868 q 815 903 808 881 q 824 908 817 908 q 831 903 831 908 q 826 846 829 882 q 822 771 824 810 q 819 699 821 732 q 818 647 818 665 q 810 644 818 644 q 801 647 801 644 q 757 799 797 756 q 624 843 717 843 q 536 838 565 843 q 498 813 507 832 q 489 753 489 794 l 489 113 q 499 51 489 72 q 537 24 508 31 q 624 17 565 17 q 628 8 628 17 q 624 0 628 0 q 542 1 588 0 q 442 3 496 3 q 344 1 390 3 q 261 0 299 0 q 258 8 258 0 q 261 17 258 17 q 348 24 318 17 q 388 51 378 31 q 397 113 397 72 l 397 756 q 388 816 397 797 q 349 839 378 835 q 261 843 319 843 m 274 -157 q 266 -147 268 -157 q 266 -128 264 -137 q 274 -118 268 -118 l 622 -118 q 631 -128 629 -118 q 631 -147 632 -137 q 622 -157 629 -157 l 274 -157 z "},"U":{"ha":969,"x_min":38,"x_max":942,"o":"m 794 715 q 765 817 794 783 q 674 851 735 851 q 669 860 669 851 q 674 868 669 868 q 739 866 706 868 q 813 864 772 864 q 878 866 844 864 q 939 868 911 868 q 942 860 942 868 q 939 851 942 851 q 856 817 883 851 q 828 715 828 783 l 828 321 q 787 138 828 214 q 672 22 746 63 q 500 -18 599 -18 q 320 22 397 -18 q 201 137 243 63 q 158 311 158 211 l 158 756 q 150 816 158 796 q 116 844 142 836 q 40 851 90 851 q 38 860 38 851 q 40 868 38 868 q 115 866 74 868 q 203 864 156 864 q 293 866 251 864 q 365 868 335 868 q 369 860 369 868 q 365 851 369 851 q 290 843 315 851 q 257 814 265 835 q 249 753 249 793 l 249 360 q 323 109 249 194 q 531 24 397 24 q 725 102 656 24 q 794 319 794 181 l 794 715 z "},"Ú":{"ha":969,"x_min":38,"x_max":942,"o":"m 794 715 q 765 817 794 783 q 674 851 735 851 q 669 860 669 851 q 674 868 669 868 q 739 866 706 868 q 813 864 772 864 q 878 866 844 864 q 939 868 911 868 q 942 860 942 868 q 939 851 942 851 q 856 817 883 851 q 828 715 828 783 l 828 321 q 787 138 828 214 q 672 22 746 63 q 500 -18 599 -18 q 320 22 397 -18 q 201 137 243 63 q 158 311 158 211 l 158 756 q 150 816 158 796 q 116 844 142 836 q 40 851 90 851 q 38 860 38 851 q 40 868 38 868 q 115 866 74 868 q 203 864 156 864 q 293 866 251 864 q 365 868 335 868 q 369 860 369 868 q 365 851 369 851 q 290 843 315 851 q 257 814 265 835 q 249 753 249 793 l 249 360 q 323 109 249 194 q 531 24 397 24 q 725 102 656 24 q 794 319 794 181 l 794 715 m 385 943 q 376 948 379 940 q 378 957 374 956 q 497 1024 443 990 q 604 1089 550 1058 q 626 1088 608 1093 q 662 1074 643 1082 q 691 1058 681 1065 q 693 1050 701 1051 q 528 1001 600 1028 q 385 943 456 975 z "},"Ʉ":{"ha":969,"x_min":38,"x_max":942,"o":"m 65 421 q 60 428 61 421 q 60 442 58 435 q 65 449 61 449 l 914 449 q 919 442 918 449 q 919 428 919 435 q 914 421 918 421 l 65 421 m 794 715 q 765 817 794 783 q 674 851 735 851 q 669 860 669 851 q 674 868 669 868 q 739 866 706 868 q 813 864 772 864 q 878 866 844 864 q 939 868 911 868 q 942 860 942 868 q 939 851 942 851 q 856 817 883 851 q 828 715 828 783 l 828 321 q 787 138 828 214 q 672 22 746 63 q 500 -18 599 -18 q 320 22 397 -18 q 201 137 243 63 q 158 311 158 211 l 158 756 q 150 816 158 796 q 116 844 142 836 q 40 851 90 851 q 38 860 38 851 q 40 868 38 868 q 115 866 74 868 q 203 864 156 864 q 293 866 251 864 q 365 868 335 868 q 369 860 369 868 q 365 851 369 851 q 290 843 315 851 q 257 814 265 835 q 249 753 249 793 l 249 360 q 323 109 249 194 q 531 24 397 24 q 725 102 656 24 q 794 319 794 181 l 794 715 z "},"Ŭ":{"ha":969,"x_min":38,"x_max":942,"o":"m 794 715 q 765 817 794 783 q 674 851 735 851 q 669 860 669 851 q 674 868 669 868 q 739 866 706 868 q 813 864 772 864 q 878 866 844 864 q 939 868 911 868 q 942 860 942 868 q 939 851 942 851 q 856 817 883 851 q 828 715 828 783 l 828 321 q 787 138 828 214 q 672 22 746 63 q 500 -18 599 -18 q 320 22 397 -18 q 201 137 243 63 q 158 311 158 211 l 158 756 q 150 816 158 796 q 116 844 142 836 q 40 851 90 851 q 38 860 38 851 q 40 868 38 868 q 115 866 74 868 q 203 864 156 864 q 293 866 251 864 q 365 868 335 868 q 369 860 369 868 q 365 851 369 851 q 290 843 315 851 q 257 814 265 835 q 249 753 249 793 l 249 360 q 323 109 249 194 q 531 24 397 24 q 725 102 656 24 q 794 319 794 181 l 794 715 m 519 958 q 423 997 460 958 q 376 1107 386 1036 q 383 1113 375 1113 q 392 1111 390 1114 q 437 1046 400 1074 q 519 1018 474 1018 q 599 1046 563 1018 q 646 1111 636 1074 q 655 1113 647 1114 q 661 1107 663 1113 q 615 997 651 1036 q 519 958 579 958 z "},"Ǔ":{"ha":969,"x_min":38,"x_max":942,"o":"m 794 715 q 765 817 794 783 q 674 851 735 851 q 669 860 669 851 q 674 868 669 868 q 739 866 706 868 q 813 864 772 864 q 878 866 844 864 q 939 868 911 868 q 942 860 942 868 q 939 851 942 851 q 856 817 883 851 q 828 715 828 783 l 828 321 q 787 138 828 214 q 672 22 746 63 q 500 -18 599 -18 q 320 22 397 -18 q 201 137 243 63 q 158 311 158 211 l 158 756 q 150 816 158 796 q 116 844 142 836 q 40 851 90 851 q 38 860 38 851 q 40 868 38 868 q 115 866 74 868 q 203 864 156 864 q 293 866 251 864 q 365 868 335 868 q 369 860 369 868 q 365 851 369 851 q 290 843 315 851 q 257 814 265 835 q 249 753 249 793 l 249 360 q 323 109 249 194 q 531 24 397 24 q 725 102 656 24 q 794 319 794 181 l 794 715 m 503 954 l 360 1089 q 362 1096 357 1092 q 368 1099 367 1100 l 519 1018 l 669 1099 q 676 1097 672 1101 q 676 1089 681 1092 l 535 954 q 519 949 529 949 q 503 954 510 949 z "},"Û":{"ha":969,"x_min":38,"x_max":942,"o":"m 794 715 q 765 817 794 783 q 674 851 735 851 q 669 860 669 851 q 674 868 669 868 q 739 866 706 868 q 813 864 772 864 q 878 866 844 864 q 939 868 911 868 q 942 860 942 868 q 939 851 942 851 q 856 817 883 851 q 828 715 828 783 l 828 321 q 787 138 828 214 q 672 22 746 63 q 500 -18 599 -18 q 320 22 397 -18 q 201 137 243 63 q 158 311 158 211 l 158 756 q 150 816 158 796 q 116 844 142 836 q 40 851 90 851 q 38 860 38 851 q 40 868 38 868 q 115 866 74 868 q 203 864 156 864 q 293 866 251 864 q 365 868 335 868 q 369 860 369 868 q 365 851 369 851 q 290 843 315 851 q 257 814 265 835 q 249 753 249 793 l 249 360 q 323 109 249 194 q 531 24 397 24 q 725 102 656 24 q 794 319 794 181 l 794 715 m 361 961 l 504 1097 q 521 1104 511 1104 q 536 1097 531 1104 l 678 961 q 678 955 682 960 q 671 951 674 950 l 521 1032 l 369 951 q 363 955 368 950 q 361 961 358 960 z "},"Ȕ":{"ha":969,"x_min":38,"x_max":942,"o":"m 794 715 q 765 817 794 783 q 674 851 735 851 q 669 860 669 851 q 674 868 669 868 q 739 866 706 868 q 813 864 772 864 q 878 866 844 864 q 939 868 911 868 q 942 860 942 868 q 939 851 942 851 q 856 817 883 851 q 828 715 828 783 l 828 321 q 787 138 828 214 q 672 22 746 63 q 500 -18 599 -18 q 320 22 397 -18 q 201 137 243 63 q 158 311 158 211 l 158 756 q 150 816 158 796 q 116 844 142 836 q 40 851 90 851 q 38 860 38 851 q 40 868 38 868 q 115 866 74 868 q 203 864 156 864 q 293 866 251 864 q 365 868 335 868 q 369 860 369 868 q 365 851 369 851 q 290 843 315 851 q 257 814 265 835 q 249 753 249 793 l 249 360 q 323 109 249 194 q 531 24 397 24 q 725 102 656 24 q 794 319 794 181 l 794 715 m 661 942 q 671 944 667 938 q 672 954 675 950 q 606 1021 636 989 q 547 1086 576 1053 q 526 1088 543 1090 q 491 1078 510 1085 q 461 1064 472 1071 q 458 1053 450 1057 q 565 1001 518 1028 q 661 942 613 975 m 489 942 q 499 944 494 938 q 500 954 503 950 q 434 1020 464 988 q 375 1086 404 1053 q 356 1088 371 1090 q 322 1078 340 1085 q 292 1064 303 1071 q 289 1053 281 1057 q 394 1002 347 1029 q 489 942 440 975 z "},"Ü":{"ha":969,"x_min":38,"x_max":942,"o":"m 794 715 q 765 817 794 783 q 674 851 735 851 q 669 860 669 851 q 674 868 669 868 q 739 866 706 868 q 813 864 772 864 q 878 866 844 864 q 939 868 911 868 q 942 860 942 868 q 939 851 942 851 q 856 817 883 851 q 828 715 828 783 l 828 321 q 787 138 828 214 q 672 22 746 63 q 500 -18 599 -18 q 320 22 397 -18 q 201 137 243 63 q 158 311 158 211 l 158 756 q 150 816 158 796 q 116 844 142 836 q 40 851 90 851 q 38 860 38 851 q 40 868 38 868 q 115 866 74 868 q 203 864 156 864 q 293 866 251 864 q 365 868 335 868 q 369 860 369 868 q 365 851 369 851 q 290 843 315 851 q 257 814 265 835 q 249 753 249 793 l 249 360 q 323 109 249 194 q 531 24 397 24 q 725 102 656 24 q 794 319 794 181 l 794 715 m 399 996 q 355 1010 371 996 q 339 1053 339 1025 q 355 1094 339 1079 q 399 1110 371 1110 q 440 1094 425 1110 q 456 1053 456 1079 q 399 996 456 996 m 642 996 q 598 1010 614 996 q 582 1053 582 1025 q 598 1094 582 1079 q 642 1110 614 1110 q 699 1053 699 1110 q 642 996 699 996 z "},"Ǘ":{"ha":969,"x_min":38,"x_max":942,"o":"m 794 715 q 765 817 794 783 q 674 851 735 851 q 669 860 669 851 q 674 868 669 868 q 739 866 706 868 q 813 864 772 864 q 878 866 844 864 q 939 868 911 868 q 942 860 942 868 q 939 851 942 851 q 856 817 883 851 q 828 715 828 783 l 828 321 q 787 138 828 214 q 672 22 746 63 q 500 -18 599 -18 q 320 22 397 -18 q 201 137 243 63 q 158 311 158 211 l 158 756 q 150 816 158 796 q 116 844 142 836 q 40 851 90 851 q 38 860 38 851 q 40 868 38 868 q 115 866 74 868 q 203 864 156 864 q 293 866 251 864 q 365 868 335 868 q 369 860 369 868 q 365 851 369 851 q 290 843 315 851 q 257 814 265 835 q 249 753 249 793 l 249 360 q 323 109 249 194 q 531 24 397 24 q 725 102 656 24 q 794 319 794 181 l 794 715 m 360 1138 q 351 1144 354 1136 q 354 1153 349 1151 q 480 1219 422 1186 q 594 1283 538 1253 q 617 1283 600 1288 q 652 1269 633 1278 q 682 1254 671 1261 q 685 1244 693 1247 q 511 1196 588 1222 q 360 1138 435 1169 m 399 979 q 355 994 371 979 q 339 1038 339 1010 q 355 1078 339 1063 q 399 1093 371 1093 q 440 1078 425 1093 q 456 1038 456 1063 q 399 979 456 979 m 642 979 q 598 994 614 979 q 582 1038 582 1010 q 598 1078 582 1063 q 642 1093 614 1093 q 684 1078 669 1093 q 699 1038 699 1063 q 642 979 699 979 z "},"Ǚ":{"ha":969,"x_min":38,"x_max":942,"o":"m 794 715 q 765 817 794 783 q 674 851 735 851 q 669 860 669 851 q 674 868 669 868 q 739 866 706 868 q 813 864 772 864 q 878 866 844 864 q 939 868 911 868 q 942 860 942 868 q 939 851 942 851 q 856 817 883 851 q 828 715 828 783 l 828 321 q 787 138 828 214 q 672 22 746 63 q 500 -18 599 -18 q 320 22 397 -18 q 201 137 243 63 q 158 311 158 211 l 158 756 q 150 816 158 796 q 116 844 142 836 q 40 851 90 851 q 38 860 38 851 q 40 868 38 868 q 115 866 74 868 q 203 864 156 864 q 293 866 251 864 q 365 868 335 868 q 369 860 369 868 q 365 851 369 851 q 290 843 315 851 q 257 814 265 835 q 249 753 249 793 l 249 360 q 323 109 249 194 q 531 24 397 24 q 725 102 656 24 q 794 319 794 181 l 794 715 m 507 1132 l 360 1267 q 362 1274 357 1269 q 368 1276 367 1278 l 524 1194 l 676 1276 q 685 1275 681 1279 q 685 1267 689 1271 l 538 1132 q 523 1126 532 1126 q 507 1132 514 1126 m 399 979 q 355 994 371 979 q 339 1038 339 1010 q 355 1078 339 1063 q 399 1093 371 1093 q 440 1078 425 1093 q 456 1038 456 1063 q 399 979 456 979 m 642 979 q 598 994 614 979 q 582 1038 582 1010 q 598 1078 582 1063 q 642 1093 614 1093 q 684 1078 669 1093 q 699 1038 699 1063 q 642 979 699 979 z "},"Ǜ":{"ha":969,"x_min":38,"x_max":942,"o":"m 794 715 q 765 817 794 783 q 674 851 735 851 q 669 860 669 851 q 674 868 669 868 q 739 866 706 868 q 813 864 772 864 q 878 866 844 864 q 939 868 911 868 q 942 860 942 868 q 939 851 942 851 q 856 817 883 851 q 828 715 828 783 l 828 321 q 787 138 828 214 q 672 22 746 63 q 500 -18 599 -18 q 320 22 397 -18 q 201 137 243 63 q 158 311 158 211 l 158 756 q 150 816 158 796 q 116 844 142 836 q 40 851 90 851 q 38 860 38 851 q 40 868 38 868 q 115 866 74 868 q 203 864 156 864 q 293 866 251 864 q 365 868 335 868 q 369 860 369 868 q 365 851 369 851 q 290 843 315 851 q 257 814 265 835 q 249 753 249 793 l 249 360 q 323 109 249 194 q 531 24 397 24 q 725 102 656 24 q 794 319 794 181 l 794 715 m 697 1138 q 547 1196 622 1169 q 374 1244 471 1222 q 376 1254 365 1247 q 406 1269 388 1261 q 442 1283 425 1278 q 464 1283 458 1288 q 578 1219 521 1253 q 704 1153 635 1186 q 707 1144 710 1151 q 697 1138 704 1136 m 417 979 q 358 1038 358 979 q 374 1078 358 1063 q 417 1093 389 1093 q 460 1078 444 1093 q 475 1038 475 1063 q 417 979 475 979 m 660 979 q 617 994 632 979 q 601 1038 601 1010 q 617 1078 601 1063 q 660 1093 632 1093 q 703 1078 688 1093 q 719 1038 719 1063 q 703 994 719 1010 q 660 979 688 979 z "},"Ǖ":{"ha":969,"x_min":38,"x_max":942,"o":"m 794 715 q 765 817 794 783 q 674 851 735 851 q 669 860 669 851 q 674 868 669 868 q 739 866 706 868 q 813 864 772 864 q 878 866 844 864 q 939 868 911 868 q 942 860 942 868 q 939 851 942 851 q 856 817 883 851 q 828 715 828 783 l 828 321 q 787 138 828 214 q 672 22 746 63 q 500 -18 599 -18 q 320 22 397 -18 q 201 137 243 63 q 158 311 158 211 l 158 756 q 150 816 158 796 q 116 844 142 836 q 40 851 90 851 q 38 860 38 851 q 40 868 38 868 q 115 866 74 868 q 203 864 156 864 q 293 866 251 864 q 365 868 335 868 q 369 860 369 868 q 365 851 369 851 q 290 843 315 851 q 257 814 265 835 q 249 753 249 793 l 249 360 q 323 109 249 194 q 531 24 397 24 q 725 102 656 24 q 794 319 794 181 l 794 715 m 399 979 q 355 994 371 979 q 339 1038 339 1010 q 355 1078 339 1063 q 399 1093 371 1093 q 440 1078 425 1093 q 456 1038 456 1063 q 399 979 456 979 m 642 979 q 598 994 614 979 q 582 1038 582 1010 q 598 1078 582 1063 q 642 1093 614 1093 q 684 1078 669 1093 q 699 1038 699 1063 q 642 979 699 979 m 357 1168 q 350 1178 353 1168 q 350 1197 347 1188 q 357 1207 353 1207 l 681 1207 q 688 1197 686 1207 q 688 1178 690 1188 q 681 1168 686 1168 l 357 1168 z "},"Ụ":{"ha":969,"x_min":38,"x_max":942,"o":"m 794 715 q 765 817 794 783 q 674 851 735 851 q 669 860 669 851 q 674 868 669 868 q 739 866 706 868 q 813 864 772 864 q 878 866 844 864 q 939 868 911 868 q 942 860 942 868 q 939 851 942 851 q 856 817 883 851 q 828 715 828 783 l 828 321 q 787 138 828 214 q 672 22 746 63 q 500 -18 599 -18 q 320 22 397 -18 q 201 137 243 63 q 158 311 158 211 l 158 756 q 150 816 158 796 q 116 844 142 836 q 40 851 90 851 q 38 860 38 851 q 40 868 38 868 q 115 866 74 868 q 203 864 156 864 q 293 866 251 864 q 365 868 335 868 q 369 860 369 868 q 365 851 369 851 q 290 843 315 851 q 257 814 265 835 q 249 753 249 793 l 249 360 q 323 109 249 194 q 531 24 397 24 q 725 102 656 24 q 794 319 794 181 l 794 715 m 488 -264 q 442 -249 458 -264 q 425 -206 425 -233 q 442 -162 425 -178 q 488 -147 458 -147 q 531 -162 515 -147 q 546 -206 546 -178 q 488 -264 546 -264 z "},"Ù":{"ha":969,"x_min":38,"x_max":942,"o":"m 794 715 q 765 817 794 783 q 674 851 735 851 q 669 860 669 851 q 674 868 669 868 q 739 866 706 868 q 813 864 772 864 q 878 866 844 864 q 939 868 911 868 q 942 860 942 868 q 939 851 942 851 q 856 817 883 851 q 828 715 828 783 l 828 321 q 787 138 828 214 q 672 22 746 63 q 500 -18 599 -18 q 320 22 397 -18 q 201 137 243 63 q 158 311 158 211 l 158 756 q 150 816 158 796 q 116 844 142 836 q 40 851 90 851 q 38 860 38 851 q 40 868 38 868 q 115 866 74 868 q 203 864 156 864 q 293 866 251 864 q 365 868 335 868 q 369 860 369 868 q 365 851 369 851 q 290 843 315 851 q 257 814 265 835 q 249 753 249 793 l 249 360 q 323 109 249 194 q 531 24 397 24 q 725 102 656 24 q 794 319 794 181 l 794 715 m 657 943 q 513 1001 586 975 q 347 1050 440 1028 q 350 1058 339 1051 q 380 1074 361 1065 q 415 1088 399 1082 q 436 1089 432 1093 q 544 1024 490 1057 q 663 957 599 990 q 665 948 668 956 q 657 943 663 940 z "},"Ủ":{"ha":969,"x_min":38,"x_max":942,"o":"m 794 715 q 765 817 794 783 q 674 851 735 851 q 669 860 669 851 q 674 868 669 868 q 739 866 706 868 q 813 864 772 864 q 878 866 844 864 q 939 868 911 868 q 942 860 942 868 q 939 851 942 851 q 856 817 883 851 q 828 715 828 783 l 828 321 q 787 138 828 214 q 672 22 746 63 q 500 -18 599 -18 q 320 22 397 -18 q 201 137 243 63 q 158 311 158 211 l 158 756 q 150 816 158 796 q 116 844 142 836 q 40 851 90 851 q 38 860 38 851 q 40 868 38 868 q 115 866 74 868 q 203 864 156 864 q 293 866 251 864 q 365 868 335 868 q 369 860 369 868 q 365 851 369 851 q 290 843 315 851 q 257 814 265 835 q 249 753 249 793 l 249 360 q 323 109 249 194 q 531 24 397 24 q 725 102 656 24 q 794 319 794 181 l 794 715 m 522 904 q 516 902 524 903 q 507 904 508 901 q 506 958 499 933 q 525 1001 513 982 q 549 1041 538 1021 q 560 1083 560 1061 q 542 1125 560 1111 q 501 1139 524 1139 q 481 1136 492 1139 q 463 1129 471 1133 q 453 1133 460 1128 q 453 1140 447 1139 q 499 1163 475 1156 q 543 1169 522 1169 q 609 1148 586 1169 q 632 1097 632 1126 q 613 1044 632 1068 q 572 999 594 1021 q 533 955 549 978 q 522 904 517 932 z "},"Ư":{"ha":969,"x_min":38,"x_max":1022,"o":"m 828 715 l 828 314 q 786 135 828 208 q 669 22 744 61 q 493 -18 594 -18 q 316 21 390 -18 q 200 133 242 60 q 158 306 158 206 l 158 756 q 150 816 158 796 q 116 844 142 836 q 40 851 90 851 q 38 860 38 851 q 40 868 38 868 q 115 866 74 868 q 203 864 156 864 q 293 866 251 864 q 365 868 335 868 q 369 860 369 868 q 365 851 369 851 q 290 843 315 851 q 257 814 265 835 q 249 753 249 793 l 249 354 q 324 106 249 189 q 524 24 400 24 q 722 101 650 24 q 794 313 794 178 l 794 715 q 765 817 794 783 q 674 851 735 851 q 669 860 669 851 q 674 868 669 868 q 739 866 706 868 q 813 864 772 864 q 906 878 876 864 q 936 926 936 892 q 931 953 936 944 q 918 972 925 963 q 911 996 911 981 q 930 1036 911 1022 q 968 1050 949 1050 q 1009 1030 996 1050 q 1022 985 1022 1010 q 1004 926 1022 951 q 958 883 986 901 q 900 853 931 865 q 869 836 886 849 q 840 796 853 824 q 828 715 828 768 z "},"Ứ":{"ha":969,"x_min":38,"x_max":1022,"o":"m 828 715 l 828 314 q 786 135 828 208 q 669 22 744 61 q 493 -18 594 -18 q 316 21 390 -18 q 200 133 242 60 q 158 306 158 206 l 158 756 q 150 816 158 796 q 116 844 142 836 q 40 851 90 851 q 38 860 38 851 q 40 868 38 868 q 115 866 74 868 q 203 864 156 864 q 293 866 251 864 q 365 868 335 868 q 369 860 369 868 q 365 851 369 851 q 290 843 315 851 q 257 814 265 835 q 249 753 249 793 l 249 354 q 324 106 249 189 q 524 24 400 24 q 722 101 650 24 q 794 313 794 178 l 794 715 q 765 817 794 783 q 674 851 735 851 q 669 860 669 851 q 674 868 669 868 q 739 866 706 868 q 813 864 772 864 q 906 878 876 864 q 936 926 936 892 q 931 953 936 944 q 918 972 925 963 q 911 996 911 981 q 930 1036 911 1022 q 968 1050 949 1050 q 1009 1030 996 1050 q 1022 985 1022 1010 q 1004 926 1022 951 q 958 883 986 901 q 900 853 931 865 q 869 836 886 849 q 840 796 853 824 q 828 715 828 768 m 383 942 q 375 948 378 940 q 376 957 372 956 q 496 1024 443 990 q 603 1088 549 1057 q 625 1087 607 1092 q 662 1074 643 1082 q 690 1058 681 1065 q 692 1050 700 1051 q 526 1000 599 1026 q 383 942 454 974 z "},"Ự":{"ha":969,"x_min":38,"x_max":1022,"o":"m 828 715 l 828 314 q 786 135 828 208 q 669 22 744 61 q 493 -18 594 -18 q 316 21 390 -18 q 200 133 242 60 q 158 306 158 206 l 158 756 q 150 816 158 796 q 116 844 142 836 q 40 851 90 851 q 38 860 38 851 q 40 868 38 868 q 115 866 74 868 q 203 864 156 864 q 293 866 251 864 q 365 868 335 868 q 369 860 369 868 q 365 851 369 851 q 290 843 315 851 q 257 814 265 835 q 249 753 249 793 l 249 354 q 324 106 249 189 q 524 24 400 24 q 722 101 650 24 q 794 313 794 178 l 794 715 q 765 817 794 783 q 674 851 735 851 q 669 860 669 851 q 674 868 669 868 q 739 866 706 868 q 813 864 772 864 q 906 878 876 864 q 936 926 936 892 q 931 953 936 944 q 918 972 925 963 q 911 996 911 981 q 930 1036 911 1022 q 968 1050 949 1050 q 1009 1030 996 1050 q 1022 985 1022 1010 q 1004 926 1022 951 q 958 883 986 901 q 900 853 931 865 q 869 836 886 849 q 840 796 853 824 q 828 715 828 768 m 515 -264 q 469 -249 486 -264 q 453 -206 453 -233 q 469 -162 453 -178 q 515 -147 486 -147 q 558 -162 543 -147 q 574 -206 574 -178 q 515 -264 574 -264 z "},"Ừ":{"ha":969,"x_min":38,"x_max":1022,"o":"m 828 715 l 828 314 q 786 135 828 208 q 669 22 744 61 q 493 -18 594 -18 q 316 21 390 -18 q 200 133 242 60 q 158 306 158 206 l 158 756 q 150 816 158 796 q 116 844 142 836 q 40 851 90 851 q 38 860 38 851 q 40 868 38 868 q 115 866 74 868 q 203 864 156 864 q 293 866 251 864 q 365 868 335 868 q 369 860 369 868 q 365 851 369 851 q 290 843 315 851 q 257 814 265 835 q 249 753 249 793 l 249 354 q 324 106 249 189 q 524 24 400 24 q 722 101 650 24 q 794 313 794 178 l 794 715 q 765 817 794 783 q 674 851 735 851 q 669 860 669 851 q 674 868 669 868 q 739 866 706 868 q 813 864 772 864 q 906 878 876 864 q 936 926 936 892 q 931 953 936 944 q 918 972 925 963 q 911 996 911 981 q 930 1036 911 1022 q 968 1050 949 1050 q 1009 1030 996 1050 q 1022 985 1022 1010 q 1004 926 1022 951 q 958 883 986 901 q 900 853 931 865 q 869 836 886 849 q 840 796 853 824 q 828 715 828 768 m 657 943 q 513 1001 586 975 q 347 1050 440 1028 q 349 1058 339 1051 q 378 1074 360 1065 q 415 1088 397 1082 q 436 1089 432 1093 q 544 1024 490 1057 q 663 957 597 990 q 665 948 668 956 q 657 943 663 940 z "},"Ử":{"ha":969,"x_min":38,"x_max":1022,"o":"m 828 715 l 828 314 q 786 135 828 208 q 669 22 744 61 q 493 -18 594 -18 q 316 21 390 -18 q 200 133 242 60 q 158 306 158 206 l 158 756 q 150 816 158 796 q 116 844 142 836 q 40 851 90 851 q 38 860 38 851 q 40 868 38 868 q 115 866 74 868 q 203 864 156 864 q 293 866 251 864 q 365 868 335 868 q 369 860 369 868 q 365 851 369 851 q 290 843 315 851 q 257 814 265 835 q 249 753 249 793 l 249 354 q 324 106 249 189 q 524 24 400 24 q 722 101 650 24 q 794 313 794 178 l 794 715 q 765 817 794 783 q 674 851 735 851 q 669 860 669 851 q 674 868 669 868 q 739 866 706 868 q 813 864 772 864 q 906 878 876 864 q 936 926 936 892 q 931 953 936 944 q 918 972 925 963 q 911 996 911 981 q 930 1036 911 1022 q 968 1050 949 1050 q 1009 1030 996 1050 q 1022 985 1022 1010 q 1004 926 1022 951 q 958 883 986 901 q 900 853 931 865 q 869 836 886 849 q 840 796 853 824 q 828 715 828 768 m 522 904 q 516 902 524 903 q 507 904 508 901 q 505 958 497 933 q 525 1001 513 982 q 549 1041 538 1021 q 560 1083 560 1061 q 542 1125 560 1111 q 500 1139 524 1139 q 480 1136 490 1139 q 461 1129 469 1133 q 453 1133 458 1128 q 451 1140 447 1139 q 499 1163 475 1156 q 543 1169 522 1169 q 608 1148 586 1169 q 631 1097 631 1126 q 613 1044 631 1068 q 571 999 594 1021 q 532 955 547 978 q 522 904 517 932 z "},"Ữ":{"ha":969,"x_min":38,"x_max":1022,"o":"m 828 715 l 828 314 q 786 135 828 208 q 669 22 744 61 q 493 -18 594 -18 q 316 21 390 -18 q 200 133 242 60 q 158 306 158 206 l 158 756 q 150 816 158 796 q 116 844 142 836 q 40 851 90 851 q 38 860 38 851 q 40 868 38 868 q 115 866 74 868 q 203 864 156 864 q 293 866 251 864 q 365 868 335 868 q 369 860 369 868 q 365 851 369 851 q 290 843 315 851 q 257 814 265 835 q 249 753 249 793 l 249 354 q 324 106 249 189 q 524 24 400 24 q 722 101 650 24 q 794 313 794 178 l 794 715 q 765 817 794 783 q 674 851 735 851 q 669 860 669 851 q 674 868 669 868 q 739 866 706 868 q 813 864 772 864 q 906 878 876 864 q 936 926 936 892 q 931 953 936 944 q 918 972 925 963 q 911 996 911 981 q 930 1036 911 1022 q 968 1050 949 1050 q 1009 1030 996 1050 q 1022 985 1022 1010 q 1004 926 1022 951 q 958 883 986 901 q 900 853 931 865 q 869 836 886 849 q 840 796 853 824 q 828 715 828 768 m 625 1047 q 666 1058 651 1047 q 693 1085 681 1069 q 701 1083 696 1088 q 703 1075 706 1078 q 642 1006 665 1022 q 593 989 619 989 q 534 998 563 989 q 476 1015 506 1007 q 413 1024 447 1024 q 371 1012 383 1024 q 343 986 358 1000 q 335 988 340 985 q 333 996 331 992 q 363 1031 344 1011 q 405 1066 382 1051 q 451 1081 428 1081 q 502 1072 475 1081 q 560 1056 529 1064 q 625 1047 592 1047 z "},"Ű":{"ha":969,"x_min":38,"x_max":942,"o":"m 794 715 q 765 817 794 783 q 674 851 735 851 q 669 860 669 851 q 674 868 669 868 q 739 866 706 868 q 813 864 772 864 q 878 866 844 864 q 939 868 911 868 q 942 860 942 868 q 939 851 942 851 q 856 817 883 851 q 828 715 828 783 l 828 321 q 787 138 828 214 q 672 22 746 63 q 500 -18 599 -18 q 320 22 397 -18 q 201 137 243 63 q 158 311 158 211 l 158 756 q 150 816 158 796 q 116 844 142 836 q 40 851 90 851 q 38 860 38 851 q 40 868 38 868 q 115 866 74 868 q 203 864 156 864 q 293 866 251 864 q 365 868 335 868 q 369 860 369 868 q 365 851 369 851 q 290 843 315 851 q 257 814 265 835 q 249 753 249 793 l 249 360 q 323 109 249 194 q 531 24 397 24 q 725 102 656 24 q 794 319 794 181 l 794 715 m 374 940 q 365 943 368 936 q 367 954 363 950 q 433 1021 403 989 q 492 1086 463 1053 q 512 1088 494 1090 q 548 1078 529 1085 q 578 1064 567 1071 q 581 1053 589 1057 q 472 1001 519 1028 q 374 940 424 974 m 546 940 q 538 943 540 936 q 539 954 536 950 q 605 1020 575 988 q 664 1086 635 1053 q 683 1088 667 1090 q 717 1078 699 1085 q 747 1064 736 1071 q 750 1053 757 1057 q 643 1001 690 1029 q 546 940 596 974 z "},"Ȗ":{"ha":969,"x_min":38,"x_max":942,"o":"m 794 715 q 765 817 794 783 q 674 851 735 851 q 669 860 669 851 q 674 868 669 868 q 739 866 706 868 q 813 864 772 864 q 878 866 844 864 q 939 868 911 868 q 942 860 942 868 q 939 851 942 851 q 856 817 883 851 q 828 715 828 783 l 828 321 q 787 138 828 214 q 672 22 746 63 q 500 -18 599 -18 q 320 22 397 -18 q 201 137 243 63 q 158 311 158 211 l 158 756 q 150 816 158 796 q 116 844 142 836 q 40 851 90 851 q 38 860 38 851 q 40 868 38 868 q 115 866 74 868 q 203 864 156 864 q 293 866 251 864 q 365 868 335 868 q 369 860 369 868 q 365 851 369 851 q 290 843 315 851 q 257 814 265 835 q 249 753 249 793 l 249 360 q 323 109 249 194 q 531 24 397 24 q 725 102 656 24 q 794 319 794 181 l 794 715 m 392 947 q 383 944 390 943 q 376 949 375 944 q 519 1097 397 1097 q 661 949 640 1097 q 655 944 663 944 q 646 947 647 943 q 599 1011 636 983 q 519 1039 563 1039 q 437 1011 474 1039 q 392 947 400 983 z "},"Ū":{"ha":969,"x_min":38,"x_max":942,"o":"m 794 715 q 765 817 794 783 q 674 851 735 851 q 669 860 669 851 q 674 868 669 868 q 739 866 706 868 q 813 864 772 864 q 878 866 844 864 q 939 868 911 868 q 942 860 942 868 q 939 851 942 851 q 856 817 883 851 q 828 715 828 783 l 828 321 q 787 138 828 214 q 672 22 746 63 q 500 -18 599 -18 q 320 22 397 -18 q 201 137 243 63 q 158 311 158 211 l 158 756 q 150 816 158 796 q 116 844 142 836 q 40 851 90 851 q 38 860 38 851 q 40 868 38 868 q 115 866 74 868 q 203 864 156 864 q 293 866 251 864 q 365 868 335 868 q 369 860 369 868 q 365 851 369 851 q 290 843 315 851 q 257 814 265 835 q 249 753 249 793 l 249 360 q 323 109 249 194 q 531 24 397 24 q 725 102 656 24 q 794 319 794 181 l 794 715 m 344 1003 q 337 1013 339 1003 q 337 1032 335 1022 q 344 1042 339 1042 l 693 1042 q 701 1032 699 1042 q 701 1013 703 1022 q 693 1003 699 1003 l 344 1003 z "},"Ų":{"ha":969,"x_min":38,"x_max":942,"o":"m 794 715 q 765 817 794 783 q 674 851 735 851 q 669 860 669 851 q 674 868 669 868 q 739 866 706 868 q 813 864 772 864 q 878 866 844 864 q 939 868 911 868 q 942 860 942 868 q 939 851 942 851 q 856 817 883 851 q 828 715 828 783 l 828 321 q 787 138 828 214 q 672 22 746 63 q 500 -18 599 -18 q 320 22 397 -18 q 201 137 243 63 q 158 311 158 211 l 158 756 q 150 816 158 796 q 116 844 142 836 q 40 851 90 851 q 38 860 38 851 q 40 868 38 868 q 115 866 74 868 q 203 864 156 864 q 293 866 251 864 q 365 868 335 868 q 369 860 369 868 q 365 851 369 851 q 290 843 315 851 q 257 814 265 835 q 249 753 249 793 l 249 360 q 323 109 249 194 q 531 24 397 24 q 725 102 656 24 q 794 319 794 181 l 794 715 m 589 8 l 606 1 q 523 -97 549 -49 q 497 -199 497 -144 q 530 -302 497 -264 q 626 -340 563 -340 q 680 -331 658 -340 q 718 -308 701 -321 q 727 -311 722 -306 q 728 -319 732 -317 q 652 -367 689 -353 q 578 -382 615 -382 q 462 -344 503 -382 q 421 -244 421 -306 q 463 -119 421 -182 q 589 8 506 -57 z "},"Ů":{"ha":969,"x_min":38,"x_max":942,"o":"m 794 715 q 765 817 794 783 q 674 851 735 851 q 669 860 669 851 q 674 868 669 868 q 739 866 706 868 q 813 864 772 864 q 878 866 844 864 q 939 868 911 868 q 942 860 942 868 q 939 851 942 851 q 856 817 883 851 q 828 715 828 783 l 828 321 q 787 138 828 214 q 672 22 746 63 q 500 -18 599 -18 q 320 22 397 -18 q 201 137 243 63 q 158 311 158 211 l 158 756 q 150 816 158 796 q 116 844 142 836 q 40 851 90 851 q 38 860 38 851 q 40 868 38 868 q 115 866 74 868 q 203 864 156 864 q 293 866 251 864 q 365 868 335 868 q 369 860 369 868 q 365 851 369 851 q 290 843 315 851 q 257 814 265 835 q 249 753 249 793 l 249 360 q 323 109 249 194 q 531 24 397 24 q 725 102 656 24 q 794 319 794 181 l 794 715 m 507 982 q 417 1015 450 982 q 385 1092 385 1049 q 406 1152 385 1128 q 459 1188 428 1176 q 521 1200 490 1200 q 606 1167 571 1200 q 642 1089 642 1135 q 622 1031 642 1056 q 571 994 601 1007 q 507 982 540 982 m 529 996 q 578 1064 578 996 q 553 1149 578 1113 q 493 1185 529 1185 q 447 1119 447 1185 q 457 1063 447 1090 q 485 1015 467 1035 q 529 996 503 996 z "},"Ũ":{"ha":969,"x_min":38,"x_max":942,"o":"m 794 715 q 765 817 794 783 q 674 851 735 851 q 669 860 669 851 q 674 868 669 868 q 739 866 706 868 q 813 864 772 864 q 878 866 844 864 q 939 868 911 868 q 942 860 942 868 q 939 851 942 851 q 856 817 883 851 q 828 715 828 783 l 828 321 q 787 138 828 214 q 672 22 746 63 q 500 -18 599 -18 q 320 22 397 -18 q 201 137 243 63 q 158 311 158 211 l 158 756 q 150 816 158 796 q 116 844 142 836 q 40 851 90 851 q 38 860 38 851 q 40 868 38 868 q 115 866 74 868 q 203 864 156 864 q 293 866 251 864 q 365 868 335 868 q 369 860 369 868 q 365 851 369 851 q 290 843 315 851 q 257 814 265 835 q 249 753 249 793 l 249 360 q 323 109 249 194 q 531 24 397 24 q 725 102 656 24 q 794 319 794 181 l 794 715 m 625 1047 q 667 1058 653 1047 q 694 1085 682 1069 q 702 1083 697 1088 q 704 1075 707 1078 q 643 1006 667 1022 q 594 989 619 989 q 535 998 564 989 q 478 1015 507 1007 q 413 1024 449 1024 q 372 1012 385 1024 q 344 986 358 1000 q 337 988 342 985 q 335 996 332 992 q 365 1031 346 1011 q 406 1066 383 1051 q 451 1081 428 1081 q 503 1072 476 1081 q 561 1056 531 1064 q 625 1047 592 1047 z "},"V":{"ha":925,"x_min":-6,"x_max":933,"o":"m 929 868 q 933 860 933 868 q 929 851 933 851 q 849 828 885 851 q 789 742 814 804 l 493 1 q 478 -4 492 -4 q 463 1 465 -4 l 117 753 q 67 828 93 806 q -1 851 42 851 q -6 860 -6 851 q -1 868 -6 868 q 36 867 18 868 q 74 865 54 865 q 114 864 93 864 q 188 865 156 864 q 244 867 219 865 q 290 868 269 868 q 294 860 294 868 q 290 851 294 851 q 215 831 236 851 q 217 758 193 810 l 517 101 l 474 38 l 757 750 q 757 826 778 801 q 660 851 736 851 q 656 860 656 851 q 660 868 656 868 q 725 866 694 868 q 806 864 756 864 q 870 866 846 864 q 929 868 894 868 z "},"W":{"ha":1293,"x_min":-6,"x_max":1301,"o":"m 672 453 l 493 1 q 478 -4 492 -4 q 463 1 465 -4 l 117 753 q 85 812 101 790 q 48 842 68 833 q -1 851 28 851 q -6 860 -6 851 q -1 868 -6 868 q 36 867 18 868 q 74 865 54 865 q 114 864 93 864 q 183 865 153 864 q 235 867 213 865 q 279 868 258 868 q 283 860 283 868 q 279 851 283 851 q 206 833 225 851 q 211 758 186 814 l 519 96 l 469 29 l 651 483 l 672 453 m 1299 868 q 1301 860 1301 868 q 1299 851 1301 851 q 1218 828 1253 851 q 1157 742 1183 806 l 861 1 q 847 -4 860 -4 q 831 1 833 -4 l 486 753 q 437 828 463 806 q 371 851 411 851 q 367 860 367 851 q 371 868 367 868 q 407 867 389 868 q 444 865 425 865 q 483 864 463 864 q 554 866 528 864 q 601 868 581 868 q 606 860 606 868 q 601 851 606 851 q 555 835 558 851 q 579 758 551 819 l 889 96 l 839 29 l 1126 747 q 1126 826 1147 800 q 1032 851 1106 851 q 1028 860 1028 851 q 1032 868 1028 868 q 1096 866 1065 868 q 1175 864 1126 864 q 1239 866 1214 864 q 1299 868 1264 868 m 658 483 l 764 750 q 776 828 786 804 q 721 851 767 851 q 717 860 717 851 q 721 868 717 868 q 747 867 735 868 q 773 865 758 865 q 811 864 788 864 q 874 866 850 864 q 932 868 899 868 q 935 860 935 868 q 932 851 935 851 q 854 829 889 851 q 794 742 819 807 l 679 453 l 658 483 z "},"Ẃ":{"ha":1293,"x_min":-6,"x_max":1301,"o":"m 672 453 l 493 1 q 478 -4 492 -4 q 463 1 465 -4 l 117 753 q 85 812 101 790 q 48 842 68 833 q -1 851 28 851 q -6 860 -6 851 q -1 868 -6 868 q 36 867 18 868 q 74 865 54 865 q 114 864 93 864 q 183 865 153 864 q 235 867 213 865 q 279 868 258 868 q 283 860 283 868 q 279 851 283 851 q 206 833 225 851 q 211 758 186 814 l 519 96 l 469 29 l 651 483 l 672 453 m 1299 868 q 1301 860 1301 868 q 1299 851 1301 851 q 1218 828 1253 851 q 1157 742 1183 806 l 861 1 q 847 -4 860 -4 q 831 1 833 -4 l 486 753 q 437 828 463 806 q 371 851 411 851 q 367 860 367 851 q 371 868 367 868 q 407 867 389 868 q 444 865 425 865 q 483 864 463 864 q 554 866 528 864 q 601 868 581 868 q 606 860 606 868 q 601 851 606 851 q 555 835 558 851 q 579 758 551 819 l 889 96 l 839 29 l 1126 747 q 1126 826 1147 800 q 1032 851 1106 851 q 1028 860 1028 851 q 1032 868 1028 868 q 1096 866 1065 868 q 1175 864 1126 864 q 1239 866 1214 864 q 1299 868 1264 868 m 658 483 l 764 750 q 776 828 786 804 q 721 851 767 851 q 717 860 717 851 q 721 868 717 868 q 747 867 735 868 q 773 865 758 865 q 811 864 788 864 q 874 866 850 864 q 932 868 899 868 q 935 860 935 868 q 932 851 935 851 q 854 829 889 851 q 794 742 819 807 l 679 453 l 658 483 m 517 943 q 508 948 511 940 q 510 957 506 956 q 628 1024 575 990 q 735 1089 682 1058 q 758 1088 740 1093 q 794 1074 775 1082 q 823 1058 813 1065 q 825 1050 833 1051 q 660 1001 732 1028 q 517 943 588 975 z "},"Ŵ":{"ha":1293,"x_min":-6,"x_max":1301,"o":"m 672 453 l 493 1 q 478 -4 492 -4 q 463 1 465 -4 l 117 753 q 85 812 101 790 q 48 842 68 833 q -1 851 28 851 q -6 860 -6 851 q -1 868 -6 868 q 36 867 18 868 q 74 865 54 865 q 114 864 93 864 q 183 865 153 864 q 235 867 213 865 q 279 868 258 868 q 283 860 283 868 q 279 851 283 851 q 206 833 225 851 q 211 758 186 814 l 519 96 l 469 29 l 651 483 l 672 453 m 1299 868 q 1301 860 1301 868 q 1299 851 1301 851 q 1218 828 1253 851 q 1157 742 1183 806 l 861 1 q 847 -4 860 -4 q 831 1 833 -4 l 486 753 q 437 828 463 806 q 371 851 411 851 q 367 860 367 851 q 371 868 367 868 q 407 867 389 868 q 444 865 425 865 q 483 864 463 864 q 554 866 528 864 q 601 868 581 868 q 606 860 606 868 q 601 851 606 851 q 555 835 558 851 q 579 758 551 819 l 889 96 l 839 29 l 1126 747 q 1126 826 1147 800 q 1032 851 1106 851 q 1028 860 1028 851 q 1032 868 1028 868 q 1096 866 1065 868 q 1175 864 1126 864 q 1239 866 1214 864 q 1299 868 1264 868 m 658 483 l 764 750 q 776 828 786 804 q 721 851 767 851 q 717 860 717 851 q 721 868 717 868 q 747 867 735 868 q 773 865 758 865 q 811 864 788 864 q 874 866 850 864 q 932 868 899 868 q 935 860 935 868 q 932 851 935 851 q 854 829 889 851 q 794 742 819 807 l 679 453 l 658 483 m 493 961 l 636 1097 q 653 1104 643 1104 q 668 1097 663 1104 l 810 961 q 810 955 814 960 q 803 951 806 950 l 653 1032 l 501 951 q 495 955 500 950 q 493 961 490 960 z "},"Ẅ":{"ha":1293,"x_min":-6,"x_max":1301,"o":"m 672 453 l 493 1 q 478 -4 492 -4 q 463 1 465 -4 l 117 753 q 85 812 101 790 q 48 842 68 833 q -1 851 28 851 q -6 860 -6 851 q -1 868 -6 868 q 36 867 18 868 q 74 865 54 865 q 114 864 93 864 q 183 865 153 864 q 235 867 213 865 q 279 868 258 868 q 283 860 283 868 q 279 851 283 851 q 206 833 225 851 q 211 758 186 814 l 519 96 l 469 29 l 651 483 l 672 453 m 1299 868 q 1301 860 1301 868 q 1299 851 1301 851 q 1218 828 1253 851 q 1157 742 1183 806 l 861 1 q 847 -4 860 -4 q 831 1 833 -4 l 486 753 q 437 828 463 806 q 371 851 411 851 q 367 860 367 851 q 371 868 367 868 q 407 867 389 868 q 444 865 425 865 q 483 864 463 864 q 554 866 528 864 q 601 868 581 868 q 606 860 606 868 q 601 851 606 851 q 555 835 558 851 q 579 758 551 819 l 889 96 l 839 29 l 1126 747 q 1126 826 1147 800 q 1032 851 1106 851 q 1028 860 1028 851 q 1032 868 1028 868 q 1096 866 1065 868 q 1175 864 1126 864 q 1239 866 1214 864 q 1299 868 1264 868 m 658 483 l 764 750 q 776 828 786 804 q 721 851 767 851 q 717 860 717 851 q 721 868 717 868 q 747 867 735 868 q 773 865 758 865 q 811 864 788 864 q 874 866 850 864 q 932 868 899 868 q 935 860 935 868 q 932 851 935 851 q 854 829 889 851 q 794 742 819 807 l 679 453 l 658 483 m 531 996 q 487 1010 503 996 q 471 1053 471 1025 q 487 1094 471 1079 q 531 1110 503 1110 q 572 1094 557 1110 q 588 1053 588 1079 q 531 996 588 996 m 774 996 q 730 1010 746 996 q 714 1053 714 1025 q 730 1094 714 1079 q 774 1110 746 1110 q 831 1053 831 1110 q 774 996 831 996 z "},"Ẁ":{"ha":1293,"x_min":-6,"x_max":1301,"o":"m 672 453 l 493 1 q 478 -4 492 -4 q 463 1 465 -4 l 117 753 q 85 812 101 790 q 48 842 68 833 q -1 851 28 851 q -6 860 -6 851 q -1 868 -6 868 q 36 867 18 868 q 74 865 54 865 q 114 864 93 864 q 183 865 153 864 q 235 867 213 865 q 279 868 258 868 q 283 860 283 868 q 279 851 283 851 q 206 833 225 851 q 211 758 186 814 l 519 96 l 469 29 l 651 483 l 672 453 m 1299 868 q 1301 860 1301 868 q 1299 851 1301 851 q 1218 828 1253 851 q 1157 742 1183 806 l 861 1 q 847 -4 860 -4 q 831 1 833 -4 l 486 753 q 437 828 463 806 q 371 851 411 851 q 367 860 367 851 q 371 868 367 868 q 407 867 389 868 q 444 865 425 865 q 483 864 463 864 q 554 866 528 864 q 601 868 581 868 q 606 860 606 868 q 601 851 606 851 q 555 835 558 851 q 579 758 551 819 l 889 96 l 839 29 l 1126 747 q 1126 826 1147 800 q 1032 851 1106 851 q 1028 860 1028 851 q 1032 868 1028 868 q 1096 866 1065 868 q 1175 864 1126 864 q 1239 866 1214 864 q 1299 868 1264 868 m 658 483 l 764 750 q 776 828 786 804 q 721 851 767 851 q 717 860 717 851 q 721 868 717 868 q 747 867 735 868 q 773 865 758 865 q 811 864 788 864 q 874 866 850 864 q 932 868 899 868 q 935 860 935 868 q 932 851 935 851 q 854 829 889 851 q 794 742 819 807 l 679 453 l 658 483 m 789 943 q 645 1001 718 975 q 479 1050 572 1028 q 481 1058 471 1051 q 510 1074 492 1065 q 547 1088 529 1082 q 568 1089 564 1093 q 676 1024 622 1057 q 794 957 731 990 q 797 948 800 956 q 789 943 794 940 z "},"X":{"ha":906,"x_min":19,"x_max":885,"o":"m 574 0 q 571 8 571 0 q 574 17 571 17 q 638 28 624 17 q 632 71 653 40 l 185 750 q 113 828 149 806 q 29 851 76 851 q 26 860 26 851 q 29 868 26 868 q 82 866 54 868 q 135 864 110 864 q 239 866 192 864 q 321 868 286 868 q 325 860 325 868 q 321 851 325 851 q 256 840 271 851 q 263 796 242 828 l 713 115 q 787 39 749 61 q 882 17 825 17 q 885 8 885 17 q 882 0 885 0 q 820 1 854 0 q 749 3 786 3 q 651 1 693 3 q 574 0 610 0 m 24 0 q 19 8 19 0 q 24 17 19 17 q 118 48 69 17 q 213 143 167 79 l 422 431 l 439 415 l 243 142 q 214 49 201 82 q 293 17 226 17 q 297 8 297 17 q 293 0 297 0 q 222 1 256 0 q 133 3 189 3 q 77 1 99 3 q 24 0 56 0 m 461 438 l 443 451 l 631 717 q 667 817 678 782 q 590 851 656 851 q 586 860 586 851 q 590 868 586 868 q 660 866 626 868 q 749 864 694 864 q 806 866 785 864 q 858 868 828 868 q 863 860 863 868 q 858 851 863 851 q 763 817 813 851 q 663 714 713 782 l 461 438 z "},"Y":{"ha":846,"x_min":-6,"x_max":856,"o":"m 418 400 l 626 719 q 656 818 667 785 q 582 851 644 851 q 579 860 579 851 q 582 868 579 868 q 654 866 619 868 q 744 864 689 864 q 801 866 779 864 q 853 868 822 868 q 856 860 856 868 q 853 851 856 851 q 785 835 819 851 q 719 788 750 818 q 660 714 688 757 l 442 379 l 418 400 m 403 378 l 153 744 q 79 828 114 804 q -1 851 44 851 q -6 860 -6 851 q -1 868 -6 868 q 49 866 22 868 q 97 864 75 864 q 170 865 135 864 q 237 867 206 865 q 292 868 268 868 q 294 860 294 868 q 292 851 294 851 q 224 836 238 851 q 233 789 211 821 l 471 440 l 403 378 m 383 431 l 474 443 l 474 113 q 482 51 474 72 q 515 24 490 31 q 592 17 540 17 q 596 8 596 17 q 592 0 596 0 q 517 1 558 0 q 428 3 476 3 q 339 1 382 3 q 264 0 296 0 q 260 8 260 0 q 264 17 260 17 q 340 24 314 17 q 375 51 367 31 q 383 113 383 72 l 383 431 z "},"Ý":{"ha":846,"x_min":-6,"x_max":856,"o":"m 418 400 l 626 719 q 656 818 667 785 q 582 851 644 851 q 579 860 579 851 q 582 868 579 868 q 654 866 619 868 q 744 864 689 864 q 801 866 779 864 q 853 868 822 868 q 856 860 856 868 q 853 851 856 851 q 785 835 819 851 q 719 788 750 818 q 660 714 688 757 l 442 379 l 418 400 m 403 378 l 153 744 q 79 828 114 804 q -1 851 44 851 q -6 860 -6 851 q -1 868 -6 868 q 49 866 22 868 q 97 864 75 864 q 170 865 135 864 q 237 867 206 865 q 292 868 268 868 q 294 860 294 868 q 292 851 294 851 q 224 836 238 851 q 233 789 211 821 l 471 440 l 403 378 m 383 431 l 474 443 l 474 113 q 482 51 474 72 q 515 24 490 31 q 592 17 540 17 q 596 8 596 17 q 592 0 596 0 q 517 1 558 0 q 428 3 476 3 q 339 1 382 3 q 264 0 296 0 q 260 8 260 0 q 264 17 260 17 q 340 24 314 17 q 375 51 367 31 q 383 113 383 72 l 383 431 m 307 943 q 299 948 301 940 q 300 957 296 956 q 419 1024 365 990 q 525 1089 472 1058 q 548 1088 531 1093 q 584 1074 565 1082 q 613 1058 603 1065 q 615 1050 624 1051 q 450 1001 522 1028 q 307 943 378 975 z "},"Ŷ":{"ha":846,"x_min":-6,"x_max":856,"o":"m 418 400 l 626 719 q 656 818 667 785 q 582 851 644 851 q 579 860 579 851 q 582 868 579 868 q 654 866 619 868 q 744 864 689 864 q 801 866 779 864 q 853 868 822 868 q 856 860 856 868 q 853 851 856 851 q 785 835 819 851 q 719 788 750 818 q 660 714 688 757 l 442 379 l 418 400 m 403 378 l 153 744 q 79 828 114 804 q -1 851 44 851 q -6 860 -6 851 q -1 868 -6 868 q 49 866 22 868 q 97 864 75 864 q 170 865 135 864 q 237 867 206 865 q 292 868 268 868 q 294 860 294 868 q 292 851 294 851 q 224 836 238 851 q 233 789 211 821 l 471 440 l 403 378 m 383 431 l 474 443 l 474 113 q 482 51 474 72 q 515 24 490 31 q 592 17 540 17 q 596 8 596 17 q 592 0 596 0 q 517 1 558 0 q 428 3 476 3 q 339 1 382 3 q 264 0 296 0 q 260 8 260 0 q 264 17 260 17 q 340 24 314 17 q 375 51 367 31 q 383 113 383 72 l 383 431 m 283 961 l 426 1097 q 443 1104 433 1104 q 458 1097 453 1104 l 600 961 q 600 955 604 960 q 593 951 596 950 l 443 1032 l 292 951 q 285 955 290 950 q 283 961 281 960 z "},"Ÿ":{"ha":846,"x_min":-6,"x_max":856,"o":"m 418 400 l 626 719 q 656 818 667 785 q 582 851 644 851 q 579 860 579 851 q 582 868 579 868 q 654 866 619 868 q 744 864 689 864 q 801 866 779 864 q 853 868 822 868 q 856 860 856 868 q 853 851 856 851 q 785 835 819 851 q 719 788 750 818 q 660 714 688 757 l 442 379 l 418 400 m 403 378 l 153 744 q 79 828 114 804 q -1 851 44 851 q -6 860 -6 851 q -1 868 -6 868 q 49 866 22 868 q 97 864 75 864 q 170 865 135 864 q 237 867 206 865 q 292 868 268 868 q 294 860 294 868 q 292 851 294 851 q 224 836 238 851 q 233 789 211 821 l 471 440 l 403 378 m 383 431 l 474 443 l 474 113 q 482 51 474 72 q 515 24 490 31 q 592 17 540 17 q 596 8 596 17 q 592 0 596 0 q 517 1 558 0 q 428 3 476 3 q 339 1 382 3 q 264 0 296 0 q 260 8 260 0 q 264 17 260 17 q 340 24 314 17 q 375 51 367 31 q 383 113 383 72 l 383 431 m 321 996 q 277 1010 293 996 q 261 1053 261 1025 q 277 1094 261 1079 q 321 1110 293 1110 q 363 1094 347 1110 q 378 1053 378 1079 q 321 996 378 996 m 564 996 q 520 1010 536 996 q 504 1053 504 1025 q 520 1094 504 1079 q 564 1110 536 1110 q 621 1053 621 1110 q 564 996 621 996 z "},"Ẏ":{"ha":846,"x_min":-6,"x_max":856,"o":"m 418 400 l 626 719 q 656 818 667 785 q 582 851 644 851 q 579 860 579 851 q 582 868 579 868 q 654 866 619 868 q 744 864 689 864 q 801 866 779 864 q 853 868 822 868 q 856 860 856 868 q 853 851 856 851 q 785 835 819 851 q 719 788 750 818 q 660 714 688 757 l 442 379 l 418 400 m 403 378 l 153 744 q 79 828 114 804 q -1 851 44 851 q -6 860 -6 851 q -1 868 -6 868 q 49 866 22 868 q 97 864 75 864 q 170 865 135 864 q 237 867 206 865 q 292 868 268 868 q 294 860 294 868 q 292 851 294 851 q 224 836 238 851 q 233 789 211 821 l 471 440 l 403 378 m 383 431 l 474 443 l 474 113 q 482 51 474 72 q 515 24 490 31 q 592 17 540 17 q 596 8 596 17 q 592 0 596 0 q 517 1 558 0 q 428 3 476 3 q 339 1 382 3 q 264 0 296 0 q 260 8 260 0 q 264 17 260 17 q 340 24 314 17 q 375 51 367 31 q 383 113 383 72 l 383 431 m 442 990 q 397 1006 413 990 q 381 1050 381 1022 q 397 1092 381 1076 q 442 1108 413 1108 q 485 1092 469 1108 q 500 1050 500 1076 q 485 1006 500 1022 q 442 990 469 990 z "},"Ỵ":{"ha":846,"x_min":-6,"x_max":856,"o":"m 418 400 l 626 719 q 656 818 667 785 q 582 851 644 851 q 579 860 579 851 q 582 868 579 868 q 654 866 619 868 q 744 864 689 864 q 801 866 779 864 q 853 868 822 868 q 856 860 856 868 q 853 851 856 851 q 785 835 819 851 q 719 788 750 818 q 660 714 688 757 l 442 379 l 418 400 m 403 378 l 153 744 q 79 828 114 804 q -1 851 44 851 q -6 860 -6 851 q -1 868 -6 868 q 49 866 22 868 q 97 864 75 864 q 170 865 135 864 q 237 867 206 865 q 292 868 268 868 q 294 860 294 868 q 292 851 294 851 q 224 836 238 851 q 233 789 211 821 l 471 440 l 403 378 m 383 431 l 474 443 l 474 113 q 482 51 474 72 q 515 24 490 31 q 592 17 540 17 q 596 8 596 17 q 592 0 596 0 q 517 1 558 0 q 428 3 476 3 q 339 1 382 3 q 264 0 296 0 q 260 8 260 0 q 264 17 260 17 q 340 24 314 17 q 375 51 367 31 q 383 113 383 72 l 383 431 m 425 -264 q 380 -249 396 -264 q 364 -206 364 -233 q 380 -162 364 -178 q 425 -147 396 -147 q 468 -162 453 -147 q 483 -206 483 -178 q 425 -264 483 -264 z "},"Ỳ":{"ha":846,"x_min":-6,"x_max":856,"o":"m 418 400 l 626 719 q 656 818 667 785 q 582 851 644 851 q 579 860 579 851 q 582 868 579 868 q 654 866 619 868 q 744 864 689 864 q 801 866 779 864 q 853 868 822 868 q 856 860 856 868 q 853 851 856 851 q 785 835 819 851 q 719 788 750 818 q 660 714 688 757 l 442 379 l 418 400 m 403 378 l 153 744 q 79 828 114 804 q -1 851 44 851 q -6 860 -6 851 q -1 868 -6 868 q 49 866 22 868 q 97 864 75 864 q 170 865 135 864 q 237 867 206 865 q 292 868 268 868 q 294 860 294 868 q 292 851 294 851 q 224 836 238 851 q 233 789 211 821 l 471 440 l 403 378 m 383 431 l 474 443 l 474 113 q 482 51 474 72 q 515 24 490 31 q 592 17 540 17 q 596 8 596 17 q 592 0 596 0 q 517 1 558 0 q 428 3 476 3 q 339 1 382 3 q 264 0 296 0 q 260 8 260 0 q 264 17 260 17 q 340 24 314 17 q 375 51 367 31 q 383 113 383 72 l 383 431 m 579 943 q 435 1001 508 975 q 269 1050 363 1028 q 272 1058 261 1051 q 301 1074 282 1065 q 337 1088 319 1082 q 358 1089 354 1093 q 467 1024 413 1057 q 585 957 521 990 q 588 948 590 956 q 579 943 585 940 z "},"Ỷ":{"ha":846,"x_min":-6,"x_max":856,"o":"m 418 400 l 626 719 q 656 818 667 785 q 582 851 644 851 q 579 860 579 851 q 582 868 579 868 q 654 866 619 868 q 744 864 689 864 q 801 866 779 864 q 853 868 822 868 q 856 860 856 868 q 853 851 856 851 q 785 835 819 851 q 719 788 750 818 q 660 714 688 757 l 442 379 l 418 400 m 403 378 l 153 744 q 79 828 114 804 q -1 851 44 851 q -6 860 -6 851 q -1 868 -6 868 q 49 866 22 868 q 97 864 75 864 q 170 865 135 864 q 237 867 206 865 q 292 868 268 868 q 294 860 294 868 q 292 851 294 851 q 224 836 238 851 q 233 789 211 821 l 471 440 l 403 378 m 383 431 l 474 443 l 474 113 q 482 51 474 72 q 515 24 490 31 q 592 17 540 17 q 596 8 596 17 q 592 0 596 0 q 517 1 558 0 q 428 3 476 3 q 339 1 382 3 q 264 0 296 0 q 260 8 260 0 q 264 17 260 17 q 340 24 314 17 q 375 51 367 31 q 383 113 383 72 l 383 431 m 444 904 q 438 902 446 903 q 429 904 431 901 q 428 958 421 933 q 447 1001 435 982 q 471 1041 460 1021 q 482 1083 482 1061 q 464 1125 482 1111 q 424 1139 446 1139 q 403 1136 413 1139 q 385 1129 393 1133 q 375 1133 381 1128 q 375 1140 369 1139 q 421 1163 397 1156 q 465 1169 444 1169 q 531 1148 508 1169 q 553 1097 553 1126 q 535 1044 553 1068 q 494 999 517 1021 q 455 955 471 978 q 444 904 439 932 z "},"Ȳ":{"ha":846,"x_min":-6,"x_max":856,"o":"m 418 400 l 626 719 q 656 818 667 785 q 582 851 644 851 q 579 860 579 851 q 582 868 579 868 q 654 866 619 868 q 744 864 689 864 q 801 866 779 864 q 853 868 822 868 q 856 860 856 868 q 853 851 856 851 q 785 835 819 851 q 719 788 750 818 q 660 714 688 757 l 442 379 l 418 400 m 403 378 l 153 744 q 79 828 114 804 q -1 851 44 851 q -6 860 -6 851 q -1 868 -6 868 q 49 866 22 868 q 97 864 75 864 q 170 865 135 864 q 237 867 206 865 q 292 868 268 868 q 294 860 294 868 q 292 851 294 851 q 224 836 238 851 q 233 789 211 821 l 471 440 l 403 378 m 383 431 l 474 443 l 474 113 q 482 51 474 72 q 515 24 490 31 q 592 17 540 17 q 596 8 596 17 q 592 0 596 0 q 517 1 558 0 q 428 3 476 3 q 339 1 382 3 q 264 0 296 0 q 260 8 260 0 q 264 17 260 17 q 340 24 314 17 q 375 51 367 31 q 383 113 383 72 l 383 431 m 267 1003 q 259 1013 261 1003 q 259 1032 257 1022 q 267 1042 261 1042 l 615 1042 q 623 1032 621 1042 q 623 1013 625 1022 q 615 1003 621 1003 l 267 1003 z "},"Ỹ":{"ha":846,"x_min":-6,"x_max":856,"o":"m 418 400 l 626 719 q 656 818 667 785 q 582 851 644 851 q 579 860 579 851 q 582 868 579 868 q 654 866 619 868 q 744 864 689 864 q 801 866 779 864 q 853 868 822 868 q 856 860 856 868 q 853 851 856 851 q 785 835 819 851 q 719 788 750 818 q 660 714 688 757 l 442 379 l 418 400 m 403 378 l 153 744 q 79 828 114 804 q -1 851 44 851 q -6 860 -6 851 q -1 868 -6 868 q 49 866 22 868 q 97 864 75 864 q 170 865 135 864 q 237 867 206 865 q 292 868 268 868 q 294 860 294 868 q 292 851 294 851 q 224 836 238 851 q 233 789 211 821 l 471 440 l 403 378 m 383 431 l 474 443 l 474 113 q 482 51 474 72 q 515 24 490 31 q 592 17 540 17 q 596 8 596 17 q 592 0 596 0 q 517 1 558 0 q 428 3 476 3 q 339 1 382 3 q 264 0 296 0 q 260 8 260 0 q 264 17 260 17 q 340 24 314 17 q 375 51 367 31 q 383 113 383 72 l 383 431 m 547 1047 q 590 1058 575 1047 q 617 1085 604 1069 q 624 1083 619 1088 q 626 1075 629 1078 q 565 1006 589 1022 q 517 989 542 989 q 458 998 486 989 q 399 1015 429 1007 q 335 1024 369 1024 q 294 1012 307 1024 q 267 986 281 1000 q 259 988 264 985 q 257 996 254 992 q 286 1031 268 1011 q 327 1066 304 1051 q 374 1081 350 1081 q 425 1072 397 1081 q 483 1056 453 1064 q 547 1047 514 1047 z "},"Z":{"ha":826,"x_min":71,"x_max":781,"o":"m 76 18 l 625 833 q 629 842 631 840 q 618 844 628 844 q 394 842 483 844 q 252 833 306 840 q 169 809 199 826 q 122 764 139 792 q 89 690 106 736 q 79 688 88 686 q 72 693 71 690 l 128 910 q 138 911 129 913 q 144 907 146 910 q 156 875 140 882 q 224 868 171 868 q 428 868 307 868 q 731 868 549 868 q 740 862 738 868 q 740 850 743 856 l 199 38 q 194 28 193 31 q 206 26 196 26 q 412 26 321 26 q 560 26 503 26 q 664 43 622 26 q 731 96 706 60 q 765 188 756 132 q 774 190 767 190 q 781 188 781 190 l 761 11 q 758 2 761 7 q 749 -3 756 -3 q 531 -1 646 -1 q 302 0 417 0 q 85 0 188 0 q 76 6 79 0 q 76 18 72 13 z "},"Ź":{"ha":826,"x_min":71,"x_max":781,"o":"m 76 18 l 625 833 q 629 842 631 840 q 618 844 628 844 q 394 842 483 844 q 252 833 306 840 q 169 809 199 826 q 122 764 139 792 q 89 690 106 736 q 79 688 88 686 q 72 693 71 690 l 128 910 q 138 911 129 913 q 144 907 146 910 q 156 875 140 882 q 224 868 171 868 q 428 868 307 868 q 731 868 549 868 q 740 862 738 868 q 740 850 743 856 l 199 38 q 194 28 193 31 q 206 26 196 26 q 412 26 321 26 q 560 26 503 26 q 664 43 622 26 q 731 96 706 60 q 765 188 756 132 q 774 190 767 190 q 781 188 781 190 l 761 11 q 758 2 761 7 q 749 -3 756 -3 q 531 -1 646 -1 q 302 0 417 0 q 85 0 188 0 q 76 6 79 0 q 76 18 72 13 m 300 943 q 292 948 294 940 q 293 957 289 956 q 412 1024 358 990 q 518 1089 465 1058 q 541 1088 524 1093 q 577 1074 558 1082 q 606 1058 596 1065 q 608 1050 617 1051 q 443 1001 515 1028 q 300 943 371 975 z "},"Ž":{"ha":826,"x_min":71,"x_max":781,"o":"m 76 18 l 625 833 q 629 842 631 840 q 618 844 628 844 q 394 842 483 844 q 252 833 306 840 q 169 809 199 826 q 122 764 139 792 q 89 690 106 736 q 79 688 88 686 q 72 693 71 690 l 128 910 q 138 911 129 913 q 144 907 146 910 q 156 875 140 882 q 224 868 171 868 q 428 868 307 868 q 731 868 549 868 q 740 862 738 868 q 740 850 743 856 l 199 38 q 194 28 193 31 q 206 26 196 26 q 412 26 321 26 q 560 26 503 26 q 664 43 622 26 q 731 96 706 60 q 765 188 756 132 q 774 190 767 190 q 781 188 781 190 l 761 11 q 758 2 761 7 q 749 -3 756 -3 q 531 -1 646 -1 q 302 0 417 0 q 85 0 188 0 q 76 6 79 0 q 76 18 72 13 m 418 954 l 275 1089 q 277 1096 272 1092 q 283 1099 282 1100 l 435 1018 l 585 1099 q 591 1097 588 1101 q 592 1089 594 1092 l 450 954 q 435 949 444 949 q 418 954 425 949 z "},"Ż":{"ha":826,"x_min":71,"x_max":781,"o":"m 76 18 l 625 833 q 629 842 631 840 q 618 844 628 844 q 394 842 483 844 q 252 833 306 840 q 169 809 199 826 q 122 764 139 792 q 89 690 106 736 q 79 688 88 686 q 72 693 71 690 l 128 910 q 138 911 129 913 q 144 907 146 910 q 156 875 140 882 q 224 868 171 868 q 428 868 307 868 q 731 868 549 868 q 740 862 738 868 q 740 850 743 856 l 199 38 q 194 28 193 31 q 206 26 196 26 q 412 26 321 26 q 560 26 503 26 q 664 43 622 26 q 731 96 706 60 q 765 188 756 132 q 774 190 767 190 q 781 188 781 190 l 761 11 q 758 2 761 7 q 749 -3 756 -3 q 531 -1 646 -1 q 302 0 417 0 q 85 0 188 0 q 76 6 79 0 q 76 18 72 13 m 435 990 q 390 1006 406 990 q 374 1050 374 1022 q 390 1092 374 1076 q 435 1108 406 1108 q 478 1092 463 1108 q 493 1050 493 1076 q 478 1006 493 1022 q 435 990 463 990 z "},"Ẓ":{"ha":826,"x_min":71,"x_max":781,"o":"m 76 18 l 625 833 q 629 842 631 840 q 618 844 628 844 q 394 842 483 844 q 252 833 306 840 q 169 809 199 826 q 122 764 139 792 q 89 690 106 736 q 79 688 88 686 q 72 693 71 690 l 128 910 q 138 911 129 913 q 144 907 146 910 q 156 875 140 882 q 224 868 171 868 q 428 868 307 868 q 731 868 549 868 q 740 862 738 868 q 740 850 743 856 l 199 38 q 194 28 193 31 q 206 26 196 26 q 412 26 321 26 q 560 26 503 26 q 664 43 622 26 q 731 96 706 60 q 765 188 756 132 q 774 190 767 190 q 781 188 781 190 l 761 11 q 758 2 761 7 q 749 -3 756 -3 q 531 -1 646 -1 q 302 0 417 0 q 85 0 188 0 q 76 6 79 0 q 76 18 72 13 m 415 -264 q 370 -249 386 -264 q 354 -206 354 -233 q 370 -162 354 -178 q 415 -147 386 -147 q 458 -162 443 -147 q 474 -206 474 -178 q 415 -264 474 -264 z "},"A":{"ha":975,"x_min":-4,"x_max":976,"o":"m 269 382 l 283 410 l 651 410 l 661 382 l 269 382 m 971 17 q 976 8 976 17 q 971 0 976 0 q 889 3 931 0 q 808 6 847 6 q 733 3 765 6 q 663 0 701 0 q 657 8 657 0 q 663 17 657 17 q 754 38 736 17 q 744 119 772 60 l 436 771 l 471 814 l 201 176 q 197 54 167 92 q 318 17 228 17 q 325 8 325 17 q 318 0 325 0 q 242 3 276 0 q 154 6 207 6 q 74 3 104 6 q 1 0 44 0 q -4 8 -4 0 q 1 17 -4 17 q 67 31 39 17 q 119 83 94 46 q 172 189 143 119 l 465 881 q 475 885 468 885 q 483 881 482 885 l 811 190 q 868 84 843 122 q 917 31 893 46 q 971 17 942 17 z "},"Á":{"ha":975,"x_min":-4,"x_max":976,"o":"m 269 382 l 283 410 l 651 410 l 661 382 l 269 382 m 971 17 q 976 8 976 17 q 971 0 976 0 q 889 3 931 0 q 808 6 847 6 q 733 3 765 6 q 663 0 701 0 q 657 8 657 0 q 663 17 657 17 q 754 38 736 17 q 744 119 772 60 l 436 771 l 471 814 l 201 176 q 197 54 167 92 q 318 17 228 17 q 325 8 325 17 q 318 0 325 0 q 242 3 276 0 q 154 6 207 6 q 74 3 104 6 q 1 0 44 0 q -4 8 -4 0 q 1 17 -4 17 q 67 31 39 17 q 119 83 94 46 q 172 189 143 119 l 465 881 q 475 885 468 885 q 483 881 482 885 l 811 190 q 868 84 843 122 q 917 31 893 46 q 971 17 942 17 m 339 942 q 331 948 333 940 q 332 957 328 956 q 451 1024 397 990 q 558 1088 504 1057 q 581 1087 563 1092 q 617 1074 599 1082 q 646 1058 636 1065 q 647 1050 656 1051 q 482 1000 554 1026 q 339 942 410 974 z "},"Ă":{"ha":975,"x_min":-4,"x_max":976,"o":"m 269 382 l 283 410 l 651 410 l 661 382 l 269 382 m 971 17 q 976 8 976 17 q 971 0 976 0 q 889 3 931 0 q 808 6 847 6 q 733 3 765 6 q 663 0 701 0 q 657 8 657 0 q 663 17 657 17 q 754 38 736 17 q 744 119 772 60 l 436 771 l 471 814 l 201 176 q 197 54 167 92 q 318 17 228 17 q 325 8 325 17 q 318 0 325 0 q 242 3 276 0 q 154 6 207 6 q 74 3 104 6 q 1 0 44 0 q -4 8 -4 0 q 1 17 -4 17 q 67 31 39 17 q 119 83 94 46 q 172 189 143 119 l 465 881 q 475 885 468 885 q 483 881 482 885 l 811 190 q 868 84 843 122 q 917 31 893 46 q 971 17 942 17 m 474 958 q 377 997 414 958 q 331 1107 340 1036 q 337 1113 329 1113 q 346 1111 344 1114 q 392 1046 356 1074 q 474 1018 428 1018 q 555 1046 518 1018 q 600 1111 592 1074 q 609 1113 601 1114 q 615 1107 617 1113 q 569 997 606 1036 q 474 958 533 958 z "},"Ắ":{"ha":975,"x_min":-4,"x_max":976,"o":"m 269 382 l 283 410 l 651 410 l 661 382 l 269 382 m 971 17 q 976 8 976 17 q 971 0 976 0 q 889 3 931 0 q 808 6 847 6 q 733 3 765 6 q 663 0 701 0 q 657 8 657 0 q 663 17 657 17 q 754 38 736 17 q 744 119 772 60 l 436 771 l 471 814 l 201 176 q 197 54 167 92 q 318 17 228 17 q 325 8 325 17 q 318 0 325 0 q 242 3 276 0 q 154 6 207 6 q 74 3 104 6 q 1 0 44 0 q -4 8 -4 0 q 1 17 -4 17 q 67 31 39 17 q 119 83 94 46 q 172 189 143 119 l 465 881 q 475 885 468 885 q 483 881 482 885 l 811 190 q 868 84 843 122 q 917 31 893 46 q 971 17 942 17 m 474 943 q 331 1092 351 943 q 337 1097 329 1096 q 346 1094 344 1099 q 392 1030 356 1057 q 474 1003 428 1003 q 555 1030 518 1003 q 600 1094 592 1057 q 609 1097 601 1099 q 615 1092 617 1096 q 474 943 594 943 m 399 1079 q 390 1082 393 1076 q 389 1092 386 1088 q 445 1158 418 1124 q 494 1225 472 1192 q 509 1227 497 1229 q 536 1219 521 1225 q 565 1206 551 1213 q 585 1194 579 1199 q 585 1186 590 1189 q 485 1138 528 1164 q 399 1079 442 1111 z "},"Ặ":{"ha":975,"x_min":-4,"x_max":976,"o":"m 269 382 l 283 410 l 651 410 l 661 382 l 269 382 m 971 17 q 976 8 976 17 q 971 0 976 0 q 889 3 931 0 q 808 6 847 6 q 733 3 765 6 q 663 0 701 0 q 657 8 657 0 q 663 17 657 17 q 754 38 736 17 q 744 119 772 60 l 436 771 l 471 814 l 201 176 q 197 54 167 92 q 318 17 228 17 q 325 8 325 17 q 318 0 325 0 q 242 3 276 0 q 154 6 207 6 q 74 3 104 6 q 1 0 44 0 q -4 8 -4 0 q 1 17 -4 17 q 67 31 39 17 q 119 83 94 46 q 172 189 143 119 l 465 881 q 475 885 468 885 q 483 881 482 885 l 811 190 q 868 84 843 122 q 917 31 893 46 q 971 17 942 17 m 490 -264 q 444 -249 461 -264 q 428 -206 428 -233 q 444 -162 428 -178 q 490 -147 461 -147 q 533 -162 518 -147 q 549 -206 549 -178 q 490 -264 549 -264 m 474 958 q 377 997 414 958 q 331 1107 340 1036 q 337 1113 329 1113 q 346 1111 344 1114 q 392 1046 356 1074 q 474 1018 428 1018 q 555 1046 518 1018 q 600 1111 592 1074 q 609 1113 601 1114 q 615 1107 617 1113 q 569 997 606 1036 q 474 958 533 958 z "},"Ằ":{"ha":975,"x_min":-4,"x_max":976,"o":"m 269 382 l 283 410 l 651 410 l 661 382 l 269 382 m 971 17 q 976 8 976 17 q 971 0 976 0 q 889 3 931 0 q 808 6 847 6 q 733 3 765 6 q 663 0 701 0 q 657 8 657 0 q 663 17 657 17 q 754 38 736 17 q 744 119 772 60 l 436 771 l 471 814 l 201 176 q 197 54 167 92 q 318 17 228 17 q 325 8 325 17 q 318 0 325 0 q 242 3 276 0 q 154 6 207 6 q 74 3 104 6 q 1 0 44 0 q -4 8 -4 0 q 1 17 -4 17 q 67 31 39 17 q 119 83 94 46 q 172 189 143 119 l 465 881 q 475 885 468 885 q 483 881 482 885 l 811 190 q 868 84 843 122 q 917 31 893 46 q 971 17 942 17 m 474 943 q 331 1092 351 943 q 337 1097 329 1096 q 346 1094 344 1099 q 392 1030 356 1057 q 474 1003 428 1003 q 555 1030 518 1003 q 600 1094 592 1057 q 609 1097 601 1099 q 615 1092 617 1096 q 474 943 594 943 m 544 1079 q 459 1138 501 1111 q 360 1186 417 1164 q 360 1194 354 1189 q 380 1206 367 1199 q 408 1219 393 1213 q 435 1227 424 1225 q 450 1225 447 1229 q 499 1158 472 1192 q 554 1092 526 1125 q 556 1082 560 1088 q 544 1079 551 1076 z "},"Ẳ":{"ha":975,"x_min":-4,"x_max":976,"o":"m 269 382 l 283 410 l 651 410 l 661 382 l 269 382 m 971 17 q 976 8 976 17 q 971 0 976 0 q 889 3 931 0 q 808 6 847 6 q 733 3 765 6 q 663 0 701 0 q 657 8 657 0 q 663 17 657 17 q 754 38 736 17 q 744 119 772 60 l 436 771 l 471 814 l 201 176 q 197 54 167 92 q 318 17 228 17 q 325 8 325 17 q 318 0 325 0 q 242 3 276 0 q 154 6 207 6 q 74 3 104 6 q 1 0 44 0 q -4 8 -4 0 q 1 17 -4 17 q 67 31 39 17 q 119 83 94 46 q 172 189 143 119 l 465 881 q 475 885 468 885 q 483 881 482 885 l 811 190 q 868 84 843 122 q 917 31 893 46 q 971 17 942 17 m 474 943 q 331 1092 351 943 q 337 1097 329 1096 q 346 1094 344 1099 q 392 1030 356 1057 q 474 1003 428 1003 q 555 1030 518 1003 q 600 1094 592 1057 q 609 1097 601 1099 q 615 1092 617 1096 q 474 943 594 943 m 456 1019 q 457 1063 447 1043 q 479 1101 467 1082 q 492 1142 492 1121 q 476 1175 492 1165 q 444 1185 461 1185 q 413 1178 426 1185 q 404 1182 410 1176 q 403 1189 399 1188 q 448 1209 425 1203 q 486 1215 471 1215 q 536 1197 519 1215 q 553 1157 553 1178 q 539 1117 553 1135 q 507 1084 525 1100 q 478 1053 489 1068 q 471 1019 467 1038 q 465 1016 472 1017 q 456 1019 457 1015 z "},"Ẵ":{"ha":975,"x_min":-4,"x_max":976,"o":"m 269 382 l 283 410 l 651 410 l 661 382 l 269 382 m 971 17 q 976 8 976 17 q 971 0 976 0 q 889 3 931 0 q 808 6 847 6 q 733 3 765 6 q 663 0 701 0 q 657 8 657 0 q 663 17 657 17 q 754 38 736 17 q 744 119 772 60 l 436 771 l 471 814 l 201 176 q 197 54 167 92 q 318 17 228 17 q 325 8 325 17 q 318 0 325 0 q 242 3 276 0 q 154 6 207 6 q 74 3 104 6 q 1 0 44 0 q -4 8 -4 0 q 1 17 -4 17 q 67 31 39 17 q 119 83 94 46 q 172 189 143 119 l 465 881 q 475 885 468 885 q 483 881 482 885 l 811 190 q 868 84 843 122 q 917 31 893 46 q 971 17 942 17 m 478 931 q 381 969 418 931 q 335 1079 344 1008 q 341 1085 333 1085 q 350 1083 349 1086 q 395 1018 358 1046 q 478 990 432 990 q 558 1018 521 990 q 604 1083 594 1046 q 612 1085 604 1086 q 619 1079 619 1085 q 572 969 608 1008 q 478 931 536 931 m 581 1160 q 623 1171 608 1160 q 650 1197 638 1182 q 658 1195 653 1200 q 660 1188 663 1190 q 599 1118 622 1135 q 550 1101 575 1101 q 491 1110 519 1101 q 433 1126 463 1118 q 368 1135 403 1135 q 327 1124 340 1135 q 300 1097 314 1113 q 292 1100 297 1096 q 290 1107 288 1104 q 319 1144 301 1124 q 360 1178 338 1164 q 407 1193 383 1193 q 458 1185 431 1193 q 517 1168 486 1176 q 581 1160 547 1160 z "},"Ǎ":{"ha":975,"x_min":-4,"x_max":976,"o":"m 269 382 l 283 410 l 651 410 l 661 382 l 269 382 m 971 17 q 976 8 976 17 q 971 0 976 0 q 889 3 931 0 q 808 6 847 6 q 733 3 765 6 q 663 0 701 0 q 657 8 657 0 q 663 17 657 17 q 754 38 736 17 q 744 119 772 60 l 436 771 l 471 814 l 201 176 q 197 54 167 92 q 318 17 228 17 q 325 8 325 17 q 318 0 325 0 q 242 3 276 0 q 154 6 207 6 q 74 3 104 6 q 1 0 44 0 q -4 8 -4 0 q 1 17 -4 17 q 67 31 39 17 q 119 83 94 46 q 172 189 143 119 l 465 881 q 475 885 468 885 q 483 881 482 885 l 811 190 q 868 84 843 122 q 917 31 893 46 q 971 17 942 17 m 457 954 l 314 1089 q 316 1096 311 1092 q 322 1099 321 1100 l 474 1018 l 624 1099 q 631 1097 626 1101 q 631 1089 635 1092 l 489 954 q 474 949 483 949 q 457 954 464 949 z "},"Â":{"ha":975,"x_min":-4,"x_max":976,"o":"m 269 382 l 283 410 l 651 410 l 661 382 l 269 382 m 971 17 q 976 8 976 17 q 971 0 976 0 q 889 3 931 0 q 808 6 847 6 q 733 3 765 6 q 663 0 701 0 q 657 8 657 0 q 663 17 657 17 q 754 38 736 17 q 744 119 772 60 l 436 771 l 471 814 l 201 176 q 197 54 167 92 q 318 17 228 17 q 325 8 325 17 q 318 0 325 0 q 242 3 276 0 q 154 6 207 6 q 74 3 104 6 q 1 0 44 0 q -4 8 -4 0 q 1 17 -4 17 q 67 31 39 17 q 119 83 94 46 q 172 189 143 119 l 465 881 q 475 885 468 885 q 483 881 482 885 l 811 190 q 868 84 843 122 q 917 31 893 46 q 971 17 942 17 m 314 954 l 457 1089 q 474 1096 464 1096 q 489 1089 483 1096 l 631 954 q 631 948 635 953 q 624 944 626 943 l 474 1025 l 322 944 q 316 948 321 943 q 314 954 311 953 z "},"Ấ":{"ha":975,"x_min":-4,"x_max":976,"o":"m 269 382 l 283 410 l 651 410 l 661 382 l 269 382 m 971 17 q 976 8 976 17 q 971 0 976 0 q 889 3 931 0 q 808 6 847 6 q 733 3 765 6 q 663 0 701 0 q 657 8 657 0 q 663 17 657 17 q 754 38 736 17 q 744 119 772 60 l 436 771 l 471 814 l 201 176 q 197 54 167 92 q 318 17 228 17 q 325 8 325 17 q 318 0 325 0 q 242 3 276 0 q 154 6 207 6 q 74 3 104 6 q 1 0 44 0 q -4 8 -4 0 q 1 17 -4 17 q 67 31 39 17 q 119 83 94 46 q 172 189 143 119 l 465 881 q 475 885 468 885 q 483 881 482 885 l 811 190 q 868 84 843 122 q 917 31 893 46 q 971 17 942 17 m 314 954 l 457 1089 q 474 1096 464 1096 q 489 1089 483 1096 l 631 954 q 631 948 635 953 q 624 944 626 943 l 474 1025 l 322 944 q 316 948 321 943 q 314 954 311 953 m 565 1006 q 556 1008 560 1003 q 556 1017 553 1013 q 612 1084 585 1050 q 661 1151 639 1118 q 676 1153 664 1156 q 703 1144 688 1150 q 732 1132 718 1139 q 751 1119 746 1125 q 751 1113 757 1114 q 651 1064 694 1090 q 565 1006 608 1038 z "},"Ậ":{"ha":975,"x_min":-4,"x_max":976,"o":"m 269 382 l 283 410 l 651 410 l 661 382 l 269 382 m 971 17 q 976 8 976 17 q 971 0 976 0 q 889 3 931 0 q 808 6 847 6 q 733 3 765 6 q 663 0 701 0 q 657 8 657 0 q 663 17 657 17 q 754 38 736 17 q 744 119 772 60 l 436 771 l 471 814 l 201 176 q 197 54 167 92 q 318 17 228 17 q 325 8 325 17 q 318 0 325 0 q 242 3 276 0 q 154 6 207 6 q 74 3 104 6 q 1 0 44 0 q -4 8 -4 0 q 1 17 -4 17 q 67 31 39 17 q 119 83 94 46 q 172 189 143 119 l 465 881 q 475 885 468 885 q 483 881 482 885 l 811 190 q 868 84 843 122 q 917 31 893 46 q 971 17 942 17 m 490 -264 q 444 -249 461 -264 q 428 -206 428 -233 q 444 -162 428 -178 q 490 -147 461 -147 q 533 -162 518 -147 q 549 -206 549 -178 q 490 -264 549 -264 m 314 954 l 457 1089 q 474 1096 464 1096 q 489 1089 483 1096 l 631 954 q 631 948 635 953 q 624 944 626 943 l 474 1025 l 322 944 q 316 948 321 943 q 314 954 311 953 z "},"Ầ":{"ha":975,"x_min":-4,"x_max":976,"o":"m 269 382 l 283 410 l 651 410 l 661 382 l 269 382 m 971 17 q 976 8 976 17 q 971 0 976 0 q 889 3 931 0 q 808 6 847 6 q 733 3 765 6 q 663 0 701 0 q 657 8 657 0 q 663 17 657 17 q 754 38 736 17 q 744 119 772 60 l 436 771 l 471 814 l 201 176 q 197 54 167 92 q 318 17 228 17 q 325 8 325 17 q 318 0 325 0 q 242 3 276 0 q 154 6 207 6 q 74 3 104 6 q 1 0 44 0 q -4 8 -4 0 q 1 17 -4 17 q 67 31 39 17 q 119 83 94 46 q 172 189 143 119 l 465 881 q 475 885 468 885 q 483 881 482 885 l 811 190 q 868 84 843 122 q 917 31 893 46 q 971 17 942 17 m 314 954 l 457 1089 q 474 1096 464 1096 q 489 1089 483 1096 l 631 954 q 631 948 635 953 q 624 944 626 943 l 474 1025 l 322 944 q 316 948 321 943 q 314 954 311 953 m 707 975 q 621 1033 664 1007 q 522 1082 578 1058 q 522 1089 515 1083 q 541 1101 528 1094 q 570 1114 554 1108 q 598 1122 586 1119 q 611 1121 610 1124 q 661 1053 635 1088 q 717 988 688 1019 q 717 977 721 982 q 707 975 714 972 z "},"Ẩ":{"ha":975,"x_min":-4,"x_max":976,"o":"m 269 382 l 283 410 l 651 410 l 661 382 l 269 382 m 971 17 q 976 8 976 17 q 971 0 976 0 q 889 3 931 0 q 808 6 847 6 q 733 3 765 6 q 663 0 701 0 q 657 8 657 0 q 663 17 657 17 q 754 38 736 17 q 744 119 772 60 l 436 771 l 471 814 l 201 176 q 197 54 167 92 q 318 17 228 17 q 325 8 325 17 q 318 0 325 0 q 242 3 276 0 q 154 6 207 6 q 74 3 104 6 q 1 0 44 0 q -4 8 -4 0 q 1 17 -4 17 q 67 31 39 17 q 119 83 94 46 q 172 189 143 119 l 465 881 q 475 885 468 885 q 483 881 482 885 l 811 190 q 868 84 843 122 q 917 31 893 46 q 971 17 942 17 m 314 954 l 457 1089 q 474 1096 464 1096 q 489 1089 483 1096 l 631 954 q 631 948 635 953 q 624 944 626 943 l 474 1025 l 322 944 q 316 948 321 943 q 314 954 311 953 m 585 1004 q 588 1048 578 1028 q 610 1087 597 1068 q 622 1128 622 1106 q 607 1160 622 1150 q 575 1171 592 1171 q 542 1164 557 1171 q 533 1167 539 1161 q 532 1175 528 1172 q 577 1194 554 1189 q 617 1200 600 1200 q 666 1182 649 1200 q 683 1142 683 1164 q 669 1102 683 1119 q 637 1069 654 1085 q 608 1038 619 1054 q 600 1004 596 1022 q 594 1001 603 1003 q 585 1004 586 1000 z "},"Ẫ":{"ha":975,"x_min":-4,"x_max":976,"o":"m 269 382 l 283 410 l 651 410 l 661 382 l 269 382 m 971 17 q 976 8 976 17 q 971 0 976 0 q 889 3 931 0 q 808 6 847 6 q 733 3 765 6 q 663 0 701 0 q 657 8 657 0 q 663 17 657 17 q 754 38 736 17 q 744 119 772 60 l 436 771 l 471 814 l 201 176 q 197 54 167 92 q 318 17 228 17 q 325 8 325 17 q 318 0 325 0 q 242 3 276 0 q 154 6 207 6 q 74 3 104 6 q 1 0 44 0 q -4 8 -4 0 q 1 17 -4 17 q 67 31 39 17 q 119 83 94 46 q 172 189 143 119 l 465 881 q 475 885 468 885 q 483 881 482 885 l 811 190 q 868 84 843 122 q 917 31 893 46 q 971 17 942 17 m 314 954 l 457 1089 q 474 1096 464 1096 q 489 1089 483 1096 l 631 954 q 631 948 635 953 q 624 944 626 943 l 474 1025 l 322 944 q 316 948 321 943 q 314 954 311 953 m 588 1165 q 630 1176 615 1165 q 657 1203 644 1188 q 665 1201 660 1206 q 667 1193 669 1196 q 606 1123 629 1140 q 557 1106 582 1106 q 498 1115 526 1106 q 440 1132 469 1124 q 375 1140 411 1140 q 334 1129 347 1140 q 307 1103 321 1118 q 299 1105 304 1101 q 297 1113 294 1108 q 326 1149 308 1129 q 367 1183 344 1168 q 414 1199 390 1199 q 466 1190 439 1199 q 524 1174 493 1182 q 588 1165 554 1165 z "},"Ȁ":{"ha":975,"x_min":-4,"x_max":976,"o":"m 269 382 l 283 410 l 651 410 l 661 382 l 269 382 m 971 17 q 976 8 976 17 q 971 0 976 0 q 889 3 931 0 q 808 6 847 6 q 733 3 765 6 q 663 0 701 0 q 657 8 657 0 q 663 17 657 17 q 754 38 736 17 q 744 119 772 60 l 436 771 l 471 814 l 201 176 q 197 54 167 92 q 318 17 228 17 q 325 8 325 17 q 318 0 325 0 q 242 3 276 0 q 154 6 207 6 q 74 3 104 6 q 1 0 44 0 q -4 8 -4 0 q 1 17 -4 17 q 67 31 39 17 q 119 83 94 46 q 172 189 143 119 l 465 881 q 475 885 468 885 q 483 881 482 885 l 811 190 q 868 84 843 122 q 917 31 893 46 q 971 17 942 17 m 615 942 q 626 944 622 938 q 626 954 631 950 q 561 1021 592 989 q 501 1086 531 1053 q 481 1088 499 1090 q 445 1078 464 1085 q 415 1064 426 1071 q 413 1053 404 1057 q 520 1001 474 1028 q 615 942 567 975 m 443 942 q 453 944 450 938 q 454 954 457 950 q 388 1020 418 988 q 329 1086 358 1053 q 310 1088 326 1090 q 276 1078 294 1085 q 247 1064 257 1071 q 243 1053 236 1057 q 349 1002 303 1029 q 443 942 394 975 z "}}}
